<svg width="308" height="334" viewBox="0 0 308 334" fill="none" xmlns="http://www.w3.org/2000/svg">
<rect width="307" height="334" rx="8" fill="white"/>
<path d="M307.219 287.96C307.219 280.228 239.614 273.96 156.219 273.96C72.8239 273.96 5.21887 280.228 5.21887 287.96C5.21887 295.692 72.8239 301.96 156.219 301.96C239.614 301.96 307.219 295.692 307.219 287.96Z" fill="#BCBCBC"/>
<path fill-rule="evenodd" clip-rule="evenodd" d="M122.709 174.264C130.047 172.883 136.388 176.553 141.755 182.623C142.971 184 144.142 185.53 145.271 187.203C135.538 193.587 108.63 193.492 108.821 188.346C108.821 188.346 110.682 176.53 122.709 174.264Z" fill="#3446AD"/>
<path fill-rule="evenodd" clip-rule="evenodd" d="M121.922 175.331C122.542 176.356 124.152 176.979 125.854 176.987C128.442 177 129.114 175.542 129.114 175.542C129.114 175.542 128.354 174.432 128.758 171.81C127.265 171.205 122.865 171.81 122.865 171.81C122.865 171.81 122.71 173.521 121.922 175.331Z" fill="#FFD4D6"/>
<path fill-rule="evenodd" clip-rule="evenodd" d="M133.766 164.601C134.737 165.049 132.056 170.335 131.619 168.269C131.666 166.366 132.11 165.589 132.11 165.589C132.11 165.589 132.795 164.153 133.766 164.601Z" fill="#FFD4D6"/>
<path fill-rule="evenodd" clip-rule="evenodd" d="M117.655 164.601C116.686 165.049 119.364 170.335 119.804 168.269C119.754 166.366 119.312 165.589 119.312 165.589C119.312 165.589 118.626 164.153 117.655 164.601Z" fill="#FFD4D6"/>
<path fill-rule="evenodd" clip-rule="evenodd" d="M121.034 170.534C122.705 172.532 124.424 173.786 126.067 173.786C127.709 173.786 129.702 172.038 130.832 170.238C131.962 168.437 132.286 164.566 132.258 163.086C132.232 161.608 130.39 154.981 124.155 155.438C119.203 155.801 119.337 163.544 119.337 163.544C119.337 163.544 118.987 168.087 121.034 170.534Z" fill="#FFD4D6"/>
<path fill-rule="evenodd" clip-rule="evenodd" d="M126.716 164.601C126.716 165.734 127.637 166.655 128.772 166.655C129.905 166.655 130.827 165.734 130.827 164.601C130.827 163.469 129.905 162.548 128.772 162.548C127.637 162.548 126.716 163.469 126.716 164.601ZM126.486 164.601C126.486 163.343 127.512 162.318 128.772 162.318C130.031 162.318 131.057 163.343 131.057 164.601C131.057 165.859 130.031 166.883 128.772 166.883C127.512 166.883 126.486 165.859 126.486 164.601Z" fill="#262626"/>
<path fill-rule="evenodd" clip-rule="evenodd" d="M120.587 164.601C120.587 165.734 121.51 166.655 122.642 166.655C123.777 166.655 124.698 165.734 124.698 164.601C124.698 163.469 123.777 162.548 122.642 162.548C121.51 162.548 120.587 163.469 120.587 164.601ZM120.357 164.601C120.357 163.343 121.383 162.318 122.642 162.318C123.902 162.318 124.928 163.343 124.928 164.601C124.928 165.859 123.902 166.883 122.642 166.883C121.383 166.883 120.357 165.859 120.357 164.601Z" fill="#262626"/>
<path fill-rule="evenodd" clip-rule="evenodd" d="M306.34 299.553V53H7V299.553H306.34Z" fill="black"/>
<mask id="mask0_13_159" style="mask-type:luminance" maskUnits="userSpaceOnUse" x="7" y="53" width="300" height="247">
<path fill-rule="evenodd" clip-rule="evenodd" d="M306.34 299.553V53H7V299.553H306.34Z" fill="white"/>
</mask>
<g mask="url(#mask0_13_159)">
<path fill-rule="evenodd" clip-rule="evenodd" d="M126.759 163.81V163.581H124.711V163.81H126.759Z" fill="#262626"/>
<path fill-rule="evenodd" clip-rule="evenodd" d="M126.863 160.739C126.57 160.092 125.788 158.856 125.788 158.856C125.788 158.856 127.571 160.739 129.516 161.328C129.398 161.034 128.927 160.503 128.751 159.828C129.929 160.974 130.74 161.174 131.344 161.328C131.946 161.482 131.53 162.591 131.873 163.506C132.217 164.421 131.688 166.242 131.619 166.771C132.697 165.065 132.939 164.728 133.642 164.558C134.349 164.389 137.579 156.162 130.212 152.984C124.193 150.388 122.148 152.885 121.087 153.985C117.445 153.455 116.913 160.625 117.907 164.516C119.312 165.589 119.295 165.722 119.662 166.771C119.792 164.957 119.734 164.093 119.803 163.231C119.871 162.368 121.636 160.445 121.087 158.327C121.087 158.327 122.268 159.386 126.863 160.739Z" fill="#282828"/>
<path fill-rule="evenodd" clip-rule="evenodd" d="M134.716 162.13C134.716 162.13 136.717 155.164 132.261 152.976C127.804 150.788 120.191 150.513 117.859 154.828C116.625 157.088 116.488 159.007 116.488 159.007C116.488 159.007 107.571 158.869 111.068 160.616L134.716 162.13Z" fill="#F2387F"/>
<path opacity="0.4" fill-rule="evenodd" clip-rule="evenodd" d="M173.978 153.246C178.565 132.307 176.107 122.528 176.627 117.93C177.551 109.737 204.422 109.215 209.336 127.538C214.25 145.861 208.084 168.952 206.117 170.915C234.294 170.915 250.457 172.551 256.682 172.551C265.301 172.551 274.56 190.547 263.093 202.981C273.249 211.16 274.069 221.467 263.093 232.429C269.974 241.917 261.782 255.333 251.954 257.95C258.835 268.421 249.333 281.509 231.968 281.509H159.234C152.354 281.509 141.214 272.019 141.214 272.019V192.838C141.214 192.838 169.391 174.187 173.978 153.246Z" fill="#33907C"/>
<path fill-rule="evenodd" clip-rule="evenodd" d="M201.51 170.574C203.173 170.574 204.787 170.58 206.36 170.591C208.538 167.193 214.063 145.165 209.336 127.538C204.56 109.732 179.056 109.724 176.771 117.257C183.488 113.432 200.776 115.695 204.499 129.758C209.066 146.999 203.337 168.727 201.51 170.574Z" fill="#EDEDED"/>
<path fill-rule="evenodd" clip-rule="evenodd" d="M256.682 172.551C255.081 172.551 252.808 172.442 249.856 172.281C257.411 174.035 264.487 189.715 254.441 200.746C263.877 208.443 264.637 218.141 254.441 228.455C260.833 237.384 253.224 250.008 244.092 252.47C250.484 262.323 241.658 281.509 225.526 281.509H231.969C249.333 281.509 258.835 268.421 251.954 257.95C261.782 255.333 269.974 241.917 263.093 232.429C274.069 221.467 273.249 211.16 263.093 202.981C274.559 190.547 265.301 172.551 256.682 172.551Z" fill="#EDEDED"/>
<path fill-rule="evenodd" clip-rule="evenodd" d="M254.302 286V176.794H252.012V286H254.302Z" fill="#545454"/>
<path fill-rule="evenodd" clip-rule="evenodd" d="M220.333 286V176.794H218.043V286H220.333Z" fill="#545454"/>
<path fill-rule="evenodd" clip-rule="evenodd" d="M252.585 275.804V272.945H219.188V275.804H252.585Z" fill="#545454"/>
<path fill-rule="evenodd" clip-rule="evenodd" d="M252.585 258.27V255.411H219.188V258.27H252.585Z" fill="#545454"/>
<path fill-rule="evenodd" clip-rule="evenodd" d="M252.585 240.736V237.877H219.188V240.736H252.585Z" fill="#545454"/>
<path fill-rule="evenodd" clip-rule="evenodd" d="M252.585 223.203V220.344H219.188V223.203H252.585Z" fill="#545454"/>
<path fill-rule="evenodd" clip-rule="evenodd" d="M252.585 205.668V202.81H219.188V205.668H252.585Z" fill="#545454"/>
<path fill-rule="evenodd" clip-rule="evenodd" d="M252.585 188.134V185.275H219.188V188.134H252.585Z" fill="#545454"/>
<path opacity="0.4" fill-rule="evenodd" clip-rule="evenodd" d="M31.7353 284.125V274.863L136.081 186.621H146.129V284.125H31.7353Z" fill="#33907C"/>
<path opacity="0.4" fill-rule="evenodd" clip-rule="evenodd" d="M136.081 186.621C136.081 186.621 68.8604 184.354 42.4718 228.274C29.4947 249.873 31.7352 284.125 31.7352 284.125H136.081V186.621Z" fill="#33907C"/>
<path fill-rule="evenodd" clip-rule="evenodd" d="M119.012 184.483C117.962 184.586 114.211 184.865 112.882 187.861C112.513 188.722 114.091 189.092 115.474 188.352C116.857 187.612 118.021 187.667 118.923 187.788C119.823 187.909 120.61 187.585 121.246 187.327C121.882 187.069 121.49 184.72 121.49 184.72C121.49 184.72 120.062 184.381 119.012 184.483Z" fill="#FFD4D6"/>
<path fill-rule="evenodd" clip-rule="evenodd" d="M134.33 182.996C129.75 182.628 122.37 183.867 120.716 184.312C121.034 186.345 121.225 187.806 121.225 187.806C121.225 187.806 129.167 186.917 132.798 187.235C136.428 187.552 144.467 189.007 144.539 186.726C144.589 185.136 142.281 182.375 140.915 181.706C140.915 181.706 138.91 183.365 134.33 182.996Z" fill="#4E65C6"/>
<path fill-rule="evenodd" clip-rule="evenodd" d="M131.561 180.691C132.608 180.569 136.333 180.046 138.27 182.692C138.812 183.455 137.349 184.152 135.84 183.72C134.331 183.29 133.206 183.591 132.35 183.9C131.495 184.209 130.659 184.06 129.982 183.942C129.306 183.824 129.189 181.446 129.189 181.446C129.189 181.446 130.513 180.813 131.561 180.691Z" fill="#FFD4D6"/>
<path fill-rule="evenodd" clip-rule="evenodd" d="M116.276 182.482C120.673 181.151 128.147 180.799 129.86 180.883C129.98 182.938 130.104 184.406 130.104 184.406C130.104 184.406 122.154 185.22 118.673 186.299C115.193 187.378 109.28 190.197 108.724 187.984C108.338 186.44 109.949 183.267 111.141 182.325C111.141 182.325 111.879 183.812 116.276 182.482Z" fill="#4E65C6"/>
<path fill-rule="evenodd" clip-rule="evenodd" d="M82.3261 215.091C82.2307 215.981 81.9765 219.158 78.9864 220.301C78.1276 220.618 77.7452 219.285 78.4772 218.109C79.2085 216.934 79.1452 215.949 79.0177 215.187C78.891 214.424 79.2093 213.757 79.4635 213.218C79.7177 212.678 82.0711 212.995 82.0711 212.995C82.0711 212.995 82.4215 214.202 82.3261 215.091Z" fill="#FFD4D6"/>
<path fill-rule="evenodd" clip-rule="evenodd" d="M106.724 169.72C107.476 175.625 110.776 187.025 106.8 185.068C100.134 181.785 94.194 183.355 90.8573 183.23C84.184 182.98 85.6108 183.115 85.9695 180.497C86.3321 177.882 89.5436 165.453 91.3581 162.991C93.1711 160.533 98.0566 155.883 102.97 160.238C102.97 160.238 105.966 163.815 106.724 169.72Z" fill="#282828"/>
<path fill-rule="evenodd" clip-rule="evenodd" d="M111.235 283.256C112.046 285.019 115.985 288.338 116.558 289.338C117.13 290.339 116.224 291.148 115.461 291.1C114.698 291.053 109.629 290.347 106.071 287.032C106.071 287.33 106.035 288.219 106.035 288.219L104.985 288.187C104.985 288.187 103.843 279.141 105.024 278.856C106.205 278.57 108.002 278.856 108.002 278.856C108.002 278.856 110.424 281.493 111.235 283.256Z" fill="#444444"/>
<path fill-rule="evenodd" clip-rule="evenodd" d="M92.3214 277.188C92.3214 277.188 92.281 277.207 92.2077 277.245C91.8588 277.429 91.2481 278.49 90.4573 279.898C89.5031 281.598 87.5978 288.052 87.884 288.767C88.1703 289.481 89.4046 291.482 90.5772 291.816C91.7489 292.15 93.8077 290.244 94.5711 289.196C95.3344 288.148 95.5046 279.492 94.8588 277.392L92.3214 277.188Z" fill="#444444"/>
<path fill-rule="evenodd" clip-rule="evenodd" d="M109.927 281.429C110.88 282.62 108.256 284.526 106.587 283.764C104.917 283.001 105.203 278.951 104.821 277.188C104.44 275.425 107.493 275.044 107.493 275.044C107.493 275.044 108.972 280.237 109.927 281.429Z" fill="#FFD4D6"/>
<path fill-rule="evenodd" clip-rule="evenodd" d="M91.3198 279.094C90.89 279.999 89.8877 281.143 91.3198 281.953C92.7503 282.763 95.1839 282.524 94.8503 280.094C94.516 277.664 95.3267 275.043 95.3267 275.043L92.1305 274.329C92.1305 274.329 91.7488 278.188 91.3198 279.094Z" fill="#FFD4D6"/>
<path fill-rule="evenodd" clip-rule="evenodd" d="M99.8595 252.098C97.9511 255.783 96.0427 275.985 96.0427 275.985L90.3175 275.096C90.3175 275.096 92.8625 250.954 95.5343 241.298C98.2061 231.642 94.8977 220.079 94.8977 220.079H108.002C108.002 220.079 101.768 248.414 99.8595 252.098Z" fill="#2C4199"/>
<path fill-rule="evenodd" clip-rule="evenodd" d="M89.5541 229.481C91.7175 234.945 98.206 250.954 98.7144 252.86C99.0961 259.213 102.277 273.954 104.185 278.147C107.493 277.512 108.511 276.241 108.511 276.241C108.511 276.241 105.585 254.387 104.821 250.956C104.058 247.526 97.0847 220.715 97.0847 220.715L87.1373 220.079C87.1373 220.079 87.3915 224.017 89.5541 229.481Z" fill="#3446AD"/>
<path fill-rule="evenodd" clip-rule="evenodd" d="M106.062 194.283C106.062 194.283 109.974 201.24 110.356 202.097C110.737 202.955 106.062 204.003 106.062 204.003V194.283ZM107.016 183.728C105.657 182.651 97.3473 180.303 97.3473 180.303C91.303 179.187 85.1702 182.702 83.8343 184.344C82.4984 185.986 74.4694 191.919 72.7999 198.161C72.1801 200.477 79.1931 207.024 78.0312 214.075L82.6755 213.313C82.3709 213.02 82.5412 208.041 81.3877 204.546C80.2686 201.159 78.6076 197.761 78.9862 197.336C79.5877 196.66 86.7465 191.554 86.7465 191.554C86.8106 193.46 85.9702 202.764 85.9702 202.764L85.4511 208.577C85.4511 208.577 85.6419 210.674 83.4473 220.013C95.7564 224.777 110.928 220.68 110.928 220.013C110.928 219.346 107.588 210.102 107.588 210.102C107.588 210.102 118.371 207.339 116.844 202.955C115.317 198.572 108.376 184.805 107.016 183.728Z" fill="#FFEB75"/>
<path fill-rule="evenodd" clip-rule="evenodd" d="M89.9313 168.792C88.8893 169.019 90.3565 174.755 91.2282 172.836C91.5969 170.969 91.3328 170.113 91.3328 170.113C91.3328 170.113 90.9748 168.566 89.9313 168.792Z" fill="#FFD4D6"/>
<path fill-rule="evenodd" clip-rule="evenodd" d="M101.068 177.334C99.0026 178.922 97.0538 179.775 95.4507 179.418C93.8492 179.063 92.2858 176.929 91.5729 174.927C90.8599 172.925 91.382 169.079 91.7293 167.643C92.0751 166.206 95.311 160.139 101.291 161.933C106.045 163.357 100.195 167.922 100.195 167.922C100.195 167.922 103.594 175.389 101.068 177.334Z" fill="#FFD4D6"/>
<path fill-rule="evenodd" clip-rule="evenodd" d="M91.2805 169.662C91.1645 169.368 90.4484 169.434 91.1881 166.669C91.9263 163.902 96.7301 159.765 101.51 160.946C106.291 162.13 105.645 169.601 104.201 172.496C103.197 171.394 96.5049 163.957 96.6286 162.9C96.6286 162.9 93.1797 167.653 91.2805 169.662Z" fill="#282828"/>
<path fill-rule="evenodd" clip-rule="evenodd" d="M99.8472 182.576C97.4548 183.865 96.28 183.935 94.6518 183.452C93.022 182.965 91.348 180.829 91.348 180.829C91.348 180.829 93.08 179.552 93.2548 176.909C94.8426 176.642 99.0037 178.182 99.0037 178.182C99.0037 178.182 98.5472 180.424 99.8472 182.576Z" fill="#FFD4D6"/>
<path fill-rule="evenodd" clip-rule="evenodd" d="M96.0345 192.253C102.841 192.697 108.791 186.874 108.678 183.727C108.563 180.58 101.378 178.086 101.378 178.086C101.378 178.086 100.487 189.266 96.0345 192.253Z" fill="#282828"/>
<path fill-rule="evenodd" clip-rule="evenodd" d="M294.877 195.319C294.929 194.041 296.81 192.62 297.67 192.076C298.53 191.532 301.67 190.527 301.728 190.785C301.785 191.044 303.288 191.792 302.086 193.934C301.345 195.254 297.625 197.587 297.345 198.824C297.063 200.063 294.534 197.329 294.534 197.329C294.534 197.329 294.825 196.598 294.877 195.319Z" fill="#FFD4D6"/>
<path fill-rule="evenodd" clip-rule="evenodd" d="M264.309 195.743C264.394 199.958 277.946 210.709 281.182 212.445C284.417 214.182 295.326 203.184 297.227 200.952C298.716 198.491 295.389 196.14 293.69 196.558C291.992 196.978 283.276 204.849 282.481 204.591C281.688 204.333 275.506 196.096 270.012 193.81C270.012 193.81 264.224 191.528 264.309 195.743Z" fill="#864596"/>
<path fill-rule="evenodd" clip-rule="evenodd" d="M270.471 283.11C271.331 284.259 282.889 283.557 285.068 283.792C287.246 284.028 289.361 280.861 286.499 280.449C283.634 280.035 273.982 278.486 273.465 276.045C272.95 273.604 269.936 276.956 269.936 276.956C269.936 276.956 269.61 281.959 270.471 283.11Z" fill="#333333"/>
<path fill-rule="evenodd" clip-rule="evenodd" d="M260.784 244.815C259.594 245.594 259.582 257.043 259.217 259.179C258.851 261.314 261.856 263.597 262.439 260.796C263.023 257.993 265.143 248.562 267.592 248.203C270.039 247.842 266.905 244.664 266.905 244.664C266.905 244.664 261.976 244.036 260.784 244.815Z" fill="#333333"/>
<path fill-rule="evenodd" clip-rule="evenodd" d="M295.497 239.395C295.964 242.612 297.528 246.665 266.735 249.615C266.123 246.772 266.252 244.104 266.252 244.104C266.252 244.104 282.951 239.626 286.467 239.789C281.019 231.849 272.883 227.04 271.69 225.94C270.498 224.842 274.367 218.695 274.367 218.695L283.531 219.918C283.531 219.918 295.032 236.177 295.497 239.395Z" fill="#246642"/>
<path fill-rule="evenodd" clip-rule="evenodd" d="M270.307 245.126C270.028 252.348 268.499 272.475 268.917 277.201H275.313C275.313 277.201 277.522 257.01 278.219 253.26C278.914 249.511 279.74 241.449 278.88 234.746C277.827 226.524 277.342 220.676 277.342 220.676L264.328 223.461C264.328 223.461 269.612 240.126 270.307 245.126Z" fill="#2F8C57"/>
<path fill-rule="evenodd" clip-rule="evenodd" d="M273.204 174.221C273.134 174.314 277.957 182.624 277.957 182.624C277.957 182.624 279.207 180.192 280.179 179.082C281.154 177.97 276.838 169.916 276.838 169.916C276.838 169.916 273.273 174.129 273.204 174.221Z" fill="#FFD4D6"/>
<path fill-rule="evenodd" clip-rule="evenodd" d="M290.564 172.911C289.71 174.309 290.587 175.622 290.727 176.611C290.865 177.6 289.669 177.381 288.632 176.903C287.282 178.644 285.801 181.915 282.374 181.304C278.948 180.696 275.471 174.703 277.38 171.411C278.099 168.479 281.965 163.635 281.965 163.635L291.638 167.796C291.638 167.796 291.417 171.512 290.564 172.911Z" fill="#FFD4D6"/>
<path fill-rule="evenodd" clip-rule="evenodd" d="M282.29 167.623C280.775 167.912 280.116 170.409 280.116 170.409L278.876 169.883C278.876 169.883 276.972 169.152 276.673 170.585C276.378 172.015 274.326 172.907 274.326 172.907C274.326 172.907 273.974 164.747 277.068 162.454C280.161 160.161 285.207 164.036 285.207 164.036C285.207 164.036 283.804 167.335 282.29 167.623Z" fill="#703518"/>
<path fill-rule="evenodd" clip-rule="evenodd" d="M269.032 164.527C269.032 164.527 267.768 162.523 270.438 163.106C273.106 163.689 275.285 164.22 275.285 164.22C275.285 164.22 277.775 158.394 281.146 157.904C284.515 157.413 293.314 157.994 291.721 170.399L269.032 164.527Z" fill="#7F3C8F"/>
<path fill-rule="evenodd" clip-rule="evenodd" d="M282.589 188.685C283.527 194.658 284.136 207.916 284.589 211.163C285.043 214.41 287.179 225.158 287.179 225.158C287.179 225.158 269.043 227.182 263.441 228.385C261.561 220.436 259.592 203.435 260.572 196.37C261.553 189.301 262.821 186.576 264.364 185.015C263.31 179.68 265.25 169.845 268.418 167.309C270.615 168.942 278.005 180.634 278.005 180.634C278.005 180.634 281.651 182.713 282.589 188.685Z" fill="#C075D2"/>
<path fill-rule="evenodd" clip-rule="evenodd" d="M277.282 166.613C275.423 167.027 276.839 173.089 278.082 172.347C279.324 171.604 279.53 168.628 279.53 168.628C279.53 168.628 279.139 166.2 277.282 166.613Z" fill="#FFD4D6"/>
<path fill-rule="evenodd" clip-rule="evenodd" d="M268.867 184.278C264.727 185.099 256.503 200.307 255.357 203.792C254.213 207.278 266.967 216.079 269.499 217.557C272.187 218.588 273.923 214.906 273.211 213.308C272.5 211.712 263.213 204.521 263.329 203.695C263.446 202.87 270.482 195.348 271.772 189.546C271.772 189.546 273.008 183.455 268.867 184.278Z" fill="#864596"/>
<path fill-rule="evenodd" clip-rule="evenodd" d="M305.331 187.001L295.693 195.198L296.092 195.628L298.157 197.035L305.729 187.432L305.331 187.001Z" fill="#E0E0E0"/>
<path fill-rule="evenodd" clip-rule="evenodd" d="M302.811 185.998L295.692 195.197L297.757 196.602L305.33 187.001L302.811 185.998Z" fill="#FCFCFC"/>
<path fill-rule="evenodd" clip-rule="evenodd" d="M299.342 191.191C300.007 191.203 299.52 192.053 298.758 192.403C297.996 192.756 297.018 193.484 296.819 193.741C296.619 193.999 297.299 192.323 297.299 192.323C297.299 192.323 298.677 191.178 299.342 191.191Z" fill="#FAB490"/>
<path fill-rule="evenodd" clip-rule="evenodd" d="M62.1597 225.077C66.9933 221.04 65.491 215.53 65.491 215.53L43.5421 214.711L49.9467 227.13C49.9467 227.13 54.6276 228.179 62.1597 225.077Z" fill="#5B4199"/>
<path fill-rule="evenodd" clip-rule="evenodd" d="M60.4863 286.142C60.4657 284.101 60.5466 281.294 60.5466 281.294C60.5466 281.294 56.9978 280.396 57.0222 281.94C57.0359 282.819 56.8512 284.538 56.6283 286.022L60.4863 286.142Z" fill="#FFD4D6"/>
<path fill-rule="evenodd" clip-rule="evenodd" d="M55.9737 271.571C55.2027 265.675 53.4813 249.043 57.6752 246.864C61.8698 244.684 63.3775 252.042 63.1065 256.851C62.8347 261.658 61.3271 281.758 61.3271 281.758C61.3271 281.758 59.8721 282.985 56.5187 282.189C56.5187 282.189 56.7454 277.467 55.9737 271.571Z" fill="#5B4199"/>
<path fill-rule="evenodd" clip-rule="evenodd" d="M63.0582 251.426C59.3849 255.3 55.4406 251.825 55.4406 251.825C55.4406 251.825 54.6719 231.185 54.1933 227.899C53.7162 224.611 63.9345 214.751 65.9773 214.773C65.9773 214.773 65.8032 248.529 63.0582 251.426Z" fill="#5B4199"/>
<path fill-rule="evenodd" clip-rule="evenodd" d="M58.6228 283.987C55.922 283.649 55.019 286.099 55.1541 287.884C55.2892 289.668 58.435 288.811 59.832 288.919C61.2289 289.026 62.2594 288.456 61.3747 286.38C61.3747 286.38 61.3869 284.327 58.6228 283.987Z" fill="#333333"/>
<path fill-rule="evenodd" clip-rule="evenodd" d="M44.2631 285.639C44.4104 283.603 44.5043 280.796 44.5043 280.796C44.5043 280.796 48.102 280.12 47.9814 281.659C47.9142 282.536 47.9913 284.263 48.1211 285.759L44.2631 285.639Z" fill="#FFD4D6"/>
<path fill-rule="evenodd" clip-rule="evenodd" d="M49.6722 271.375C50.8073 265.538 53.5592 249.047 49.5089 246.61C45.4585 244.174 43.4959 251.426 43.4676 256.241C43.4402 261.056 43.6966 281.211 43.6966 281.211C43.6966 281.211 45.073 282.526 48.4692 281.939C48.4692 281.939 48.5363 277.211 49.6722 271.375Z" fill="#5B4199"/>
<path fill-rule="evenodd" clip-rule="evenodd" d="M43.8533 250.83C47.2777 254.925 51.4311 251.7 51.4311 251.7C51.4311 251.7 53.4808 231.148 54.1624 227.898C54.8426 224.646 45.2571 214.171 43.2166 214.067C43.2166 214.067 41.293 247.768 43.8533 250.83Z" fill="#5B4199"/>
<path fill-rule="evenodd" clip-rule="evenodd" d="M46.2574 283.604C48.9734 283.434 49.7231 285.935 49.4773 287.708C49.2307 289.481 46.1452 288.431 44.7444 288.451C43.3437 288.472 42.3498 287.839 43.362 285.822C43.362 285.822 43.4773 283.772 46.2574 283.604Z" fill="#333333"/>
<path fill-rule="evenodd" clip-rule="evenodd" d="M48.1992 187.432C45.8275 188.241 44.9275 189.095 44.3305 189.371C44.4954 190.001 45.5084 195.289 45.0923 197.628C44.6763 199.965 40.4359 226.241 40.4359 226.241L68.9885 231.958L67.1656 199.095C67.1656 199.095 67.6778 192.101 68.9885 190.136C68.0885 188.325 61.1901 187.115 60.0778 186.954C58.9656 186.792 53.642 186.754 53.642 186.754C53.642 186.754 50.2954 186.715 48.1992 187.432Z" fill="#F68B50"/>
<path fill-rule="evenodd" clip-rule="evenodd" d="M51.0983 191.7L52.5112 191.95L51.4525 192.919L51.6517 194.337L50.4028 193.63L49.1128 194.258L49.399 192.855L48.4028 191.823L49.8288 191.66L50.5036 190.396L51.0983 191.7Z" fill="#FFF3B8"/>
<path fill-rule="evenodd" clip-rule="evenodd" d="M60.3869 194.74L61.0678 195.288L60.2166 195.494L59.9044 196.309L59.4472 195.565L58.5731 195.521L59.1395 194.856L58.9121 194.012L59.7212 194.346L60.454 193.869L60.3869 194.74Z" fill="#FFF3B8"/>
<path fill-rule="evenodd" clip-rule="evenodd" d="M54.8502 202.057L55.7204 201.965L55.2647 202.711L55.6212 203.507L54.7708 203.304L54.1212 203.889L54.051 203.02L53.293 202.584L54.1014 202.248L54.2823 201.394L54.8502 202.057Z" fill="#FFF3B8"/>
<path fill-rule="evenodd" clip-rule="evenodd" d="M49.6199 198.074L50.2824 198.002L49.9351 198.571L50.2069 199.178L49.5588 199.023L49.0649 199.469L49.0115 198.806L48.4351 198.474L49.0496 198.218L49.187 197.567L49.6199 198.074Z" fill="#FFF3B8"/>
<path fill-rule="evenodd" clip-rule="evenodd" d="M64.3445 205.915L65.0888 206.894L63.8575 206.889L63.1521 207.898L62.7788 206.725L61.6002 206.369L62.5995 205.651L62.5766 204.421L63.5697 205.15L64.733 204.746L64.3445 205.915Z" fill="#FFF3B8"/>
<path fill-rule="evenodd" clip-rule="evenodd" d="M64.4781 190.782L64.904 191.344L64.1987 191.34L63.7949 191.918L63.5811 191.246L62.9063 191.043L63.4781 190.632L63.4659 189.928L64.0338 190.345L64.7002 190.114L64.4781 190.782Z" fill="#FFF3B8"/>
<path fill-rule="evenodd" clip-rule="evenodd" d="M49.7561 204.833L50.4088 205.691L49.3278 205.686L48.711 206.571L48.3836 205.542L47.35 205.23L48.2263 204.6L48.2057 203.522L49.0759 204.162L50.0958 203.808L49.7561 204.833Z" fill="#FFF3B8"/>
<path fill-rule="evenodd" clip-rule="evenodd" d="M62.6661 199.637L63.3188 200.496L62.2379 200.49L61.6211 201.375L61.2936 200.346L60.26 200.034L61.1363 199.405L61.1157 198.326L61.986 198.967L63.0058 198.611L62.6661 199.637Z" fill="#FFF3B8"/>
<path fill-rule="evenodd" clip-rule="evenodd" d="M63.7649 214.624L63.2641 215.967L62.5008 214.752L61.0679 214.693L61.9885 213.593L61.6015 212.212L62.9328 212.746L64.1275 211.953L64.0313 213.383L65.1565 214.273L63.7649 214.624Z" fill="#FFF3B8"/>
<path fill-rule="evenodd" clip-rule="evenodd" d="M59.1014 223.202L58.438 223.772L58.3884 222.9L57.6411 222.447L58.4571 222.13L58.6571 221.28L59.2105 221.956L60.0823 221.884L59.609 222.619L59.9464 223.425L59.1014 223.202Z" fill="#FFF3B8"/>
<path fill-rule="evenodd" clip-rule="evenodd" d="M52.8885 216.449L52.8228 217.32L52.1694 216.738L51.3205 216.946L51.674 216.147L51.2129 215.403L52.0831 215.49L52.6495 214.824L52.8335 215.678L53.6434 216.01L52.8885 216.449Z" fill="#FFF3B8"/>
<path fill-rule="evenodd" clip-rule="evenodd" d="M57.7516 212.026L57.7035 212.69L57.205 212.247L56.5585 212.404L56.8272 211.796L56.4775 211.23L57.1394 211.296L57.5707 210.789L57.7111 211.44L58.3287 211.692L57.7516 212.026Z" fill="#FFF3B8"/>
<path fill-rule="evenodd" clip-rule="evenodd" d="M47.3815 225.082L46.2838 225.637L46.5098 224.428L45.6434 223.555L46.8655 223.398L47.4289 222.304L47.9556 223.415L49.1716 223.613L48.2739 224.457L48.464 225.673L47.3815 225.082Z" fill="#FFF3B8"/>
<path fill-rule="evenodd" clip-rule="evenodd" d="M62.263 227.933L61.6332 228.25L61.763 227.558L61.2668 227.057L61.9675 226.968L62.2889 226.342L62.5912 226.978L63.2866 227.091L62.7729 227.575L62.8821 228.271L62.263 227.933Z" fill="#FFF3B8"/>
<path fill-rule="evenodd" clip-rule="evenodd" d="M51.0702 210.945L50.1068 211.432L50.3061 210.371L49.5458 209.605L50.6175 209.469L51.1107 208.511L51.5733 209.483L52.6389 209.658L51.8526 210.398L52.0183 211.463L51.0702 210.945Z" fill="#FFF3B8"/>
<path fill-rule="evenodd" clip-rule="evenodd" d="M53.8679 224.562L52.9046 225.048L53.1046 223.988L52.3435 223.222L53.416 223.086L53.9092 222.127L54.371 223.1L55.4366 223.274L54.6504 224.015L54.8168 225.08L53.8679 224.562Z" fill="#FFF3B8"/>
<path fill-rule="evenodd" clip-rule="evenodd" d="M50.374 171.295C48.3778 176.339 44.8694 184.299 48.3366 186.366C51.803 188.431 57.8915 188.18 60.9335 188.176C63.9732 188.173 65.9129 187.303 66.1839 184.91C66.4534 182.519 65.7557 175.004 64.7083 172.424C63.6602 169.846 61.4923 166.227 55.0747 167.387C55.0747 167.387 52.3702 166.25 50.374 171.295Z" fill="#703518"/>
<path fill-rule="evenodd" clip-rule="evenodd" d="M64.6624 177.867C65.5319 178.302 62.9449 183.037 62.6044 181.146C62.7006 179.415 63.1273 178.719 63.1273 178.719C63.1273 178.719 63.793 177.432 64.6624 177.867Z" fill="#FFD4D6"/>
<path fill-rule="evenodd" clip-rule="evenodd" d="M50.0007 177.412C49.1068 177.793 51.3953 182.678 51.8511 180.812C51.8617 179.079 51.4808 178.357 51.4808 178.357C51.4808 178.357 50.8946 177.032 50.0007 177.412Z" fill="#FFD4D6"/>
<path fill-rule="evenodd" clip-rule="evenodd" d="M52.9072 182.907C54.3721 184.773 55.9011 185.962 57.3958 186.009C58.8896 186.055 60.7522 184.522 61.8324 182.915C62.9118 181.307 63.3156 177.793 63.3339 176.448C63.35 175.1 61.8614 169.017 56.1759 169.258C51.6568 169.448 51.5606 176.498 51.5606 176.498C51.5606 176.498 51.1133 180.622 52.9072 182.907Z" fill="#FFD4D6"/>
<path fill-rule="evenodd" clip-rule="evenodd" d="M63.2754 178.33C63.4433 178.098 64.0601 178.318 64.0311 175.71C64.0013 173.1 60.6914 168.368 56.2044 168.34C51.7173 168.312 50.6059 175.052 51.228 177.933C52.3616 177.185 54.4769 172.609 54.6051 171.645C54.6051 171.645 58.9235 176.383 63.2754 178.33Z" fill="#703518"/>
<path fill-rule="evenodd" clip-rule="evenodd" d="M65.6462 176.477C65.7027 170.272 64.1203 166.218 57.502 165.823C50.8829 165.426 48.6088 171.341 48.7546 175.408C48.7546 175.408 57.5241 171.85 65.6462 176.477Z" fill="#5B4199"/>
<path fill-rule="evenodd" clip-rule="evenodd" d="M48.7703 174.18C49.9092 173.166 59.2909 171.166 65.6298 175.13C66.5153 176.399 65.8329 177.817 65.8329 177.817C65.8329 177.817 62.7848 175.341 57.2184 174.966C52.1833 174.627 49.6062 175.77 48.3581 176.499C48.3581 176.499 47.6314 175.193 48.7703 174.18Z" fill="white"/>
<path fill-rule="evenodd" clip-rule="evenodd" d="M52.803 187.81C54.6259 189.486 55.6465 189.813 57.1931 189.75C58.7411 189.688 60.7015 188.177 60.7015 188.177C60.7015 188.177 59.4587 186.661 59.8999 184.288C58.5595 183.695 54.5366 184.121 54.5366 184.121C54.5366 184.121 54.4358 186.203 52.803 187.81Z" fill="#FFD4D6"/>
<path fill-rule="evenodd" clip-rule="evenodd" d="M82.8031 158.153C82.8863 157.28 82.2405 156.245 82.6382 154.366C83.0359 152.487 83.7413 151.632 84.1794 152.107C84.6168 152.581 84.1451 153.213 84.113 154.227C85.5527 151.596 86.1092 150.045 87.3726 149.438C87.8352 149.13 90.2649 150.127 88.7367 153.794C87.2092 157.46 85.4237 159.399 85.1252 160.774C83.7543 161.216 82.455 160.265 82.455 160.265C82.455 160.265 82.7199 159.028 82.8031 158.153Z" fill="#FFD4D6"/>
<path fill-rule="evenodd" clip-rule="evenodd" d="M73.4508 178.17C76.6264 172.099 81.4233 159.088 81.4233 159.088L86.4867 160.122C86.4867 160.122 82.008 174.206 79.9134 179.4C77.8187 184.594 69.2164 193.887 67.4019 196.64C65.5874 199.392 63.9317 187.744 63.9317 187.744C63.9317 187.744 70.2752 184.242 73.4508 178.17Z" fill="#F68B50"/>
<path fill-rule="evenodd" clip-rule="evenodd" d="M32.5051 156.594C32.4761 155.718 33.1853 154.723 32.9051 152.824C32.625 150.924 31.9746 150.027 31.5074 150.474C31.041 150.921 31.4731 151.58 31.441 152.594C30.1685 149.879 29.7089 148.296 28.4853 147.612C28.0433 147.276 25.5555 148.122 26.8532 151.875C28.1517 155.628 29.812 157.675 30.025 159.066C31.3662 159.592 32.7219 158.724 32.7219 158.724C32.7219 158.724 32.5341 157.471 32.5051 156.594Z" fill="#FFD4D6"/>
<path fill-rule="evenodd" clip-rule="evenodd" d="M40.5956 177.151C37.8032 170.895 33.8246 157.612 33.8246 157.612L28.7062 158.33C28.7062 158.33 32.3017 172.665 34.0696 177.978C35.8368 183.292 43.8459 193.1 45.4849 195.96C47.1253 198.82 49.5017 187.297 49.5017 187.297C49.5017 187.297 43.3879 183.409 40.5956 177.151Z" fill="#F68B50"/>
<path fill-rule="evenodd" clip-rule="evenodd" d="M247.097 147.788C248.398 147.604 250.906 150.765 250.889 151.097C250.873 151.43 248.137 152.001 248.137 152.001C248.137 152.001 246.773 150.934 246.063 150.982C245.352 151.03 245.288 152.317 243.98 151.794C242.674 151.271 241.005 152.146 241.005 152.146L240.72 149.51C240.72 149.51 245.796 147.973 247.097 147.788Z" fill="#FFD4D6"/>
<path fill-rule="evenodd" clip-rule="evenodd" d="M248.249 163.215C247.366 162.86 239.358 166.614 239.358 166.614L245.499 168.942L253.352 166.55C253.352 166.55 249.132 163.573 248.249 163.215Z" fill="#444444"/>
<path fill-rule="evenodd" clip-rule="evenodd" d="M246.217 165.233C242.185 166.678 244.903 169.897 247.312 170.998C250.681 172.537 257.646 174.197 259.226 173.443C261.752 172.236 261.92 170.289 260.009 169.288C260.009 169.288 250.252 163.786 246.217 165.233Z" fill="#3C3D3F"/>
<path fill-rule="evenodd" clip-rule="evenodd" d="M259.697 150.088C265.182 150.36 263.664 156.581 261.398 159.011C259.131 161.444 241.238 168.187 233.697 171.429C226.156 174.67 208.265 175.79 213.225 162.377C219.642 154.66 224.407 159.173 224.407 159.173C224.407 159.173 254.213 149.816 259.697 150.088Z" fill="#6D6D6D"/>
<path fill-rule="evenodd" clip-rule="evenodd" d="M230.367 123.79C230.025 126.584 234.728 129.831 234.728 129.831C234.728 129.831 237.136 126.206 238.329 124.563C239.76 122.594 238.015 114.259 233.376 118.581C233.376 118.581 231.325 122.028 230.367 123.79Z" fill="#FFD4D6"/>
<path fill-rule="evenodd" clip-rule="evenodd" d="M237.147 134.372C236.975 139.629 235.333 151.065 235.192 153.916C235.049 156.766 235.505 155.822 235.505 155.822C235.505 155.822 218.208 162.259 213.224 162.377C207.958 158.634 212.281 147.242 214.271 141.36C216.263 135.477 220.591 129.354 222.165 128.269C222.131 123.536 225.395 115.444 228.517 113.791C230.129 115.544 234.541 126.742 234.541 126.742C234.541 126.742 237.32 129.113 237.147 134.372Z" fill="#6CBA39"/>
<path fill-rule="evenodd" clip-rule="evenodd" d="M227.8 135.679C227.224 133.331 223.776 130.549 221.401 133.869C219.026 137.189 218.787 152.137 219.593 155.21C220.397 158.284 223.908 158.265 230.075 156.992C236.246 155.718 240.805 154.066 242.055 152.49C241.963 150.151 241.262 148.693 241.262 148.693C241.262 148.693 229.562 149.729 226.137 151.27C225.653 150.205 225.817 149.261 225.817 149.261C225.817 149.261 228.374 138.024 227.8 135.679Z" fill="#A2D680"/>
<path fill-rule="evenodd" clip-rule="evenodd" d="M269.881 130.408L257.938 148.148C257.756 148.414 257.797 148.751 258.02 148.901L258.232 149.044C258.456 149.195 258.785 149.102 258.964 148.837L270.908 131.099C271.088 130.832 271.048 130.495 270.824 130.343L270.613 130.201C270.388 130.05 270.061 130.143 269.881 130.408Z" fill="#EAEAEA"/>
<path fill-rule="evenodd" clip-rule="evenodd" d="M258.574 148.903L236.659 154.463C236.33 154.546 236.119 154.828 236.184 155.088L236.248 155.337C236.316 155.598 236.635 155.744 236.962 155.661L258.879 150.1C259.208 150.017 259.419 149.735 259.353 149.474L259.29 149.225C259.223 148.964 258.903 148.819 258.574 148.903Z" fill="#EAEAEA"/>
<path fill-rule="evenodd" clip-rule="evenodd" d="M243.325 116.746C244.295 117.193 241.615 122.479 241.177 120.414C241.224 118.511 241.668 117.733 241.668 117.733C241.668 117.733 242.354 116.298 243.325 116.746Z" fill="#FFD4D6"/>
<path fill-rule="evenodd" clip-rule="evenodd" d="M227.214 116.746C226.245 117.193 228.922 122.479 229.362 120.414C229.313 118.511 228.87 117.733 228.87 117.733C228.87 117.733 228.185 116.298 227.214 116.746Z" fill="#FFD4D6"/>
<path fill-rule="evenodd" clip-rule="evenodd" d="M230.592 122.678C232.263 124.677 233.982 125.931 235.625 125.931C237.267 125.931 239.26 124.183 240.391 122.382C241.521 120.582 241.844 116.71 241.816 115.231C241.791 113.753 239.949 107.125 233.714 107.582C228.761 107.946 228.895 115.688 228.895 115.688C228.895 115.688 228.545 120.232 230.592 122.678Z" fill="#FFD4D6"/>
<path fill-rule="evenodd" clip-rule="evenodd" d="M236.421 112.882C236.128 112.235 235.347 110.999 235.347 110.999C235.347 110.999 237.13 112.882 239.074 113.472C238.957 113.177 238.486 112.646 238.309 111.971C239.487 113.118 240.298 113.318 240.902 113.472C241.505 113.626 241.089 114.734 241.431 115.65C241.776 116.565 241.247 118.386 241.178 118.915C242.256 117.209 242.497 116.872 243.201 116.702C243.908 116.533 247.137 108.305 239.77 105.128C233.751 102.531 231.706 105.029 230.646 106.129C227.004 105.598 226.471 112.768 227.466 116.659C228.87 117.732 228.853 117.865 229.221 118.915C229.35 117.1 229.292 116.237 229.362 115.375C229.429 114.512 231.195 112.588 230.646 110.47C230.646 110.47 231.827 111.53 236.421 112.882Z" fill="#282828"/>
<path fill-rule="evenodd" clip-rule="evenodd" d="M185.522 287.514C182.318 288.331 174.089 289.5 173.432 292.16C172.775 294.819 174.01 296.473 177.657 295.907C181.305 295.339 188.044 291.947 189.547 292.444C190.73 291.088 190.851 288.851 190.851 288.851C190.851 288.851 188.728 286.697 185.522 287.514Z" fill="#333333"/>
<path fill-rule="evenodd" clip-rule="evenodd" d="M222.549 279.826C229.381 283.076 222.607 290.113 211.079 291.673C200.107 293.159 189.932 292.836 189.932 292.836V286.842C189.932 286.842 205.603 284.401 210.56 285.171C206.995 285.999 191.672 287.144 191.672 287.144L191.912 274.79L204.947 273.142C204.947 273.142 213.238 275.395 222.549 279.826Z" fill="#064560"/>
<path fill-rule="evenodd" clip-rule="evenodd" d="M201.306 287.125C204.607 288.031 213.1 289.397 213.733 292.161C214.367 294.924 213.059 296.615 209.295 295.959C205.529 295.303 198.617 291.665 197.052 292.152C195.855 290.725 195.767 288.409 195.767 288.409C195.767 288.409 198.005 286.221 201.306 287.125Z" fill="#333333"/>
<path fill-rule="evenodd" clip-rule="evenodd" d="M163.967 280.789C159.95 284.847 164.328 288.271 175.76 290.858C189.631 293.995 198.106 292.836 198.106 292.836V286.842C198.106 286.842 182.436 284.401 177.477 285.171C181.044 285.999 196.366 287.144 196.366 287.144L196.127 274.79L183.091 273.142C183.091 273.142 169.338 275.365 163.967 280.789Z" fill="#064560"/>
<path fill-rule="evenodd" clip-rule="evenodd" d="M206.651 245.569C205.717 246.852 207.923 256.017 207.443 259.099C206.963 262.181 206.994 270.847 208.657 274.015C208.574 278.982 196.52 279.819 191.182 277.25C185.841 274.681 182.346 270.401 182.346 266.29C182.346 262.181 181.835 259.549 182.167 253.042C182.057 250.09 181.936 246.597 181.853 245.569C184.382 243.616 193.064 242.587 194.699 242.991C194.699 242.991 205.344 243.558 206.651 245.569Z" fill="#F59E6E"/>
<path fill-rule="evenodd" clip-rule="evenodd" d="M216.75 261.339C220.702 268.227 206.381 279.826 206.381 279.826L206.651 270.231C206.651 270.231 210.731 265.832 210.949 264.861C211.167 263.889 207.254 261.019 206.381 258.327C205.509 255.638 205.635 247.214 206.651 245.569C206.651 245.569 214.351 256.031 216.75 261.339Z" fill="#F59E6E"/>
<path fill-rule="evenodd" clip-rule="evenodd" d="M170.576 263.594C168.252 268.899 181.853 277.429 181.853 277.429L182.563 271.563C182.563 271.563 177.711 265.799 177.495 264.827C177.276 263.855 181.689 259.769 182.563 257.078C183.434 254.387 182.869 247.214 181.853 245.569C181.853 245.569 172.974 258.287 170.576 263.594Z" fill="#F59E6E"/>
<path fill-rule="evenodd" clip-rule="evenodd" d="M206.633 284.847H180.696C180.098 284.847 179.541 284.312 179.453 283.657C178.643 277.646 177.833 271.639 177.024 265.629C176.934 264.971 177.443 264.439 178.156 264.439H209.171C209.885 264.439 210.393 264.971 210.305 265.629C209.496 271.639 208.685 277.646 207.876 283.657C207.788 284.312 207.229 284.847 206.633 284.847Z" fill="#FCFCFC"/>
<path fill-rule="evenodd" clip-rule="evenodd" d="M180.012 284.847H207.27C207.677 284.847 208.009 285.078 208.009 285.363V285.628C208.009 285.912 207.677 286.143 207.27 286.143H180.012C179.604 286.143 179.273 285.912 179.273 285.628V285.363C179.273 285.078 179.604 284.847 180.012 284.847Z" fill="#EAEAEA"/>
<path fill-rule="evenodd" clip-rule="evenodd" d="M199.362 243.419C201.553 248.929 190.86 243.634 190.86 243.634C190.86 243.634 191.82 241.18 189.702 238.774C188.69 237.626 198.815 234.663 198.815 234.663C198.815 234.663 197.61 239.012 199.362 243.419Z" fill="#FFD4D6"/>
<path fill-rule="evenodd" clip-rule="evenodd" d="M186.948 226.434C186.517 228.092 184.932 228.38 184.104 228.99C183.276 229.603 184.28 230.351 185.363 230.79C185.297 231.237 185.192 231.73 185.088 232.25C186.631 232.931 187.75 232.939 187.75 233.696C187.182 234.96 187.279 234.797 184.808 234.781C184.966 235.838 185.439 237.909 186.518 238.722C189.378 240.877 196.247 239.169 197.331 235.335C198.989 232.666 199.841 226.225 199.841 226.225L189.966 221.912C189.966 221.912 187.379 224.772 186.948 226.434Z" fill="#FFD4D6"/>
<path fill-rule="evenodd" clip-rule="evenodd" d="M196.562 226.329C196.365 227.266 196.294 228.273 196.671 228.87C197.523 230.228 196.145 232.537 196.145 232.537L197.406 233.097C197.406 233.097 199.284 234.008 198.438 235.273C197.591 236.534 198.377 238.734 198.377 238.734C198.377 238.734 204.644 233.088 204.157 229.081C203.673 225.077 197.264 224.061 197.264 224.061C197.264 224.061 196.813 225.14 196.562 226.329Z" fill="#703518"/>
<path fill-rule="evenodd" clip-rule="evenodd" d="M185.805 223.484C188.202 219.665 191.315 217.198 197.405 218.531C203.496 219.865 205.121 224.04 203.629 227.552C200.775 229.53 197.405 226.597 197.405 226.597C197.405 226.597 189.952 221.837 185.805 223.484Z" fill="#703518"/>
<path fill-rule="evenodd" clip-rule="evenodd" d="M200.939 231.933C201.941 233.642 196.474 236.963 196.147 235.484C195.82 234.002 197.871 231.69 197.871 231.69C197.871 231.69 199.936 230.227 200.939 231.933Z" fill="#FFD4D6"/>
<path fill-rule="evenodd" clip-rule="evenodd" d="M184.805 76.6413C182.107 77.6568 181.102 78.6714 180.426 79.0099C180.638 79.7281 181.992 85.7727 181.597 88.4775C181.202 91.1808 181.315 106.467 181.315 106.467L205.428 107.627L207.033 89.3778C207.033 89.3778 207.373 81.3153 208.809 79.0099C207.71 76.9592 199.734 75.8134 198.448 75.6686C197.163 75.5222 191.04 75.6686 191.04 75.6686C191.04 75.6686 187.19 75.744 184.805 76.6413Z" fill="#F76B8D"/>
<path fill-rule="evenodd" clip-rule="evenodd" d="M202.206 119.436C207.62 114.62 205.696 108.337 205.696 108.337L180.426 108.179L179.308 119.287C179.308 119.287 187.656 115.888 202.206 119.436Z" fill="#A52959"/>
<path fill-rule="evenodd" clip-rule="evenodd" d="M186.73 58.0064C184.614 63.878 180.864 73.1565 184.925 75.41C188.986 77.6619 195.979 77.1557 199.476 77.0429C202.972 76.9301 205.172 75.8613 205.397 73.1001C205.622 70.3404 204.55 61.7236 203.253 58.7939C201.957 55.8665 199.334 51.7818 191.995 53.3454C191.995 53.3454 188.844 52.134 186.73 58.0064Z" fill="#703518"/>
<path fill-rule="evenodd" clip-rule="evenodd" d="M190.058 71.2699C191.808 73.3648 193.609 74.6775 195.33 74.6775C197.05 74.6775 199.137 72.8479 200.321 70.9611C201.505 69.0728 201.846 65.0179 201.817 63.4695C201.787 61.9197 199.859 54.9778 193.328 55.4573C188.138 55.8362 188.28 63.9483 188.28 63.9483C188.28 63.9483 187.914 68.7068 190.058 71.2699Z" fill="#FFD4D6"/>
<path fill-rule="evenodd" clip-rule="evenodd" d="M190.114 76.9124C192.27 78.7756 193.455 79.1133 195.231 78.9868C197.009 78.8595 199.21 77.0519 199.21 77.0519C199.21 77.0519 197.727 75.3534 198.149 72.6082C196.586 71.9747 191.975 72.6082 191.975 72.6082C191.975 72.6082 191.933 75.0066 190.114 76.9124Z" fill="#FFD4D6"/>
<path fill-rule="evenodd" clip-rule="evenodd" d="M215.606 95.3484C216.396 98.5029 204.213 105.656 204.213 105.656L204.664 101.093C204.664 101.093 210.132 95.9483 210.358 95.1608C210.584 94.3718 207.139 87.6677 207.139 87.6677C207.139 87.6677 207.541 80.6397 208.81 79.0098C208.81 79.0098 214.252 89.8854 215.606 95.3484Z" fill="#F76B8D"/>
<path fill-rule="evenodd" clip-rule="evenodd" d="M172.356 95.3484C171.566 98.5029 185.022 105.656 185.022 105.656L184.572 101.093C184.572 101.093 177.391 95.9483 177.166 95.1608C176.94 94.3718 182.097 87.6677 182.097 87.6677C182.097 87.6677 181.695 80.6397 180.426 79.0098C180.426 79.0098 173.709 89.8854 172.356 95.3484Z" fill="#F76B8D"/>
<path fill-rule="evenodd" clip-rule="evenodd" d="M196.094 153.603C194.713 156.352 192.213 164.041 187.608 165.618C186.621 165.947 186.555 163.582 187.015 160.886C187.475 158.194 190.036 149.189 192.935 147.844C195.436 148.599 195.897 148.796 195.897 148.796C195.897 148.796 197.477 150.853 196.094 153.603Z" fill="#333333"/>
<path fill-rule="evenodd" clip-rule="evenodd" d="M196.225 150.698C195.966 152.197 194.725 155.398 191.984 154.468C189.243 153.538 190.484 150.698 191.157 149.821C191.83 148.941 193.882 144.604 194.382 142.899C194.882 141.195 198.475 143.39 198.475 143.39C198.475 143.39 196.485 149.201 196.225 150.698Z" fill="#FFD4D6"/>
<path fill-rule="evenodd" clip-rule="evenodd" d="M196.769 131.147C197.933 124.407 200.493 109.222 205.845 108.254C211.199 107.284 210.346 115.885 208.406 121.076C206.467 126.268 199.174 144.163 199.174 144.163C199.174 144.163 197.157 145.018 193.744 143.003C193.744 143.003 195.605 137.889 196.769 131.147Z" fill="#C33E6B"/>
<path fill-rule="evenodd" clip-rule="evenodd" d="M189.346 153.579C190.722 156.315 193.212 163.969 197.796 165.538C198.777 165.866 198.844 163.512 198.384 160.83C197.927 158.147 195.377 149.184 192.491 147.845C190.002 148.598 189.542 148.793 189.542 148.793C189.542 148.793 187.97 150.841 189.346 153.579Z" fill="#474747"/>
<path fill-rule="evenodd" clip-rule="evenodd" d="M189.216 150.698C189.475 152.197 190.716 155.398 193.458 154.468C196.199 153.538 194.959 150.698 194.286 149.821C193.614 148.941 191.561 144.604 191.062 142.899C190.562 141.195 186.967 143.39 186.967 143.39C186.967 143.39 188.958 149.201 189.216 150.698Z" fill="#FFD4D6"/>
<path fill-rule="evenodd" clip-rule="evenodd" d="M188.674 131.147C187.51 124.407 184.95 109.222 179.597 108.254C174.244 107.284 175.097 115.885 177.037 121.076C178.977 126.268 186.269 144.163 186.269 144.163C186.269 144.163 188.287 145.018 191.7 143.003C191.7 143.003 189.838 137.889 188.674 131.147Z" fill="#C33E6B"/>
<path fill-rule="evenodd" clip-rule="evenodd" d="M206.649 107.627H180.521C179.919 107.627 179.358 107.105 179.269 106.462C178.454 100.585 177.637 94.7087 176.822 88.8318C176.732 88.1876 177.244 87.6685 177.963 87.6685H209.207C209.926 87.6685 210.437 88.1876 210.348 88.8318C209.534 94.7087 208.716 100.585 207.902 106.462C207.813 107.105 207.25 107.627 206.649 107.627Z" fill="#FCFCFC"/>
<path fill-rule="evenodd" clip-rule="evenodd" d="M179.832 107.627H207.291C207.701 107.627 208.034 107.853 208.034 108.131V108.392C208.034 108.669 207.701 108.895 207.291 108.895H179.832C179.421 108.895 179.087 108.669 179.087 108.392V108.131C179.087 107.853 179.421 107.627 179.832 107.627Z" fill="#EAEAEA"/>
</g>
</svg>
