<svg width="307" height="335" viewBox="0 0 307 335" fill="none" xmlns="http://www.w3.org/2000/svg">
<rect y="0.0283203" width="307" height="334" rx="8" fill="white"/>
<g clip-path="url(#clip0_12_2)">
<path opacity="0.3" d="M242.644 270.988C242.644 266.537 203.95 262.929 156.219 262.929C108.488 262.929 69.7941 266.537 69.7941 270.988C69.7941 275.44 108.488 279.048 156.219 279.048C203.95 279.048 242.644 275.44 242.644 270.988Z" fill="#212121"/>
<path d="M214.882 213.605C214.882 213.605 226.998 192.147 245.256 185.971C252.913 183.374 259.598 178.494 264.169 171.825C266.333 168.655 268.201 165.293 269.752 161.783" stroke="#535461" stroke-width="0.60747"/>
<path d="M269.448 161.919C269.448 161.919 271.826 152.308 273.904 150.288C275.983 148.271 279.305 148.32 281.323 150.399C283.341 152.478 283.291 155.799 281.212 157.817C279.131 159.833 269.448 161.919 269.448 161.919Z" fill="#22CCAC"/>
<path d="M263.632 172.266C263.632 172.266 270.851 165.488 273.691 164.923C275.549 164.512 277.483 165.138 278.748 166.559C280.012 167.98 280.408 169.975 279.783 171.771C279.158 173.567 277.609 174.885 275.736 175.215V175.215C272.893 175.776 263.632 172.266 263.632 172.266Z" fill="#22CCAC"/>
<path d="M246.82 185.388C246.82 185.388 256.476 183.177 259.212 184.124C261.027 184.704 262.385 186.221 262.76 188.089C263.136 189.956 262.47 191.88 261.02 193.116C259.571 194.352 257.565 194.705 255.78 194.039V194.039C253.047 193.092 246.82 185.388 246.82 185.388Z" fill="#22CCAC"/>
<path d="M227.199 197.866C227.199 197.866 236.341 194.057 239.199 194.525C241.048 194.83 242.594 196.098 243.255 197.851C243.915 199.605 243.59 201.578 242.401 203.026C241.213 204.475 239.341 205.179 237.492 204.874V204.884C234.634 204.413 227.199 197.866 227.199 197.866Z" fill="#22CCAC"/>
<path d="M260.798 176.065C260.798 176.065 266.046 167.665 266.049 164.768C265.981 161.92 263.652 159.646 260.802 159.646C257.953 159.646 255.624 161.92 255.555 164.768V164.765C255.555 167.662 260.798 176.065 260.798 176.065Z" fill="#22CCAC"/>
<path d="M242.698 186.925C242.698 186.925 245.195 177.34 244.329 174.577C243.464 171.81 240.518 170.268 237.75 171.133C234.983 171.999 233.441 174.944 234.306 177.711H234.318C235.184 180.474 242.698 186.925 242.698 186.925Z" fill="#22CCAC"/>
<path d="M222.108 203.633C222.108 203.633 226.187 194.611 225.802 191.738C225.416 188.866 222.775 186.852 219.903 187.237C217.031 187.623 215.016 190.263 215.402 193.135V193.135C215.787 196.007 222.108 203.633 222.108 203.633Z" fill="#6C63FF"/>
<g clip-path="url(#clip1_12_2)">
<path d="M269.448 161.919C269.448 161.919 271.826 152.308 273.904 150.288C275.983 148.271 279.305 148.32 281.323 150.399C283.341 152.478 283.291 155.799 281.212 157.817C279.131 159.833 269.448 161.919 269.448 161.919Z" fill="#33907C"/>
<path d="M263.632 172.265C263.632 172.265 270.851 165.487 273.691 164.923C275.549 164.511 277.483 165.137 278.748 166.559C280.012 167.98 280.408 169.974 279.783 171.77C279.158 173.567 277.609 174.884 275.736 175.214V175.214C272.893 175.776 263.632 172.265 263.632 172.265Z" fill="#33907C"/>
<path d="M246.82 185.388C246.82 185.388 256.476 183.177 259.212 184.124C261.027 184.704 262.385 186.221 262.76 188.089C263.136 189.956 262.47 191.88 261.02 193.116C259.571 194.352 257.565 194.705 255.78 194.039V194.039C253.047 193.092 246.82 185.388 246.82 185.388Z" fill="#33907C"/>
<path d="M227.199 197.866C227.199 197.866 236.341 194.057 239.199 194.525C241.048 194.83 242.594 196.098 243.255 197.851C243.915 199.605 243.59 201.578 242.401 203.026C241.213 204.475 239.341 205.179 237.492 204.874V204.884C234.634 204.413 227.199 197.866 227.199 197.866Z" fill="#33907C"/>
<path d="M260.798 176.065C260.798 176.065 266.046 167.665 266.049 164.768C265.981 161.92 263.652 159.646 260.802 159.646C257.953 159.646 255.624 161.92 255.555 164.768V164.765C255.555 167.662 260.798 176.065 260.798 176.065Z" fill="#33907C"/>
<path d="M242.698 186.924C242.698 186.924 245.195 177.34 244.329 174.576C243.464 171.809 240.518 170.267 237.75 171.133C234.983 171.998 233.441 174.943 234.306 177.71H234.318C235.184 180.474 242.698 186.924 242.698 186.924Z" fill="#33907C"/>
</g>
<path opacity="0.25" d="M222.108 203.633C222.108 203.633 226.187 194.611 225.802 191.738C225.416 188.866 222.775 186.852 219.903 187.237C217.031 187.623 215.016 190.263 215.402 193.135V193.135C215.787 196.007 222.108 203.633 222.108 203.633Z" fill="black"/>
<path d="M215.581 213.177C215.581 213.177 217.959 188.652 232.131 175.61C238.111 170.175 242.167 162.949 243.691 155.014C244.384 151.241 244.73 147.413 244.724 143.578" stroke="#535461" stroke-width="0.60747"/>
<path d="M244.518 143.811C244.518 143.811 242.792 134.06 243.877 131.36C245.041 128.807 248.009 127.623 250.612 128.673C253.215 129.722 254.53 132.635 253.596 135.281L253.608 135.308C252.524 137.996 244.518 143.811 244.518 143.811Z" fill="#33907C"/>
<path d="M243.391 155.636C243.391 155.636 247.245 146.526 249.614 144.847C251.984 143.217 255.223 143.799 256.877 146.151C258.532 148.502 257.984 151.747 255.65 153.425V153.425C253.28 155.093 243.391 155.636 243.391 155.636Z" fill="#33907C"/>
<path opacity="0.7" d="M233.349 174.437C233.349 174.437 241.28 168.506 244.168 168.264C246.036 168.107 247.845 168.958 248.915 170.497C249.984 172.035 250.152 174.028 249.354 175.723C248.556 177.418 246.914 178.559 245.046 178.716C242.161 178.959 233.349 174.437 233.349 174.437Z" fill="#33907C"/>
<path d="M220.462 193.803C220.462 193.803 227.278 186.615 230.081 185.889C232.886 185.162 235.749 186.846 236.476 189.65C237.203 192.454 235.519 195.317 232.715 196.044C229.911 196.77 220.462 193.803 220.462 193.803Z" fill="#33907C"/>
<path d="M242.337 160.24C242.337 160.24 243.731 150.438 242.559 147.79C241.384 145.14 238.285 143.945 235.635 145.119C232.985 146.293 231.789 149.392 232.964 152.041V152.041C234.139 154.689 242.337 160.24 242.337 160.24Z" fill="#33907C"/>
<path d="M230.197 177.516C230.197 177.516 228.593 167.744 226.682 165.567C224.77 163.386 221.452 163.169 219.271 165.081C217.091 166.993 216.873 170.31 218.785 172.491H218.797C220.711 174.665 230.197 177.516 230.197 177.516Z" fill="#6C63FF"/>
<path d="M218.141 201.136C218.141 201.136 218.214 191.233 216.699 188.764C215.182 186.296 211.951 185.523 209.482 187.04C207.013 188.556 206.24 191.786 207.757 194.255V194.255C209.275 196.724 218.141 201.136 218.141 201.136Z" fill="#6C63FF"/>
<path d="M78.1134 66.2551V272.173H232.229V66.2551V57.9404H78.1134V57.9404V66.2551Z" fill="#030303"/>
<rect x="79.465" y="59.8203" width="151.412" height="8.16588" fill="#F6F7F9"/>
<g opacity="0.2" clip-path="url(#clip2_12_2)">
<rect x="79.465" y="59.8203" width="151.412" height="8.16588" fill="#199880"/>
</g>
<rect x="79.465" y="67.9858" width="151.412" height="202.307" fill="white"/>
<path d="M84.8321 63.9019C84.8321 63.1371 84.212 62.5171 83.447 62.5171C82.6821 62.5171 82.062 63.1371 82.062 63.9019C82.062 64.6666 82.6821 65.2866 83.447 65.2866C84.212 65.2866 84.8321 64.6666 84.8321 63.9019Z" fill="#F6F7F9"/>
<path d="M88.5862 63.9019C88.5862 63.1371 87.9661 62.5171 87.2012 62.5171C86.4363 62.5171 85.8162 63.1371 85.8162 63.9019C85.8162 64.6666 86.4363 65.2866 87.2012 65.2866C87.9661 65.2866 88.5862 64.6666 88.5862 63.9019Z" fill="#F6F7F9"/>
<path d="M92.3404 63.9019C92.3404 63.1371 91.7203 62.5171 90.9553 62.5171C90.1904 62.5171 89.5703 63.1371 89.5703 63.9019C89.5703 64.6666 90.1904 65.2866 90.9553 65.2866C91.7203 65.2866 92.3404 64.6666 92.3404 63.9019Z" fill="#F6F7F9"/>
<g opacity="0.2" clip-path="url(#clip3_12_2)">
<rect x="106.488" y="80.458" width="97.3623" height="3.81115" fill="#33907C"/>
</g>
<rect x="190.915" y="80.458" width="12.9361" height="3.81115" fill="#33907C"/>
<g opacity="0.2" clip-path="url(#clip4_12_2)">
<rect x="92.5348" y="158.342" width="61.2694" height="43.8783" fill="#33907C"/>
</g>
<g opacity="0.2" clip-path="url(#clip5_12_2)">
<rect x="92.5348" y="101.424" width="61.2694" height="43.8783" fill="#33907C"/>
</g>
<g opacity="0.2" clip-path="url(#clip6_12_2)">
<rect x="92.5348" y="214.52" width="61.2694" height="43.8783" fill="#33907C"/>
</g>
<g opacity="0.2" clip-path="url(#clip7_12_2)">
<rect x="156.538" y="158.342" width="61.2694" height="43.8783" fill="#33907C"/>
</g>
<g opacity="0.2" clip-path="url(#clip8_12_2)">
<rect x="156.538" y="101.424" width="61.2694" height="43.8783" fill="#33907C"/>
</g>
<g opacity="0.2" clip-path="url(#clip9_12_2)">
<rect x="156.538" y="214.52" width="61.2694" height="43.8783" fill="#33907C"/>
</g>
<g clip-path="url(#clip10_12_2)">
<path d="M282.32 268.961C279.152 273.236 276.549 276.856 277.596 279.516C277.596 279.516 282.374 271.572 286.265 271.463C290.156 271.354 287.598 266.628 283.319 261.852C283.319 261.852 285.487 264.685 282.32 268.961Z" fill="#33907C"/>
<path opacity="0.1" d="M283.762 262.738C287.559 267.196 289.579 271.357 285.931 271.463C282.535 271.56 278.456 277.634 277.481 279.167C277.513 279.286 277.552 279.402 277.596 279.516C277.596 279.516 282.374 271.572 286.265 271.463C290.156 271.354 287.598 266.628 283.319 261.852C283.508 262.125 283.657 262.423 283.762 262.738Z" fill="black"/>
<path d="M287.1 267.266C286.964 267.266 286.848 266.458 286.848 265.462C286.848 264.466 286.988 264.934 287.128 264.934C287.267 264.934 287.349 264.463 287.349 265.462C287.349 266.458 287.237 267.266 287.1 267.266Z" fill="#FFD037"/>
<path d="M287.027 267.297C286.964 267.175 287.617 266.689 288.491 266.212C289.366 265.736 289.023 266.085 289.099 266.212C289.175 266.34 289.606 266.185 288.731 266.653C287.857 267.13 287.091 267.418 287.027 267.297Z" fill="#33907C"/>
<path d="M272.873 268.961C276.041 273.236 278.644 276.856 277.596 279.516C277.596 279.516 272.819 271.572 268.928 271.463C265.037 271.354 267.588 266.628 271.874 261.852C271.874 261.852 269.705 264.685 272.873 268.961Z" fill="#33907C"/>
<path opacity="0.1" d="M271.431 262.738C267.634 267.196 265.614 271.357 269.262 271.463C272.661 271.56 276.737 277.634 277.712 279.167C277.681 279.286 277.643 279.403 277.596 279.516C277.596 279.516 272.819 271.572 268.928 271.463C265.037 271.354 267.588 266.628 271.874 261.852C271.685 262.125 271.535 262.423 271.431 262.738Z" fill="black"/>
<path d="M268.096 267.266C268.235 267.266 268.345 266.458 268.345 265.462C268.345 264.466 268.205 264.934 268.068 264.934C267.932 264.934 267.844 264.463 267.844 265.462C267.844 266.458 267.956 267.266 268.096 267.266Z" fill="#FFD037"/>
<path d="M268.168 267.297C268.235 267.175 267.576 266.689 266.701 266.212C265.827 265.736 266.17 266.085 266.094 266.212C266.018 266.34 265.587 266.185 266.461 266.653C267.339 267.13 268.102 267.418 268.168 267.297Z" fill="#FFD037"/>
<path opacity="0.3" d="M300.255 297.716C300.255 295.796 290.11 294.239 277.596 294.239C265.082 294.239 254.938 295.796 254.938 297.716C254.938 299.636 265.082 301.193 277.596 301.193C290.11 301.193 300.255 299.636 300.255 297.716Z" fill="#212121"/>
<path d="M289.151 276.583L288.999 277.834L288.935 278.353L288.783 279.604L288.716 280.127L288.564 281.375L286.83 295.587C286.675 296.856 284.604 297.843 282.101 297.843H273.092C270.589 297.843 268.536 296.856 268.366 295.587L266.629 281.369L266.477 280.121L266.413 279.598L266.258 278.347L266.194 277.828L266.042 276.577L265.933 275.693C265.848 274.992 266.981 274.384 268.384 274.384H286.812C288.224 274.384 289.348 274.992 289.26 275.699L289.151 276.583Z" fill="#65617D"/>
<path d="M288.999 277.831H266.194L266.042 276.583H289.151V276.583L288.999 277.831Z" fill="#9D9CB5"/>
<path d="M288.783 279.605H266.413L266.258 278.354H288.935V278.354L288.783 279.605Z" fill="#9D9CB5"/>
<path d="M288.564 281.375H266.629L266.477 280.124H288.716V280.124L288.564 281.375Z" fill="#9D9CB5"/>
</g>
<path d="M175.394 108.861C179.142 109.207 189.903 110.404 194.556 109.356C199.21 108.309 201.983 107.974 201.706 109.356C201.43 110.738 193.654 113.86 193.654 113.86L183.585 114.901L176.159 113.72L172.171 111.36L172.201 109.903C172.201 109.903 171.646 108.515 175.394 108.861Z" fill="#F5A623"/>
<path opacity="0.1" d="M193.663 113.86L183.595 114.901L176.168 113.723L172.183 111.364L172.211 109.906C172.131 109.66 172.217 109.39 172.423 109.235C172.766 108.931 173.568 108.694 175.403 108.864C179.154 109.21 189.912 110.404 194.565 109.356C198.356 108.503 200.901 108.123 201.551 108.749C201.715 108.905 201.778 109.139 201.715 109.356C201.436 110.738 193.663 113.86 193.663 113.86Z" fill="#F5A623"/>
<path d="M189.833 138.29C189.566 137.58 189.063 136.983 188.409 136.599C187.962 136.322 187.474 136.117 186.963 135.992C186.498 135.873 186.052 136.155 185.642 136.562C185.17 137.084 184.774 137.67 184.466 138.302C177.386 133.444 166.646 130.343 166.646 130.343V129.371C166.646 129.18 166.68 128.949 166.716 128.688C166.752 128.427 166.798 128.196 166.856 127.914C167.767 123.28 171.369 112.69 171.369 112.69H172.484H175.442L183.339 114.33L192.224 113.787L201.172 111.925L202.332 111.682C204.267 113.201 206.463 123.829 207.325 128.354C207.435 128.928 207.52 129.402 207.584 129.751C207.659 130.146 207.699 130.38 207.699 130.38C201.22 131.627 195.111 134.332 189.833 138.29Z" fill="#F5A623"/>
<path d="M172.484 112.681H171.369C171.369 112.681 167.554 123.917 166.78 128.302C166.778 128.313 166.778 128.325 166.78 128.336C166.758 128.454 166.737 128.57 166.722 128.679C166.686 128.94 166.661 129.171 166.652 129.362V130.334C166.652 130.334 177.392 133.437 184.472 138.293C184.78 137.661 185.176 137.075 185.648 136.553C182.941 134.093 172.678 130.085 168.116 128.372C168.35 123.923 171.886 114.282 172.484 112.681Z" fill="#6C63FF"/>
<path d="M207.486 129.207C207.441 128.952 207.386 128.664 207.325 128.342V128.342C206.463 123.811 204.267 113.179 202.332 111.67L201.172 111.913C201.876 113.805 206.417 126.158 206.031 128.57C198.438 130.088 190.741 135.023 188.415 136.599C189.069 136.983 189.572 137.58 189.839 138.29C195.117 134.332 201.226 131.626 207.705 130.379C207.705 130.379 207.659 130.146 207.584 129.739C207.556 129.584 207.523 129.405 207.486 129.207Z" fill="#6C63FF"/>
<path opacity="0.1" d="M172.763 112.405H171.646C171.646 112.405 167.831 123.641 167.056 128.023C167.056 128.023 167.056 128.047 167.056 128.056C167.034 128.178 167.016 128.293 167.001 128.403C166.965 128.664 166.941 128.894 166.932 129.086V130.058C166.932 130.058 177.669 133.158 184.752 138.017C185.057 137.384 185.452 136.798 185.924 136.277C183.218 133.823 172.958 129.805 168.396 128.093C168.626 123.644 172.165 114.002 172.763 112.405Z" fill="black"/>
<path d="M172.484 112.681H171.369C171.369 112.681 167.554 123.917 166.78 128.302C166.778 128.313 166.778 128.325 166.78 128.336C166.758 128.454 166.737 128.57 166.722 128.679C166.686 128.94 166.661 129.171 166.652 129.362V130.334C166.652 130.334 177.392 133.437 184.472 138.293C184.78 137.661 185.176 137.075 185.648 136.553C182.941 134.093 172.678 130.085 168.116 128.372C168.35 123.923 171.886 114.282 172.484 112.681Z" fill="#E69B1F"/>
<path opacity="0.1" d="M207.21 128.928C207.161 128.673 207.11 128.387 207.049 128.063V128.063C206.189 123.535 203.99 112.903 202.056 111.391L200.898 111.637C201.603 113.529 206.144 125.882 205.758 128.293C198.165 129.812 190.465 134.746 188.141 136.319C188.796 136.705 189.299 137.303 189.566 138.014C194.841 134.053 200.95 131.347 207.429 130.1C207.429 130.1 207.383 129.872 207.307 129.459L207.21 128.928Z" fill="black"/>
<path d="M207.486 129.207C207.441 128.952 207.386 128.664 207.325 128.342V128.342C206.463 123.811 204.267 113.179 202.332 111.67L201.172 111.913C201.876 113.805 206.417 126.158 206.031 128.57C198.438 130.088 190.741 135.023 188.415 136.599C189.069 136.983 189.572 137.58 189.839 138.29C195.117 134.332 201.226 131.626 207.705 130.379C207.705 130.379 207.659 130.146 207.584 129.739C207.556 129.584 207.523 129.405 207.486 129.207Z" fill="#E69B1F"/>
<path opacity="0.1" d="M179.449 116.113L181.016 116.532C181.016 116.532 181.532 123.726 170.288 119.62L170.756 118.172C170.756 118.172 177.802 122.605 179.449 116.113Z" fill="black"/>
<path d="M179.449 115.557L181.016 115.976C181.016 115.976 181.532 123.17 170.288 119.065L170.756 117.616C170.756 117.616 177.802 122.05 179.449 115.557Z" fill="#E69B1F"/>
<path opacity="0.1" d="M203.495 119.056L203.155 118.053C203.155 118.053 196.561 120.787 194.171 116.04L192.928 116.322C192.928 116.322 193.839 121.628 203.495 119.056Z" fill="black"/>
<path d="M203.495 118.5L203.155 117.498C203.155 117.498 196.561 120.231 194.171 115.484L192.928 115.767C192.928 115.767 193.839 121.072 203.495 118.5Z" fill="#E69B1F"/>
<path opacity="0.1" d="M186.501 127.325H188.214C188.214 127.325 190.583 126.471 190.529 121.494C190.474 116.517 190.113 115.178 190.113 115.178L186.501 116.253V127.325Z" fill="black"/>
<path d="M186.225 127.048H187.938C187.938 127.048 190.307 126.195 190.252 121.218C190.198 116.241 189.833 114.901 189.833 114.901L186.225 115.976V127.048Z" fill="#E69B1F"/>
<path opacity="0.1" d="M194.161 116.031L193.991 116.086C193.991 116.086 193.59 116.189 192.919 116.328C190.878 116.754 186.328 117.543 182.896 116.851C182.398 116.754 181.881 116.647 181.356 116.547L180.141 116.283C176.193 115.405 172.107 114.257 171.381 113.246C171.381 113.246 171.579 109.945 172.244 110.033C172.909 110.121 180.335 113.246 180.335 113.246L180.442 113.261C180.633 113.286 181.067 113.34 181.678 113.41C184.09 113.674 189.171 114.093 191.905 113.362C192.035 113.325 192.157 113.289 192.275 113.246C192.482 113.176 192.697 113.103 192.919 113.021C196.436 111.776 201.703 109.547 201.703 109.547C201.703 109.547 203.094 110.799 202.323 112.229C201.624 113.529 195.282 115.663 194.161 116.031Z" fill="black"/>
<path opacity="0.1" d="M193.663 113.859L183.595 114.901L176.168 113.723L172.183 111.363L172.211 109.906C172.131 109.659 172.217 109.39 172.423 109.234C173.744 109.635 180.32 112.402 180.32 112.402L180.427 112.417C180.618 112.441 181.052 112.496 181.663 112.566C184.074 112.83 189.156 113.249 191.89 112.517C192.02 112.481 192.142 112.444 192.26 112.402C192.467 112.335 192.682 112.259 192.904 112.177C196.084 111.05 200.698 109.119 201.551 108.761C201.71 108.914 201.773 109.142 201.715 109.356V109.356C201.436 110.738 193.663 113.859 193.663 113.859Z" fill="black"/>
<path d="M194.161 115.469L193.991 115.527C193.991 115.527 193.59 115.627 192.919 115.766C190.878 116.192 186.328 116.981 182.896 116.289C182.398 116.192 181.881 116.085 181.356 115.985L180.141 115.721C176.193 114.843 172.107 113.695 171.381 112.684C171.381 112.684 171.579 109.383 172.244 109.474C172.909 109.565 180.335 112.684 180.335 112.684L180.442 112.699C180.633 112.724 181.067 112.781 181.678 112.848C184.09 113.112 189.171 113.531 191.905 112.8C192.035 112.763 192.157 112.727 192.275 112.684C192.482 112.617 192.697 112.541 192.919 112.459C196.436 111.214 201.703 108.985 201.703 108.985C201.703 108.985 203.094 110.246 202.323 111.67C201.624 112.97 195.282 115.101 194.161 115.469Z" fill="#E69B1F"/>
<path opacity="0.1" d="M188.816 115.177C188.816 114.564 188.318 114.066 187.704 114.066C187.09 114.066 186.592 114.564 186.592 115.177C186.592 115.791 187.09 116.289 187.704 116.289C188.318 116.289 188.816 115.791 188.816 115.177Z" fill="black"/>
<path d="M188.816 114.898C188.816 114.284 188.318 113.787 187.704 113.787C187.09 113.787 186.592 114.284 186.592 114.898C186.592 115.512 187.09 116.01 187.704 116.01C188.318 116.01 188.816 115.512 188.816 114.898Z" fill="#F5A623"/>
<path opacity="0.1" d="M181.638 115.97L180.424 115.706L180.727 112.688C180.897 112.718 181.335 112.776 181.942 112.836L181.638 115.97Z" fill="black"/>
<path d="M181.365 115.97L180.15 115.706L180.454 112.688C180.621 112.718 181.061 112.776 181.669 112.836L181.365 115.97Z" fill="#E69B1F"/>
<path opacity="0.1" d="M193.721 115.527C193.721 115.527 193.323 115.627 192.649 115.767L191.613 112.794C191.744 112.757 191.868 112.721 191.987 112.678C192.193 112.612 192.409 112.536 192.631 112.454L193.891 115.469L193.721 115.527Z" fill="black"/>
<path d="M194 115.527C194 115.527 193.6 115.627 192.928 115.767L191.893 112.794C192.023 112.757 192.145 112.721 192.263 112.678C192.47 112.612 192.685 112.536 192.907 112.454L194.171 115.469L194 115.527Z" fill="#E69B1F"/>
<g opacity="0.858515" clip-path="url(#clip11_12_2)">
<path d="M119.868 108.49C119.868 108.49 123.567 108.94 125.584 108.49C127.601 108.041 128.622 106.474 129.004 106.92C129.387 107.367 129.396 111.573 129.396 111.573L127.659 116.225L123.734 119.137L117.514 117.346L115.455 112.083L115.831 107.37C117.252 107.379 118.645 107.766 119.868 108.49Z" fill="#E96D79"/>
<path opacity="0.1" d="M127.659 116.231L123.734 119.144L117.514 117.352L115.455 112.083L115.846 107.376H115.938C117.328 107.411 118.686 107.798 119.886 108.5C119.886 108.5 123.586 108.949 125.602 108.5C127.519 108.075 128.527 106.635 128.944 106.878V106.878C128.968 106.889 128.99 106.906 129.007 106.927C129.396 107.37 129.396 111.579 129.396 111.579L127.659 116.231Z" fill="black"/>
<path opacity="0.1" d="M127.659 116.231L123.734 119.143L117.514 117.352L115.455 112.083L115.846 107.376H115.938C116.284 108.861 117.76 113.55 122.462 113.881C127.297 114.218 128.67 108.466 128.956 106.881C128.98 106.892 129.002 106.909 129.019 106.929C129.396 107.37 129.396 111.579 129.396 111.579L127.659 116.231Z" fill="black"/>
<path d="M122.447 114.318C128.054 114.71 129.004 106.92 129.004 106.92C129.004 106.92 137.132 109.584 139.028 114.333C140.923 119.083 142.335 122.894 142.335 122.894C142.335 122.894 141.728 123.957 141.044 124.069C140.361 124.181 135.72 127.376 135.72 127.376C135.72 127.376 135.665 136.456 136.169 137.015C136.674 137.574 136.507 139.985 134.991 139.872C133.475 139.76 122.996 137.407 114.033 139.368C114.033 139.368 110.279 140.714 110.388 138.527C110.498 136.341 110.668 127.768 110.668 127.768C110.668 127.768 105.006 125.302 104.672 125.302C104.338 125.302 103.494 124.859 104.39 123.398C105.286 121.937 106.409 116.954 106.409 116.954C106.409 116.954 108.657 109.799 115.831 107.37C115.831 107.37 116.84 113.926 122.447 114.318Z" fill="#FF748E"/>
<path opacity="0.1" d="M134.554 121.33C134.162 122.284 133.263 119.144 133.263 119.144C133.263 119.144 134.945 120.376 134.554 121.33Z" fill="black"/>
<path opacity="0.1" d="M135.729 120.328C135.572 120.874 135.572 121.454 135.729 122.001Z" fill="black"/>
<path opacity="0.1" d="M136.85 123.404C136.85 123.404 137.075 124.923 136.403 125.084Z" fill="black"/>
<path opacity="0.1" d="M113.981 118.752C113.981 118.752 110.844 121.485 111.907 122.563Z" fill="black"/>
<path opacity="0.1" d="M112.019 125.366C112.019 125.366 111.968 128.223 112.833 128.448Z" fill="black"/>
<path opacity="0.1" d="M121.043 134.947C121.043 134.947 123.169 133.492 123.734 133.547Z" fill="black"/>
<path opacity="0.1" d="M123.169 136.462C123.169 136.462 125.472 134.834 126.088 134.944Z" fill="black"/>
</g>
<g opacity="0.885021" clip-path="url(#clip12_12_2)">
<path d="M200.622 162.867L200.421 165.272L184.287 167.398L179.512 165.928L173.164 162.533C173.164 162.533 191.504 163.402 200.622 162.867Z" fill="#6C63FF"/>
<path opacity="0.1" d="M200.434 165.272L184.302 167.398L179.524 165.928L173.164 162.533C173.164 162.533 173.541 162.554 174.212 162.582V162.582C178.191 162.755 192.518 163.314 200.385 162.885L200.634 162.867L200.434 165.272Z" fill="black"/>
<path d="M191.148 197.134L187.74 184.987L183.932 197.344C178.522 199.281 167.363 196.475 167.363 196.475L171.706 169.752L172.457 166.068L173.164 162.533L180.047 164.604C180.047 164.604 182.115 166.007 190.735 165.606C199.355 165.206 200.622 162.873 200.622 162.873C201.002 162.983 201.363 164.322 201.727 165.986C202.256 168.415 202.794 171.531 203.428 172.561C204.51 174.292 206.982 197.067 206.982 197.067C203.441 199.193 191.148 197.134 191.148 197.134Z" fill="#212121"/>
<path opacity="0.1" d="M187.44 170.35C185.803 170.55 172.457 166.332 172.457 166.332L173.164 162.8L180.047 164.871C180.047 164.871 182.115 166.274 190.735 165.874C199.355 165.473 200.622 163.14 200.622 163.14C201.014 163.247 201.375 164.583 201.74 166.247C194.055 170.465 187.44 170.35 187.44 170.35Z" fill="black"/>
<path opacity="0.1" d="M200.434 165.272L184.302 167.398L179.524 165.928L173.164 162.533C173.164 162.533 173.541 162.554 174.212 162.582V162.582L180.044 164.337C180.044 164.337 182.112 165.74 190.732 165.339C197.503 165.036 199.738 163.517 200.385 162.882L200.634 162.867L200.434 165.272Z" fill="black"/>
<path d="M187.44 170.083C185.803 170.283 172.457 166.065 172.457 166.065L173.164 162.533L180.047 164.604C180.047 164.604 182.115 166.007 190.735 165.606C199.355 165.206 200.622 162.873 200.622 162.873C201.014 162.977 201.375 164.316 201.74 165.98C194.055 170.198 187.44 170.083 187.44 170.083Z" fill="#6C63FF"/>
<path opacity="0.1" d="M189.444 168.743C189.444 168.356 189.13 168.042 188.743 168.042C188.355 168.042 188.041 168.356 188.041 168.743C188.041 169.131 188.355 169.445 188.743 169.445C189.13 169.445 189.444 169.131 189.444 168.743Z" fill="black"/>
<path fill-rule="evenodd" clip-rule="evenodd" d="M189.444 168.476C189.444 168.089 189.13 167.775 188.743 167.775C188.355 167.775 188.041 168.089 188.041 168.476C188.041 168.864 188.355 169.178 188.743 169.178C189.13 169.178 189.444 168.864 189.444 168.476Z" stroke="#6C63FF" stroke-width="0.561404"/>
<path opacity="0.1" d="M172.909 184.644C173.778 184.577 170.804 181.036 170.804 181.036C170.804 181.036 172.04 184.711 172.909 184.644Z" fill="black"/>
<path opacity="0.1" d="M170.002 184.644C170.002 184.644 170.771 186.849 171.573 187.216Z" fill="black"/>
<path opacity="0.1" d="M170.002 186.949C170.002 186.949 171.217 188.485 171.937 188.853Z" fill="black"/>
<path opacity="0.1" d="M202.627 173.056C202.627 173.056 203.762 174.759 202.627 175.127Z" fill="black"/>
<path opacity="0.1" d="M202.639 177.951C202.639 177.951 203.48 176.226 203.143 175.825C201.825 174.261 202.639 177.951 202.639 177.951Z" fill="black"/>
<path opacity="0.1" d="M203.808 177.729C203.808 177.729 201.803 180.702 202.204 181.036Z" fill="black"/>
<path opacity="0.1" d="M172.125 171.941L172.235 171.695C172.283 171.72 177.189 173.848 179.843 172.251C180.846 171.644 181.408 170.575 181.517 169.062L181.784 169.084C181.669 170.687 181.061 171.817 179.98 172.479C179.158 172.933 178.228 173.155 177.289 173.12C174.832 173.12 172.268 172.008 172.125 171.941Z" fill="black"/>
<path d="M172.125 171.674L172.235 171.431C172.283 171.452 177.189 173.581 179.843 171.984C180.846 171.376 181.408 170.307 181.517 168.795L181.784 168.816C181.669 170.42 181.061 171.549 179.98 172.211C179.158 172.666 178.228 172.887 177.289 172.852C174.832 172.852 172.268 171.741 172.125 171.674Z" fill="#6C63FF"/>
<path opacity="0.1" d="M195.641 172.928C193.648 171.968 193.326 169.618 193.311 169.518L193.578 169.484C193.578 169.509 193.897 171.795 195.759 172.688C197.417 173.487 199.771 172.992 202.745 171.17L202.882 171.398C200.765 172.679 198.951 173.32 197.463 173.32C196.834 173.329 196.211 173.195 195.641 172.928Z" fill="black"/>
<path d="M195.641 172.661C193.648 171.701 193.326 169.351 193.311 169.251L193.578 169.217C193.578 169.242 193.897 171.528 195.759 172.421C197.417 173.22 199.771 172.725 202.745 170.903L202.882 171.13C200.765 172.412 198.951 173.053 197.463 173.053C196.834 173.062 196.211 172.928 195.641 172.661Z" fill="#6C63FF"/>
</g>
<path d="M123.169 167.288C125.511 166.821 125.742 166.308 127.823 162.943L129.53 166.869L127.519 171.728L125.138 174.811L120.09 174.018L118.456 168.503L117.38 162.943C117.38 162.943 120.828 167.756 123.169 167.288Z" fill="#6C63FF"/>
<path opacity="0.1" d="M127.519 171.725L125.138 174.807L120.09 174.015L118.456 168.5L117.38 162.943C117.38 162.943 117.684 163.362 118.158 163.939C119.315 165.32 121.517 167.616 123.169 167.279C125.478 166.818 125.736 166.31 127.741 163.07L127.823 162.934L129.53 166.866L127.519 171.725Z" fill="black"/>
<path opacity="0.1" d="M127.519 171.725L125.138 174.808L120.09 174.015L118.456 168.5L117.38 162.943C117.38 162.943 117.684 163.362 118.158 163.939C118.911 166.368 120.53 170.265 123.169 170.231C126.149 170.198 127.352 165.263 127.741 163.08L127.823 162.943L129.53 166.866L127.519 171.725Z" fill="black"/>
<path d="M114.996 164.109C115.603 165.557 116.724 170.322 116.165 171.303C115.606 172.284 115.886 174.947 113.456 175.463L114.155 178.218C114.155 178.218 114.294 184.291 114.015 185.181C113.735 186.071 113.687 190.972 113.781 191.485C113.875 191.999 113.83 195.363 113.456 195.506C113.082 195.649 112.849 197.28 114.063 197.559C115.278 197.838 120.463 197.981 121.399 198.26C122.334 198.54 128.968 198.26 128.968 198.26C128.968 198.26 131.771 197.887 132.473 197.653C133.174 197.419 133.314 196.861 133.08 195.786C132.846 194.71 131.771 186.909 132.005 185.928C132.239 184.947 132.288 175.369 132.288 175.369C132.288 175.369 130.465 174.762 130.465 172.985C130.465 171.209 129.764 166.444 131.212 163.456C131.212 163.456 130.043 162.654 129.858 162.797C129.672 162.94 127.908 162.427 127.908 162.427C127.908 162.427 126.997 170.556 123.185 170.602C119.373 170.647 117.675 162.427 117.675 162.427C117.675 162.427 117.708 161.68 115.558 162.8C115.558 162.8 114.388 162.66 114.996 164.109Z" fill="#413E4D"/>
<path opacity="0.1" d="M123.169 191.067C124.482 191.346 121.071 188.871 121.071 188.871C121.071 188.871 121.857 190.787 123.169 191.067Z" fill="black"/>
<path opacity="0.1" d="M119.856 190.365C119.856 190.365 122.395 192.421 122.286 192.843Z" fill="black"/>
<path opacity="0.1" d="M114.762 178.218C114.762 178.218 116.773 179.572 116.773 180.553Z" fill="black"/>
<path opacity="0.1" d="M116.117 182.469C116.117 182.469 115.558 180.507 115.184 180.088Z" fill="black"/>
<path opacity="0.1" d="M115.184 183.216C115.184 183.216 116.026 184.899 116.117 185.366Z" fill="black"/>
<path opacity="0.1" d="M131.492 179.806C131.492 179.806 128.877 180.602 129.108 181.583Z" fill="black"/>
<path opacity="0.1" d="M131.492 184.993C130.462 185.087 129.095 188.871 129.095 188.871C129.095 188.871 132.521 184.899 131.492 184.993Z" fill="black"/>
<g opacity="0.1" clip-path="url(#clip13_12_2)">
<path d="M130.295 169.083C130.277 170.948 130.462 172.672 130.462 173.593C130.462 175.33 132.203 175.946 132.285 175.973C132.285 175.594 132.285 175.366 132.285 175.366C132.285 175.366 130.462 174.762 130.462 172.985C130.462 172.165 130.313 170.708 130.295 169.083Z" fill="black"/>
<path d="M133.153 196.876C133.192 196.511 133.164 196.141 133.071 195.786C132.871 194.875 132.057 189.026 131.972 186.742C131.881 188.303 132.859 195.373 133.071 196.393C133.107 196.552 133.134 196.714 133.153 196.876Z" fill="black"/>
<path d="M114.015 185.779C114.164 185.305 114.194 183.368 114.191 181.655C114.191 183.192 114.145 184.753 114.015 185.172C113.808 185.834 113.729 188.682 113.738 190.334C113.738 188.667 113.833 186.368 114.015 185.779Z" fill="black"/>
<path d="M117.66 163.034C117.66 163.034 119.342 171.257 123.169 171.209C126.997 171.16 127.908 163.034 127.908 163.034C127.908 163.034 129.685 163.547 129.87 163.404C130.055 163.262 130.678 163.708 131.021 163.927C131.085 163.766 131.152 163.608 131.228 163.456C131.228 163.456 130.058 162.654 129.87 162.797C129.682 162.94 127.908 162.427 127.908 162.427C127.908 162.427 126.997 170.556 123.185 170.602C119.373 170.647 117.675 162.427 117.675 162.427C117.675 162.427 117.72 161.68 115.573 162.8C115.573 162.8 114.622 162.691 114.887 163.738C115.038 163.347 115.558 163.407 115.558 163.407C117.705 162.287 117.66 163.034 117.66 163.034Z" fill="black"/>
<path d="M113.82 192.773C113.805 193.927 113.699 195.412 113.453 195.506C113.207 195.6 113.088 196.113 113.183 196.608C113.231 196.347 113.328 196.156 113.453 196.113C113.757 196.001 113.839 193.921 113.82 192.773Z" fill="black"/>
<path d="M116.308 170.662C116.305 170.883 116.257 171.101 116.165 171.303C115.603 172.284 115.883 174.947 113.453 175.463L113.599 176.034C115.871 175.445 115.616 172.873 116.165 171.91C116.314 171.512 116.363 171.084 116.308 170.662Z" fill="black"/>
</g>
<path d="M116.861 219.925L116.891 219.715L117.122 218.097H129.402L129.636 219.712L129.663 219.925C128.515 222.014 116.861 219.925 116.861 219.925Z" fill="#6C63FF"/>
<path opacity="0.1" d="M116.861 219.925L116.891 219.716C117.45 219.716 125.882 219.515 129.648 219.716L129.663 219.925C128.515 222.014 116.861 219.925 116.861 219.925Z" fill="black"/>
<path d="M116.861 219.925C116.861 219.925 114.771 220.447 111.53 229.223C108.29 238 107.141 249.339 107.141 249.339C107.141 249.339 105.319 252.424 113.098 252.631C113.098 252.631 112.472 254.669 116.861 254.356C121.25 254.043 120.618 254.046 120.618 254.046C120.618 254.046 123.44 252.27 124.694 252.582C125.949 252.895 126.732 253.001 128.09 254.149C129.448 255.297 133.788 254.83 133.84 253.943C133.875 253.507 133.875 253.07 133.84 252.634C133.84 252.634 140.476 253.053 139.222 248.246C137.967 243.439 136.923 235.549 136.923 235.549C136.923 235.549 133.527 220.137 129.657 219.928C125.788 219.718 116.861 219.925 116.861 219.925V219.925Z" fill="#6C63FF"/>
<path opacity="0.1" d="M115.463 225.991L115.671 226.01L113.213 252.657L113.004 252.638L115.463 225.991Z" fill="black"/>
<path opacity="0.1" d="M120.506 225.972L120.716 225.971L120.824 254.027L120.614 254.028L120.506 225.972Z" fill="black"/>
<path opacity="0.1" d="M127.172 225.965L128.22 254.127L128.01 254.134L126.963 225.973L127.172 225.965Z" fill="black"/>
<path opacity="0.1" d="M130.608 225.5L130.811 225.449C130.839 225.558 133.588 236.566 133.949 252.643L133.739 252.634C133.375 236.585 130.641 225.598 130.608 225.5Z" fill="black"/>
<path opacity="0.1" d="M117.225 221.492C117.225 221.492 116.861 221.702 117.225 222.707Z" fill="black"/>
<path opacity="0.1" d="M118.273 221.492C118.273 221.492 117.28 222.118 118.273 223.165Z" fill="black"/>
<path opacity="0.1" d="M127.574 221.492C127.574 221.492 128.931 222.798 128.618 223.165Z" fill="black"/>
<path opacity="0.1" d="M128.667 221.179C128.667 221.179 128.88 222.746 129.663 223.165Z" fill="black"/>
<g opacity="0.88837" clip-path="url(#clip14_12_2)">
<path d="M191.479 219.123C193.697 221.613 189.961 224.644 189.961 224.644L188.394 227.772L184.706 227.368L183.838 223.044L184.135 218.674C184.135 218.674 189.262 216.633 191.479 219.123Z" fill="#57CCB7"/>
<path opacity="0.1" d="M188.394 227.757L184.706 227.365L183.838 223.044L184.141 218.674L184.223 218.644C184.873 218.404 189.262 216.873 191.361 218.981C191.405 219.021 191.446 219.063 191.486 219.108C193.697 221.586 189.961 224.629 189.961 224.629L188.394 227.757Z" fill="black"/>
<path opacity="0.1" d="M188.394 227.757L184.706 227.365L183.838 223.044L184.141 218.674L184.223 218.644C184.858 222.121 186.553 223.587 186.838 223.806L186.881 223.836L187.923 223.751C189.949 222.634 191.018 219.977 191.361 218.972C191.405 219.012 191.446 219.054 191.486 219.099C193.697 221.586 189.961 224.629 189.961 224.629L188.394 227.757Z" fill="black"/>
<path d="M198.092 252.664C198.399 254.401 197.439 254.532 197.439 254.532C197.439 254.532 193.35 255.443 192.579 254.836C191.808 254.228 190.492 254.11 190.492 254.11C190.492 254.11 187.455 254.805 186.1 254.286C184.746 253.767 182.492 253.982 182.492 253.982C182.492 253.982 180.755 255.027 180.275 254.808C179.795 254.59 179.187 254.678 177.796 254.289C176.405 253.9 175.621 253.548 176.36 251.158C177.098 248.768 176.451 241.204 176.405 240.289C176.36 239.375 175.928 237.162 175.318 234.52C174.707 231.878 176.36 232.433 176.36 232.433C180.232 230.435 178.622 226.521 178.015 224.784C177.407 223.047 178.361 222.962 178.838 222.962C179.315 222.962 181.143 221.398 181.143 221.398L181.885 220.733L184.144 218.704C184.706 222.503 186.529 224.097 186.832 224.334L186.875 224.368L187.917 224.28C190.438 222.892 191.479 219.117 191.479 219.117C191.783 219.633 192.461 220.222 193.217 220.769C194.207 221.469 195.238 222.108 196.306 222.682C198.128 223.769 196.786 224.857 196.786 224.857C194.568 232.418 197.697 232.752 197.697 232.752C200.002 233.092 198.915 236.539 198.915 236.539C198.915 236.539 197.785 250.927 198.092 252.664Z" fill="#33907C"/>
<path opacity="0.1" d="M181.83 222.977C181.83 222.977 181.177 223.326 181.177 223.715Z" fill="black"/>
<path opacity="0.1" d="M182.222 223.715C182.222 223.715 181.353 224.626 181.505 224.89Z" fill="black"/>
<path opacity="0.1" d="M182.222 224.893C182.222 224.893 181.569 225.588 181.83 225.98Z" fill="black"/>
<path opacity="0.1" d="M183.838 227.496C183.737 224.562 182.319 222.215 181.62 221.225L183.88 219.196C184.433 223.026 186.27 224.62 186.571 224.857L183.838 227.496Z" fill="black"/>
<path d="M184.099 226.976C184.002 224.04 182.58 221.695 181.885 220.702L184.144 218.674C184.706 222.503 186.529 224.098 186.832 224.334L184.099 226.976Z" fill="#57CCB7"/>
<path opacity="0.1" d="M190.353 227.496L188.178 224.802C190.699 223.411 191.741 219.64 191.741 219.64C192.044 220.144 192.722 220.733 193.478 221.283C192.385 222.989 190.353 227.496 190.353 227.496Z" fill="black"/>
<path d="M190.085 226.977L187.917 224.286C190.438 222.898 191.479 219.124 191.479 219.124C191.783 219.625 192.461 220.214 193.211 220.76C192.12 222.47 190.085 226.977 190.085 226.977Z" fill="#57CCB7"/>
<path opacity="0.1" d="M191.613 248.623C191.613 248.623 191.148 252.57 190.881 252.795Z" fill="black"/>
<path opacity="0.1" d="M195.437 249.318C195.437 249.318 195.96 252.142 195.741 252.795Z" fill="black"/>
<path opacity="0.1" d="M184.308 249.491C184.308 249.491 183.831 252.142 184.308 252.446Z" fill="black"/>
<path opacity="0.1" d="M181.487 249.099C181.487 249.099 181.092 252.23 181.183 252.795Z" fill="black"/>
<path opacity="0.1" d="M196.09 233.843C196.09 233.843 194.875 234.799 194.96 235.057Z" fill="black"/>
<path opacity="0.1" d="M195.796 236.19C196.959 235.972 196.959 234.453 196.959 234.453C196.959 234.453 194.632 236.409 195.796 236.19Z" fill="black"/>
</g>
<path fill-rule="evenodd" clip-rule="evenodd" d="M216.898 148.432C214.938 149.247 212.68 148.801 211.177 147.302C209.675 145.803 209.224 143.547 210.035 141.586C210.846 139.624 212.76 138.345 214.882 138.345C217.775 138.345 220.121 140.686 220.128 143.578C220.133 145.7 218.858 147.616 216.898 148.432ZM218.169 142.463C218.299 142.331 218.299 142.118 218.169 141.986L217.689 141.506C217.626 141.442 217.54 141.406 217.45 141.406C217.361 141.406 217.275 141.442 217.212 141.506L214.038 144.68L212.556 143.204C212.422 143.073 212.209 143.073 212.076 143.204L211.599 143.684C211.535 143.746 211.499 143.832 211.499 143.922C211.499 144.012 211.535 144.098 211.599 144.16L213.798 146.359C213.861 146.423 213.947 146.459 214.036 146.459C214.126 146.459 214.212 146.423 214.275 146.359V146.353L218.169 142.463Z" fill="#33907C"/>
<path fill-rule="evenodd" clip-rule="evenodd" d="M151.338 206.381C148.441 206.381 146.092 204.033 146.092 201.137C146.092 198.24 148.441 195.892 151.338 195.892C154.235 195.892 156.583 198.24 156.583 201.137C156.583 204.033 154.235 206.381 151.338 206.381ZM154.636 200.022C154.701 199.959 154.737 199.872 154.737 199.782C154.737 199.692 154.701 199.606 154.636 199.542L154.144 199.081C154.081 199.017 153.995 198.98 153.904 198.98C153.814 198.98 153.728 199.017 153.664 199.081L150.49 202.239L149.008 200.757C148.945 200.693 148.859 200.657 148.77 200.657C148.68 200.657 148.594 200.693 148.531 200.757L148.051 201.234C147.921 201.367 147.921 201.58 148.051 201.714L150.25 203.912C150.314 203.976 150.4 204.013 150.49 204.013C150.581 204.013 150.667 203.976 150.73 203.912V203.912L154.636 200.022Z" fill="#33907C"/>
<path fill-rule="evenodd" clip-rule="evenodd" d="M151.338 263.673C148.441 263.673 146.092 261.325 146.092 258.428C146.092 255.532 148.441 253.184 151.338 253.184C154.235 253.184 156.583 255.532 156.583 258.428C156.583 261.325 154.235 263.673 151.338 263.673ZM154.636 257.314C154.701 257.25 154.737 257.164 154.737 257.074C154.737 256.984 154.701 256.897 154.636 256.834L154.16 256.357C154.096 256.293 154.01 256.257 153.92 256.257C153.829 256.257 153.743 256.293 153.68 256.357L150.506 259.531L149.023 258.049C148.961 257.985 148.875 257.949 148.785 257.949C148.695 257.949 148.609 257.985 148.547 258.049L148.067 258.525C147.936 258.659 147.936 258.872 148.067 259.005L150.266 261.204C150.329 261.268 150.415 261.304 150.506 261.304C150.596 261.304 150.682 261.268 150.746 261.204H150.73L154.636 257.314Z" fill="#33907C"/>
</g>
<g clip-path="url(#clip15_12_2)">
<path opacity="0.3" d="M97.4229 287.821C97.4229 283.37 78.964 279.761 56.1939 279.761C33.4238 279.761 14.9649 283.37 14.9649 287.821C14.9649 292.272 33.4238 295.88 56.1939 295.88C78.964 295.88 97.4229 292.272 97.4229 287.821Z" fill="#212121"/>
<path d="M90.5433 178.409L90.516 178.388V178.388L90.3519 178.278L90.3853 178.303C90.1416 178.162 89.8305 178.23 89.6685 178.461L89.6017 178.555V178.555L85.9113 183.863L85.2674 184.808C83.3205 184.221 80.1586 186.687 78.5579 188.102C78.4577 188.19 78.3635 188.272 78.2785 188.351C78.1509 188.066 78.075 187.884 78.075 187.884C77.996 188.752 74.9283 190.055 74.2115 190.529C73.8858 190.726 73.5208 190.848 73.1423 190.887C73.2456 187.586 70.6912 184.112 70.6912 184.112L64.4494 176.171C64.2198 174.735 64.4427 173.263 65.0873 171.959C65.1389 171.856 65.1905 171.752 65.2482 171.655H65.2786C65.0425 172.322 64.9103 173.022 64.8868 173.729C64.902 174.267 65.4001 176.872 66.1017 176.766C66.2436 176.781 66.3817 176.715 66.4601 176.596C67.019 175.946 67.0676 174.841 67.0403 173.817C67.0306 174.118 66.9971 174.418 66.94 174.713C66.9856 173.863 66.8884 172.964 66.8884 172.323C66.8884 172.068 66.8884 171.816 66.9066 171.561H66.9826C66.9826 171.658 66.9826 171.762 66.9826 171.865C66.9826 171.759 66.9826 171.655 66.9826 171.561H67.0615C68.4616 171.305 69.7734 170.697 70.8734 169.794C71.422 169.772 71.9387 169.53 72.307 169.123C72.4423 169.574 72.3406 170.063 72.0367 170.422C72.872 170.383 73.5797 169.733 73.9016 168.971C74.1775 168.192 74.2588 167.358 74.1386 166.541C74.0185 165.724 73.9586 164.899 73.9594 164.072C74.0169 163.626 74.0413 163.177 74.0323 162.727C74.0188 162.59 73.9945 162.454 73.9594 162.32H73.9837C74.1453 162.324 74.3016 162.262 74.418 162.15C74.7643 161.883 74.8766 161.361 74.9647 160.96C75.2045 160.037 75.3129 159.085 75.2867 158.133C75.2685 158.421 75.232 158.713 75.1895 159.001C75.2654 157.908 75.1136 156.845 74.3907 156.052C73.8925 155.509 73.197 155.19 72.5288 154.871C72.2898 154.786 72.0794 154.635 71.9213 154.437C71.8032 154.203 71.7388 153.946 71.733 153.684C71.4991 152.086 69.9956 150.975 68.4982 150.343C66.5725 149.505 64.2459 149.147 62.4083 150.143C61.4971 150.626 60.7985 151.382 59.9784 151.998C58.9518 152.779 57.7672 153.325 56.6708 154.006C55.5743 154.686 54.5446 155.548 54.007 156.72C53.2021 158.542 53.8065 160.607 53.9068 162.584C54.0678 165.697 52.786 168.962 50.2468 170.784C49.9424 170.97 49.6706 171.205 49.4419 171.479C49.2133 171.763 49.1866 172.16 49.375 172.472C49.5057 172.642 49.7122 172.739 49.855 172.9C50.1435 173.228 50.0858 173.729 49.9734 174.148C49.6046 175.52 48.8696 176.765 47.8473 177.75C47.8928 178.072 48.2907 178.2 48.6157 178.248C49.4756 178.375 50.3436 178.437 51.2126 178.436H51.5862C51.5468 178.537 51.5042 178.643 51.4617 178.755C50.9909 179.994 50.3804 181.901 50.5839 183.067C50.8877 184.908 51.8596 193.323 51.3797 194.799C50.8998 196.274 52.1512 206.976 52.1512 206.976C52.1512 206.976 52.3182 207.802 52.6068 209.035C51.8566 210.802 51 212.764 50.5718 213.551C49.7092 215.127 50.1344 223.174 53.108 226.751C53.108 226.751 54.3229 228.488 54.0192 229.117C53.7154 229.746 54.0738 230.854 54.0738 230.854L54.5446 241.267C54.5345 242.331 54.4615 243.394 54.3259 244.45C53.0563 246.02 51.1003 248.309 50.1799 248.683C48.7554 249.263 38.1308 262.148 38.1308 262.148C38.1308 262.148 38.2158 262.303 38.3829 262.555L38.0791 262.901L36.0411 265.264L35.8801 265.449C35.4974 265.376 32.9491 264.915 30.9292 264.769H30.7288V264.732C30.0209 264.651 29.3051 264.671 28.6026 264.79C28.4697 264.815 28.3471 264.878 28.2503 264.972C27.5608 265.816 27.1902 279.069 27.1902 279.069C27.1902 279.069 27.9253 285.704 30.2276 286.075C30.345 286.116 30.4679 286.138 30.5921 286.142H30.6923C32.3325 286.02 33.0857 285.082 33.4259 284.438C33.5266 284.246 33.6031 284.042 33.6537 283.831C33.6537 283.831 33.3864 282.649 34.1033 281.019C34.8201 279.388 36.1595 276.518 36.1595 276.518C36.1595 276.518 38.5894 273.964 38.1551 272.725C38.2219 272.625 38.3009 272.516 38.3859 272.391C39.2971 271.091 41.1438 268.525 42.6382 266.813C42.7354 266.697 42.8326 266.591 42.9419 266.485C43.4856 266.714 44.0545 266.878 44.6368 266.974C44.6368 266.974 46.9209 266.081 47.7683 264.082C48.1297 263.232 49.5482 261.726 51.0577 260.277L51.0091 260.663L50.9575 273.339C51.4484 273.676 51.9713 273.964 52.5187 274.198V274.502C52.5294 276.308 52.4198 278.113 52.1907 279.904L52.1451 280.187C51.9568 280.053 51.7928 280.007 51.6895 280.111C51.2218 280.584 50.9302 283.609 50.9028 285.003C50.9028 285.048 50.9028 285.094 50.9028 285.143C50.8269 286.533 50.0342 288.556 52.4215 288.659C54.2075 288.735 61.9072 288.85 66.0258 288.911C68.2448 288.953 70.4034 288.188 72.1005 286.758C73.4096 285.638 74.2024 284.304 72.4194 283.323C72.3101 283.263 72.1947 283.205 72.0671 283.147L68.1185 282.54L61.3726 279.096C61.3726 279.096 61.3331 277.013 60.5221 277.359C60.2812 277.412 60.0504 277.503 59.8387 277.63C59.7992 277.554 59.7567 277.472 59.7172 277.387C59.1678 276.298 58.8827 275.095 58.885 273.876C58.885 273.767 58.885 273.654 58.9002 273.542C59.0977 273.362 59.2844 273.17 59.4591 272.968C59.4591 272.968 59.4074 268.234 59.939 267.341C60.4705 266.448 62.1167 257.399 62.1167 257.399C62.1167 257.399 62.1684 255.716 63.2314 254.717C64.2945 253.718 63.9209 250.824 63.9209 250.824C63.9209 250.824 65.4092 250.034 65.8861 247.459C66.3629 244.884 67.9059 239.26 67.9059 239.26C67.9059 239.26 71.0921 230.948 70.8825 225.692C70.6729 220.435 71.1863 217.696 71.1863 217.696L71.8484 205.476V205.288C72.1127 205.488 72.2919 205.652 72.2919 205.652C72.2919 205.652 72.2919 205.603 72.2919 205.518C72.3891 205.6 72.4437 205.652 72.4437 205.652C72.4437 205.652 72.7839 200.107 72.6685 197.908C74.5273 197.277 77.3582 196.238 77.5282 195.71C77.7652 194.923 80.9544 192.436 80.9544 192.436C80.8854 192.425 80.8193 192.4 80.76 192.363C80.8602 192.317 80.9635 192.263 81.0637 192.205C83.1534 191.088 87.0352 187.82 86.3821 185.828L90.6344 179.727C90.9089 179.324 90.8646 178.784 90.5281 178.43L90.5433 178.409Z" fill="url(#paint0_linear_12_2)"/>
<path d="M79.6179 193.55C78.2906 193.59 77.188 189.997 77.188 189.997C77.188 189.997 77.5647 189.615 78.1661 189.086C79.946 187.504 83.6789 184.583 85.4284 186.217C87.4027 188.042 82.9347 191.929 80.6354 193.165C80.3251 193.359 79.9793 193.49 79.6179 193.55Z" fill="#FFD4D6"/>
<path d="M55.5591 284.128C55.5591 284.128 51.0273 284.18 51.9143 281.68C52.0914 281.139 52.2175 280.581 52.2909 280.016C52.5141 278.242 52.6207 276.454 52.6098 274.665C52.6098 273.493 52.5916 272.67 52.5916 272.67C52.5916 272.67 59.7263 269.545 58.9974 272.801C58.9067 273.208 58.8578 273.623 58.8516 274.04C58.8487 275.246 59.1274 276.437 59.6656 277.517C59.8858 277.983 60.1513 278.427 60.4583 278.841L55.5591 284.128Z" fill="#FFD4D6"/>
<path opacity="0.1" d="M55.5591 284.128C55.5591 284.128 51.0273 284.18 51.9143 281.681C52.0914 281.139 52.2175 280.582 52.2909 280.016C52.9378 280.517 53.8673 281.993 53.8673 281.993C53.8673 281.993 56.9927 282.904 57.8523 280.171C58.3322 278.653 59.0915 277.885 59.6747 277.517C59.892 277.983 60.1545 278.426 60.4583 278.841L55.5591 284.128Z" fill="black"/>
<path d="M65.8587 288.93C61.8191 288.872 54.2713 288.753 52.5187 288.681C50.1739 288.577 50.9514 286.576 51.0274 285.197C51.0274 285.149 51.0274 285.106 51.0274 285.061C51.0547 283.679 51.3311 280.685 51.7989 280.217C52.2666 279.749 53.8673 282.3 53.8673 282.3C53.8673 282.3 56.9927 283.211 57.8523 280.478C58.7119 277.745 60.4583 277.481 60.4583 277.481C61.2511 277.138 61.2906 279.2 61.2906 279.2L67.9059 282.61L71.7876 283.217C71.9122 283.275 72.0246 283.333 72.1309 283.39C73.8865 284.374 73.1089 285.692 71.8241 286.804C70.163 288.219 68.0404 288.975 65.8587 288.93Z" fill="#C17174"/>
<path opacity="0.25" d="M59.8873 281.262C59.8873 281.104 59.7595 280.976 59.6018 280.976C59.4441 280.976 59.3163 281.104 59.3163 281.262C59.3163 281.419 59.4441 281.547 59.6018 281.547C59.7595 281.547 59.8873 281.419 59.8873 281.262Z" fill="white"/>
<path opacity="0.25" d="M62.5723 282.592C62.5723 282.434 62.4445 282.306 62.2868 282.306C62.1291 282.306 62.0013 282.434 62.0013 282.592C62.0013 282.749 62.1291 282.877 62.2868 282.877C62.4445 282.877 62.5723 282.749 62.5723 282.592Z" fill="white"/>
<path opacity="0.25" d="M63.9513 283.208C63.9513 283.051 63.8234 282.923 63.6658 282.923C63.5081 282.923 63.3802 283.051 63.3802 283.208C63.3802 283.366 63.5081 283.494 63.6658 283.494C63.8234 283.494 63.9513 283.366 63.9513 283.208Z" fill="white"/>
<path opacity="0.25" d="M66.8155 284.307C66.8155 284.15 66.6877 284.022 66.53 284.022C66.3723 284.022 66.2445 284.15 66.2445 284.307C66.2445 284.465 66.3723 284.593 66.53 284.593C66.6877 284.593 66.8155 284.465 66.8155 284.307Z" fill="white"/>
<path opacity="0.25" d="M65.3576 283.84C65.3576 283.682 65.2298 283.554 65.0721 283.554C64.9144 283.554 64.7866 283.682 64.7866 283.84C64.7866 283.997 64.9144 284.125 65.0721 284.125C65.2298 284.125 65.3576 283.997 65.3576 283.84Z" fill="white"/>
<path d="M65.8587 288.929C61.8191 288.872 54.2713 288.753 52.5187 288.68C50.1739 288.577 50.9514 286.576 51.0274 285.197L65.7494 286.108C65.7494 286.108 71.7785 285.197 72.1278 283.399C73.8865 284.374 73.1089 285.692 71.8241 286.804C70.163 288.219 68.0404 288.975 65.8587 288.929Z" fill="#C17174"/>
<path opacity="0.25" d="M65.8587 288.929C61.8191 288.872 54.2713 288.753 52.5187 288.68C50.1739 288.577 50.9514 286.576 51.0274 285.197L65.7494 286.108C65.7494 286.108 71.7785 285.197 72.1278 283.399C73.8865 284.374 73.1089 285.692 71.8241 286.804C70.163 288.219 68.0404 288.975 65.8587 288.929Z" fill="white"/>
<path d="M42.9419 267.043C41.481 268.738 39.6738 271.295 38.7777 272.564C38.4315 273.062 38.2219 273.375 38.2219 273.375L36.2658 273.087C36.2658 273.087 34.1579 269.859 34.1853 269.783C34.2126 269.707 35.8558 266.239 35.8558 266.239L36.4906 265.495L38.4922 263.156L39.4034 262.1C39.4034 262.1 46.1828 264.286 44.4181 265.562C43.8764 266.003 43.3817 266.5 42.9419 267.043Z" fill="#FFD4D6"/>
<path opacity="0.1" d="M38.2219 273.381L36.2658 273.093C36.2658 273.093 34.1579 269.865 34.1853 269.789C34.2126 269.713 35.8558 266.239 35.8558 266.239L36.4906 265.495L36.6971 265.534H37.1953C35.4488 267.356 37.3228 271.365 37.3228 271.365C37.3228 271.365 38.1308 271.441 38.7777 272.57C38.4315 273.068 38.2219 273.381 38.2219 273.381Z" fill="black"/>
<path d="M34.5862 281.079C33.8815 282.695 34.1427 283.864 34.1427 283.864C34.0931 284.075 34.0187 284.279 33.921 284.472C33.4121 285.483 32.3868 286.133 31.2542 286.16H31.1266C28.7514 286.099 27.9982 279.206 27.9982 279.206C27.9982 279.206 28.3627 266.084 29.04 265.237C29.1331 265.142 29.2529 265.079 29.3832 265.054C30.0744 264.935 30.7792 264.915 31.4759 264.997C33.6233 265.152 36.3843 265.68 36.3843 265.68H36.8794C35.1329 267.502 37.0069 271.514 37.0069 271.514C37.0069 271.514 37.8422 271.59 38.4922 272.762C39.1422 273.934 36.5939 276.652 36.5939 276.652C36.5939 276.652 35.2908 279.464 34.5862 281.079Z" fill="#C17174"/>
<path opacity="0.25" d="M34.0121 272.746C34.0121 272.589 33.8843 272.461 33.7266 272.461C33.5689 272.461 33.4411 272.589 33.4411 272.746C33.4411 272.904 33.5689 273.032 33.7266 273.032C33.8843 273.032 34.0121 272.904 34.0121 272.746Z" fill="white"/>
<path opacity="0.25" d="M33.8694 275.021C33.8694 274.863 33.7415 274.735 33.5839 274.735C33.4262 274.735 33.2983 274.863 33.2983 275.021C33.2983 275.178 33.4262 275.306 33.5839 275.306C33.7415 275.306 33.8694 275.178 33.8694 275.021Z" fill="white"/>
<path d="M31.0629 286.102H30.9383C28.5631 286.042 27.8068 279.148 27.8068 279.148C27.8068 279.148 28.1713 266.026 28.8486 265.179C28.9418 265.085 29.0615 265.021 29.1919 264.997C29.883 264.877 30.5879 264.858 31.2846 264.939C31.2451 267.299 31.1327 274.754 31.2846 275.495C31.4365 276.236 32.782 282.437 33.7297 284.414C33.2207 285.426 32.1954 286.075 31.0629 286.102Z" fill="#C17174"/>
<path opacity="0.25" d="M31.0629 286.102H30.9383C28.5631 286.042 27.8068 279.148 27.8068 279.148C27.8068 279.148 28.1713 266.026 28.8486 265.179C28.9418 265.085 29.0615 265.021 29.1919 264.997C29.883 264.877 30.5879 264.858 31.2846 264.939C31.2451 267.299 31.1327 274.754 31.2846 275.495C31.4365 276.236 32.782 282.437 33.7297 284.414C33.2207 285.426 32.1954 286.075 31.0629 286.102Z" fill="white"/>
<path d="M27.8038 279.154C27.8038 279.154 28.1683 266.032 28.8456 265.185C28.9387 265.09 29.0585 265.027 29.1888 265.002C29.6869 265.743 30.1243 267.383 29.7295 270.991C28.9883 277.827 29.8813 278.258 29.8813 278.258C29.8813 278.258 30.996 284.067 30.9353 286.108C28.5601 286.047 27.8038 279.154 27.8038 279.154Z" fill="#C17174"/>
<path opacity="0.1" d="M27.8038 279.154C27.8038 279.154 28.1683 266.032 28.8456 265.185C28.9387 265.09 29.0585 265.027 29.1888 265.002C29.6869 265.743 30.1243 267.383 29.7295 270.991C28.9883 277.827 29.8813 278.258 29.8813 278.258C29.8813 278.258 30.996 284.067 30.9353 286.108C28.5601 286.047 27.8038 279.154 27.8038 279.154Z" fill="black"/>
<path opacity="0.1" d="M79.6179 193.55C78.2906 193.59 77.188 189.997 77.188 189.997C77.188 189.997 77.5647 189.615 78.1661 189.086C78.6004 190.058 79.7971 192.679 80.6354 193.165C80.3251 193.359 79.9793 193.49 79.6179 193.55Z" fill="black"/>
<path d="M73.9138 191.482C74.6154 191.015 77.6254 189.724 77.7044 188.865C77.7044 188.865 79.4995 193.238 80.517 193.396C80.517 193.396 77.3915 195.855 77.1577 196.636C76.9238 197.416 70.8278 199.333 70.8278 199.333L72.1187 191.871C72.1187 191.871 73.2121 191.95 73.9138 191.482Z" fill="#FF748E"/>
<path opacity="0.1" d="M73.9138 191.482C74.6154 191.015 77.6254 189.724 77.7044 188.865C77.7044 188.865 79.4995 193.238 80.517 193.396C80.517 193.396 77.3915 195.855 77.1577 196.636C76.9238 197.416 70.8278 199.333 70.8278 199.333L72.1187 191.871C72.1187 191.871 73.2121 191.95 73.9138 191.482Z" fill="black"/>
<path opacity="0.1" d="M42.942 267.043C40.585 266.057 39.0663 264.04 38.4892 263.156L39.4004 262.1C39.4004 262.1 46.1828 264.286 44.4181 265.562C43.8764 266.003 43.3817 266.5 42.942 267.043Z" fill="black"/>
<path d="M50.347 249.096C48.9498 249.67 38.5347 262.428 38.5347 262.428C38.5347 262.428 40.7733 266.543 44.8889 267.217C44.8889 267.217 47.1274 266.333 47.9627 264.353C48.7979 262.373 55.3586 256.779 55.3586 256.779L55.5651 243.417C55.5651 243.417 51.7442 248.522 50.347 249.096Z" fill="#5E5A6B"/>
<path opacity="0.1" d="M50.347 249.096C48.9498 249.67 38.5347 262.428 38.5347 262.428C38.5347 262.428 40.7733 266.543 44.8889 267.217C44.8889 267.217 47.1274 266.333 47.9627 264.353C48.7979 262.373 55.3586 256.779 55.3586 256.779L55.5651 243.417C55.5651 243.417 51.7442 248.522 50.347 249.096Z" fill="black"/>
<path opacity="0.1" d="M47.4676 260.499C49.5239 260.302 47.9748 261.553 43.9898 260.499C45.1459 260.62 46.3115 260.62 47.4676 260.499Z" fill="black"/>
<path opacity="0.1" d="M46.8419 262.607C47.8989 261.826 45.8244 263.36 43.0513 261.826C43.0513 261.826 45.7849 263.387 46.8419 262.607Z" fill="black"/>
<path opacity="0.1" d="M58.8576 274.04C56.7467 275.956 54.2044 275.364 52.6159 274.665C52.6159 273.493 52.5977 272.67 52.5977 272.67C52.5977 272.67 59.7324 269.533 59.0034 272.801C58.9127 273.208 58.8639 273.623 58.8576 274.04Z" fill="black"/>
<path d="M71.5842 206.305L70.9342 218.406C70.9342 218.406 70.4117 221.115 70.6304 226.32C70.8491 231.525 67.7024 239.773 67.7024 239.773C67.7024 239.773 66.1838 245.346 65.7221 247.896C65.2604 250.447 63.7964 251.237 63.7964 251.237C63.7964 251.237 64.1609 254.101 63.1191 255.091C62.0773 256.081 62.0256 257.745 62.0256 257.745C62.0256 257.745 60.4098 266.703 59.8995 267.59C59.3892 268.477 59.4287 273.162 59.4287 273.162C56.0451 277.171 51.0972 273.527 51.0972 273.527L51.1489 260.976C51.1489 260.976 52.5552 249.415 53.597 247.799C54.6388 246.184 54.6388 241.759 54.6388 241.759L54.1741 231.434C54.1741 231.434 53.8035 230.341 54.1224 229.715C54.4414 229.09 53.2325 227.374 53.2325 227.374C50.3136 223.83 49.8914 215.862 50.7449 214.316C51.5984 212.77 54.1224 206.505 54.1224 206.505L57.6063 204.474L63.9027 204.659L71.6601 204.865L71.5842 206.305Z" fill="#5E5A6B"/>
<path opacity="0.1" d="M58.3291 269.403C58.9913 269.716 56.8439 266.239 56.8439 266.239C56.8439 266.239 57.667 269.09 58.3291 269.403Z" fill="black"/>
<path opacity="0.1" d="M61.0142 258.428C61.9254 258.425 57.9768 256.749 57.9768 256.749C57.9768 256.749 60.103 258.431 61.0142 258.428Z" fill="black"/>
<path d="M70.8279 189.685L68.5589 188.707L66.2961 187.732L61.3695 182.888C61.3695 182.888 57.4726 180.359 55.389 178.054C54.1984 176.739 53.6 175.497 54.6479 174.841C55.1557 174.508 55.6148 174.107 56.0117 173.648C57.0589 172.413 57.9693 171.069 58.727 169.639C58.7605 169.581 58.7939 169.524 58.8242 169.466C59.8387 167.604 60.51 166.016 60.51 166.016C60.51 166.016 63.3651 166.927 65.1996 168.227C65.3485 168.33 65.4882 168.436 65.6218 168.546C66.6454 169.384 67.1557 170.368 66.2111 171.327C65.9684 171.578 65.7441 171.846 65.5398 172.129V172.129C65.3873 172.339 65.2473 172.558 65.1207 172.785C65.066 172.888 65.0113 172.989 64.9627 173.089C64.3307 174.381 64.1122 175.837 64.337 177.258L70.8279 186.247V189.685Z" fill="#FFD4D6"/>
<path d="M70.8035 162.32C70.9878 162.783 71.0474 163.285 70.9767 163.778C70.9174 164.557 70.9686 165.34 71.1285 166.104C71.2895 166.79 71.5902 167.452 71.6145 168.157C71.6479 169.15 71.1316 170.07 70.6334 170.929C71.1804 170.913 71.6965 170.672 72.061 170.264C72.195 170.709 72.0969 171.192 71.7998 171.549C72.6168 171.51 73.3185 170.866 73.6222 170.113C73.8994 169.334 73.9797 168.5 73.8561 167.683C73.7371 166.874 73.6782 166.057 73.6799 165.239C73.7364 164.797 73.7597 164.351 73.7498 163.905C73.6738 163.022 73.1423 162.253 72.6077 161.537L71.5507 160.085C71.4773 159.966 71.3721 159.871 71.247 159.809C70.2477 159.384 70.1323 161.224 70.4117 161.728C70.5302 161.935 70.6942 162.111 70.8035 162.32Z" fill="#464353"/>
<path opacity="0.1" d="M65.558 172.129V172.129C65.4055 172.339 65.2655 172.558 65.1389 172.785C65.0842 172.888 65.0295 172.988 64.9809 173.088C62.543 172.952 60.2928 171.736 58.8424 169.772C58.809 169.727 58.7756 169.681 58.7452 169.633C58.7787 169.575 58.8121 169.517 58.8424 169.46C59.8569 167.598 60.5282 166.01 60.5282 166.01C60.5282 166.01 63.3833 166.921 65.2178 168.221C65.3667 168.324 65.5064 168.43 65.64 168.539C66.6515 169.384 67.1617 170.355 66.2293 171.327C65.9866 171.578 65.7623 171.846 65.558 172.129Z" fill="black"/>
<path d="M66.9188 172.66C66.4277 172.749 65.9296 172.794 65.4305 172.794H65.3941C65.306 172.794 65.2149 172.794 65.1268 172.794C60.6409 172.628 57.1223 168.886 57.2321 164.4C57.3419 159.913 61.0394 156.348 65.528 156.401C70.0167 156.455 73.6283 160.106 73.6313 164.595H73.6344C73.6353 168.551 70.8105 171.944 66.9188 172.66Z" fill="#FFD4D6"/>
<path opacity="0.1" d="M69.5795 185.233L64.1882 177.264V177.264L70.3084 185.126C70.3084 185.126 74.2145 190.492 72.0792 194.188C72.0792 194.188 71.7755 197.261 72.1309 197.99C72.4862 198.719 72.0276 206.493 72.0276 206.493C72.0276 206.493 70.5666 205.139 69.786 205.397C69.0054 205.655 63.4957 206.117 63.4957 206.117L66.5057 184.868C66.5057 184.868 70.6365 187.197 69.5795 185.233Z" fill="black"/>
<path opacity="0.1" d="M71.5841 206.305C71.0891 205.947 70.3996 205.546 69.9409 205.698C69.1603 205.959 63.6415 206.429 63.6415 206.429L63.8936 204.635L71.6601 204.866L71.5841 206.305Z" fill="black"/>
<path d="M69.7344 185.233L64.3431 177.264V177.264L70.4634 185.126C70.4634 185.126 74.3694 190.492 72.2341 194.188C72.2341 194.188 71.9304 197.261 72.2858 197.99C72.6411 198.719 72.1825 206.493 72.1825 206.493C72.1825 206.493 70.7246 205.139 69.944 205.397C69.1634 205.655 63.6415 206.129 63.6415 206.129L66.6606 184.868C66.6606 184.868 70.7944 187.197 69.7344 185.233Z" fill="#464353"/>
<path opacity="0.1" d="M67.5991 194.346C67.5991 194.346 66.8702 201.741 65.9256 203.939C64.9809 206.138 65.4031 209.147 64.8837 214.72C64.6954 216.727 64.0485 218.106 63.1767 219.035C61.7431 220.554 59.6959 220.885 58.0801 220.79L57.6974 220.76C55.0913 220.502 52.5916 207.951 52.5916 207.951C52.5916 207.951 51.3949 197.274 51.8626 195.804C52.3304 194.334 51.4009 186.022 51.0881 184.2C50.8876 183.043 51.486 181.164 51.9477 179.931C52.218 179.22 52.4397 178.716 52.4397 178.716C52.4397 178.716 53.3266 175.904 54.7846 174.446C55.1907 174.029 55.7485 173.795 56.3306 173.796C57.016 173.824 57.6816 174.034 58.2593 174.404C58.2827 174.417 58.305 174.432 58.3261 174.449C58.3261 174.449 67.8087 184.137 68.6926 186.375C68.9386 187.003 68.9629 187.896 68.8687 188.862C68.6288 191.367 67.5991 194.346 67.5991 194.346Z" fill="black"/>
<path d="M67.2863 194.188C67.2863 194.188 66.5574 201.586 65.6188 203.772C64.6803 205.959 65.0994 208.98 64.577 214.553C64.3887 216.557 63.7417 217.936 62.87 218.868C61.4364 220.387 59.3892 220.714 57.7733 220.623L57.3906 220.593C54.7846 220.332 52.2849 207.781 52.2849 207.781C52.2849 207.781 51.0881 197.107 51.5559 195.649C52.0236 194.191 51.0881 185.858 50.7753 184.033C50.5748 182.879 51.1732 180.997 51.6349 179.764C51.9052 179.053 52.1269 178.564 52.1269 178.564C52.1269 178.564 53.0138 175.752 54.4717 174.294C54.8768 173.876 55.4356 173.642 56.0178 173.648C56.7037 173.672 57.3702 173.882 57.9465 174.255L58.0133 174.297C58.0133 174.297 67.4959 183.985 68.3798 186.223C68.6258 186.845 68.6592 187.741 68.559 188.707C68.316 191.209 67.2863 194.188 67.2863 194.188Z" fill="#FF748E"/>
<path opacity="0.1" d="M55.0458 228.653C54.3047 228.562 57.9373 226.831 57.9373 226.831C57.9373 226.831 55.7869 228.744 55.0458 228.653Z" fill="black"/>
<path opacity="0.1" d="M55.5651 229.882C54.8878 230.046 57.6336 228.397 58.5083 228.668C58.5083 228.668 56.2425 229.718 55.5651 229.882Z" fill="black"/>
<path opacity="0.1" d="M71.1407 201.012C71.648 202.065 68.3555 199.487 67.2742 199.918C67.2742 199.918 70.6335 199.958 71.1407 201.012Z" fill="black"/>
<path opacity="0.1" d="M70.1627 202.925C70.9433 203.551 66.8033 201.753 66.8033 201.753C66.8033 201.753 69.3821 202.3 70.1627 202.925Z" fill="black"/>
<path opacity="0.1" d="M61.0051 207.34C59.8448 208.71 62.4691 195.388 62.4691 195.388C62.4691 195.388 62.1653 205.971 61.0051 207.34Z" fill="black"/>
<path opacity="0.1" d="M61.7462 235.218C66.0714 235.795 64.735 224.589 64.735 224.589L59.5775 225.306C59.5775 225.306 57.421 234.641 61.7462 235.218Z" fill="black"/>
<path d="M61.5912 235.069C65.9073 235.652 64.577 224.44 64.577 224.44L59.4195 225.151C59.4195 225.151 57.2752 234.486 61.5912 235.069Z" fill="#FFD4D6"/>
<path opacity="0.1" d="M73.279 163.122C72.705 161.926 71.2288 162.515 70.1475 163.083L69.5704 163.827C69.3071 164.135 69.0855 164.477 68.9113 164.844C68.8005 165.142 68.7081 165.446 68.6349 165.755C68.4861 166.283 68.2674 166.787 68.07 167.304C67.4151 169.02 67.0269 170.827 66.9188 172.661C66.4277 172.75 65.9296 172.795 65.4305 172.794H65.3941V172.758C65.4487 172.551 65.4943 172.342 65.5368 172.132V172.132C65.7629 170.951 65.7906 169.74 65.6188 168.549C65.6188 168.521 65.6188 168.497 65.6188 168.47C65.5793 168.206 65.5277 167.938 65.5064 167.674C65.4062 167.856 65.309 168.042 65.2027 168.23C64.5497 169.445 63.8632 170.659 62.6301 171.191C62.1296 171.387 61.6021 171.506 61.0658 171.543C60.4038 171.578 59.7477 171.687 59.1098 171.868C58.8923 171.927 58.6956 172.046 58.5418 172.211C58.3701 172.465 58.2713 172.761 58.2563 173.068C58.1904 173.472 58.0888 173.869 57.9525 174.255C57.3948 175.696 56.5233 176.995 55.4012 178.057L55.1187 178.33C54.6376 178.827 54.0639 179.224 53.4299 179.499C52.854 179.693 52.2483 179.783 51.6409 179.767C51.9113 179.056 52.133 178.567 52.133 178.567C52.133 178.567 53.0199 175.755 54.4778 174.297C54.8828 173.879 55.4416 173.645 56.0238 173.651C57.1121 172.364 58.0553 170.962 58.8364 169.469C56.7905 166.693 56.6999 162.935 58.6096 160.064C60.5193 157.193 64.0214 155.823 67.3725 156.637C70.7237 157.45 73.208 160.272 73.5888 163.699L73.5827 163.69C73.4624 163.511 73.3607 163.321 73.279 163.122Z" fill="black"/>
<path d="M72.2827 156.122C72.0502 156.034 71.8457 155.885 71.6904 155.691C71.5771 155.459 71.515 155.205 71.5082 154.947C71.2804 153.362 69.8043 152.266 68.3372 151.622C66.448 150.793 64.1791 150.438 62.3658 151.421C61.485 151.901 60.7894 152.651 59.9936 153.262C58.9852 154.033 57.8249 154.574 56.7497 155.248C55.6745 155.922 54.6479 156.766 54.1376 157.938C53.3479 159.73 53.9402 161.786 54.0404 163.742C54.1953 166.827 52.9409 170.049 50.4503 171.874C50.1502 172.058 49.8832 172.291 49.6605 172.563C49.4376 172.845 49.4122 173.236 49.5968 173.544C49.7213 173.714 49.9278 173.812 50.0645 173.969C50.35 174.294 50.2923 174.789 50.1799 175.208C49.8202 176.562 49.1001 177.793 48.0963 178.771C48.1388 179.092 48.5276 179.217 48.8465 179.266C49.6902 179.391 50.542 179.453 51.3949 179.451C52.7427 179.561 54.0635 179.029 54.9577 178.014C56.4764 176.587 57.7612 174.805 58.1044 172.752C58.1223 172.446 58.2208 172.151 58.3899 171.895C58.5459 171.733 58.7418 171.615 58.9579 171.552C60.0908 171.163 61.3878 171.355 62.4782 170.875C63.8996 170.268 64.6043 168.749 65.3485 167.358C65.3728 167.623 65.4214 167.89 65.4639 168.157C65.6808 169.586 65.6085 171.044 65.2513 172.445C65.0478 173.238 64.7531 174.027 64.7744 174.844C64.7896 175.451 65.4062 178.625 66.2171 177.674C67.0281 176.724 66.7305 174.622 66.7305 173.444C66.7314 171.238 67.1359 169.051 67.9241 166.991C68.1185 166.478 68.3403 165.971 68.4891 165.442C68.5627 165.134 68.654 164.829 68.7624 164.531C68.9388 164.165 69.1613 163.823 69.4246 163.514L70.0047 162.77C71.086 162.196 72.5622 161.613 73.1362 162.809C73.3549 163.268 73.4734 163.775 74.0474 163.329C74.3846 163.064 74.4939 162.545 74.582 162.15C74.9434 160.495 75.2411 158.549 74.1051 157.291C73.6192 156.751 72.9358 156.435 72.2827 156.122Z" fill="#464353"/>
<path opacity="0.1" d="M53.2082 184.498C53.1933 184.533 53.1812 184.57 53.1718 184.607C51.972 188.2 52.4944 197.298 52.4944 197.298C52.4944 197.298 52.6493 203.408 53.2234 205.439C53.7974 207.471 55.4103 213.302 55.4103 214.246C55.4103 215.19 56.9077 218.777 57.5364 219.038C58.1652 219.299 58.4841 221.328 58.639 221.692C58.7939 222.057 59.2465 226.797 59.2465 226.797C59.2465 226.797 65.1328 226.433 65.2361 225.494C65.3394 224.556 63.9331 219.973 63.9331 219.973C63.9331 219.973 62.8974 218.1 62.7637 216.59C62.6301 215.081 61.8161 214.395 61.977 213.353C62.138 212.312 61.5062 211.792 61.5062 211.115C61.5062 210.438 61.0385 208.616 61.0385 208.616C61.0385 208.616 60.0483 207.832 60.2063 206.897C60.3642 205.962 58.8 204.085 59.2161 203.408C59.6322 202.731 59.7355 201.063 59.7355 201.063C59.7355 201.063 60.2579 193.566 60.6224 191.534C60.9869 189.502 63.1221 186.223 63.1221 186.223C63.1221 186.223 63.1191 186.129 63.113 185.962C62.8913 180.353 55.0397 179.193 53.2082 184.498Z" fill="black"/>
<path opacity="0.1" d="M57.7733 220.623C57.585 219.913 57.3116 219.038 56.9137 218.874C56.282 218.613 54.7876 215.02 54.7876 214.085C54.7876 213.15 53.1748 207.313 52.6007 205.278C52.0267 203.244 51.8717 197.14 51.8717 197.14C51.8717 197.14 51.3493 188.03 52.5491 184.446C52.5491 184.413 52.5703 184.376 52.5855 184.34C54.4079 179.032 62.2686 180.195 62.4903 185.804C62.4903 185.971 62.4903 186.062 62.4903 186.062C62.4903 186.062 60.3642 189.341 59.9906 191.373C59.617 193.405 59.1098 200.902 59.1098 200.902C59.1098 200.902 59.0034 202.57 58.5873 203.247C58.1712 203.924 59.7324 205.801 59.5775 206.736C59.4226 207.671 60.4097 208.455 60.4097 208.455C60.4097 208.455 60.8775 210.277 60.8775 210.957C60.8775 211.637 61.5032 212.154 61.3483 213.195C61.1934 214.237 62.0256 214.914 62.1593 216.423C62.2708 217.27 62.5105 218.094 62.87 218.868V218.868C61.4364 220.386 59.3892 220.714 57.7733 220.623Z" fill="black"/>
<path d="M52.8953 184.343L52.8589 184.449C51.6591 188.045 52.1816 197.143 52.1816 197.143C52.1816 197.143 52.3365 203.25 52.9105 205.282C53.4846 207.313 55.0974 213.147 55.0974 214.088C55.0974 215.03 56.5948 218.619 57.2236 218.88C57.8523 219.141 58.1712 221.173 58.3261 221.537C58.481 221.902 58.9336 226.639 58.9336 226.639C58.9336 226.639 64.82 226.275 64.9232 225.339C65.0265 224.404 63.6233 219.819 63.6233 219.819C63.6233 219.819 62.5845 217.942 62.4508 216.433C62.3172 214.923 61.485 214.246 61.6429 213.204C61.8008 212.163 61.1721 211.641 61.1721 210.963C61.1721 210.286 60.7044 208.464 60.7044 208.464C60.7044 208.464 59.7142 207.684 59.8721 206.745C60.0301 205.807 58.4658 203.933 58.882 203.256C59.2981 202.579 59.4013 200.915 59.4013 200.915C59.4013 200.915 59.9238 193.414 60.2882 191.382C60.6527 189.351 62.788 186.071 62.788 186.071C62.788 186.071 62.8062 185.974 62.8001 185.807C62.5784 180.198 54.7269 179.038 52.8953 184.343Z" fill="#FF748E"/>
<path opacity="0.1" d="M57.1932 197.966C58.1287 199.138 53.1323 200.231 53.1323 200.231C53.2872 200.073 56.2577 196.794 57.1932 197.966Z" fill="black"/>
<path opacity="0.1" d="M57.0777 200.948C57.7824 199.36 53.4056 202.77 53.4056 202.77C53.521 202.652 56.3731 202.536 57.0777 200.948Z" fill="black"/>
<path d="M50.3106 174.252C50.4269 173.893 50.3697 173.5 50.1557 173.189C50.0159 173.028 49.8124 172.934 49.6849 172.764C49.6849 172.764 49.6697 172.736 49.6606 172.721C49.5171 172.979 49.5264 173.295 49.6849 173.544C49.8276 173.714 50.0159 173.811 50.1557 173.969C50.2258 174.052 50.2785 174.148 50.3106 174.252Z" fill="black"/>
<path d="M54.1315 162.967C54.0768 161.904 53.8794 160.814 53.8278 159.748C53.764 161.054 54.0556 162.423 54.1315 163.747C54.1315 163.778 54.1285 163.811 54.1315 163.854C54.1315 163.55 54.1315 163.246 54.1315 162.967Z" fill="black"/>
<path d="M64.8898 174.34C64.8701 174.507 64.861 174.676 64.8625 174.844C64.8807 175.451 65.4942 178.625 66.3052 177.674C66.855 177.03 66.9127 175.934 66.8762 174.923C66.8367 175.697 66.7152 176.414 66.3052 176.894C65.5823 177.741 65.0143 175.303 64.8898 174.34Z" fill="black"/>
<path d="M65.6643 169.39C65.6907 168.716 65.6531 168.04 65.552 167.373C65.5125 167.109 65.4608 166.842 65.4365 166.575C64.6863 167.978 63.9908 169.478 62.5693 170.094C61.4667 170.571 60.1819 170.383 59.049 170.772C58.8315 170.831 58.6348 170.95 58.481 171.115C58.3101 171.369 58.2115 171.665 58.1955 171.971C57.8492 174.024 56.5614 175.806 55.0458 177.234C54.1516 178.248 52.8308 178.781 51.4829 178.67C50.6311 178.671 49.7804 178.609 48.9376 178.485C48.807 178.465 48.6787 178.431 48.5549 178.385C48.4365 178.518 48.312 178.646 48.1844 178.77C48.2269 179.092 48.6187 179.217 48.9376 179.265C49.7802 179.391 50.6311 179.453 51.4829 179.451C52.8308 179.561 54.1516 179.029 55.0458 178.014C56.5644 176.587 57.8492 174.804 58.1955 172.752C58.2119 172.446 58.3105 172.15 58.481 171.895C58.636 171.732 58.8322 171.613 59.049 171.552C60.1819 171.163 61.4789 171.355 62.5693 170.875C63.9908 170.267 64.6954 168.749 65.4365 167.358C65.4608 167.622 65.5125 167.89 65.552 168.157C65.6138 168.565 65.6513 168.977 65.6643 169.39Z" fill="black"/>
<path d="M74.1325 162.548C73.5615 162.991 73.446 162.487 73.2213 162.029C72.6472 160.832 71.1711 161.421 70.0898 161.989L69.5096 162.733C69.2463 163.042 69.0247 163.384 68.8505 163.75C68.7393 164.048 68.648 164.352 68.5772 164.661C68.4253 165.19 68.2066 165.694 68.0092 166.207C67.224 168.268 66.8205 170.455 66.8185 172.66C66.8185 172.76 66.8185 172.87 66.8185 172.982C66.8726 170.932 67.2742 168.906 68.0061 166.991C68.2036 166.477 68.4223 165.97 68.5741 165.442C68.6449 165.132 68.7363 164.828 68.8475 164.531C69.0217 164.164 69.2433 163.822 69.5066 163.514L70.0867 162.77C71.168 162.196 72.6442 161.612 73.2182 162.809C73.44 163.268 73.5554 163.775 74.1294 163.328C74.4666 163.064 74.579 162.545 74.6671 162.15C74.8961 161.235 74.9983 160.293 74.9708 159.35C74.9221 160.03 74.8216 160.705 74.6701 161.37V161.37C74.582 161.764 74.4696 162.281 74.1325 162.548Z" fill="black"/>
<path d="M81.9354 191.045C81.79 190.948 81.69 190.797 81.6585 190.625C81.627 190.453 81.6667 190.276 81.7684 190.134L89.0094 179.645C89.1059 179.504 89.2549 179.407 89.4232 179.376C89.5915 179.345 89.7651 179.383 89.9054 179.481L89.7445 179.369C90.2146 179.693 90.3329 180.338 90.0087 180.808L83.2142 190.669C82.8893 191.138 82.2462 191.258 81.7744 190.936V190.936L81.9354 191.045Z" fill="#464353"/>
<path d="M89.9447 179.493L81.9742 191.062L81.8516 190.977C81.6112 190.812 81.5506 190.483 81.7162 190.243L89.0854 179.546C89.251 179.306 89.5801 179.245 89.8204 179.411L89.8222 179.408L89.9447 179.493Z" fill="#9F9EFF"/>
<path d="M88.9268 180.989C88.9502 181.005 88.9562 181.038 88.94 181.061L88.349 181.919C88.3328 181.942 88.3007 181.948 88.2772 181.932L88.2547 181.917C88.2312 181.9 88.2253 181.868 88.2415 181.845L88.8324 180.987C88.8486 180.964 88.8808 180.958 88.9043 180.974L88.9268 180.989Z" fill="#464353"/>
</g>
<defs>
<linearGradient id="paint0_linear_12_2" x1="122.631" y1="288.935" x2="122.631" y2="149.626" gradientUnits="userSpaceOnUse">
<stop stop-color="#808080" stop-opacity="0.25"/>
<stop offset="0.54" stop-color="#808080" stop-opacity="0.12"/>
<stop offset="1" stop-color="#808080" stop-opacity="0.1"/>
</linearGradient>
<clipPath id="clip0_12_2">
<rect width="230.461" height="243.253" fill="white" transform="translate(69.7941 57.9404)"/>
</clipPath>
<clipPath id="clip1_12_2">
<rect width="55.6057" height="56.1373" fill="white" transform="translate(227.199 148.807)"/>
</clipPath>
<clipPath id="clip2_12_2">
<rect width="151.412" height="8.16588" fill="white" transform="translate(79.465 59.8203)"/>
</clipPath>
<clipPath id="clip3_12_2">
<rect width="97.3623" height="3.81115" fill="white" transform="translate(106.488 80.458)"/>
</clipPath>
<clipPath id="clip4_12_2">
<rect width="61.2694" height="43.8783" fill="white" transform="translate(92.5348 158.342)"/>
</clipPath>
<clipPath id="clip5_12_2">
<rect width="61.2694" height="43.8783" fill="white" transform="translate(92.5348 101.424)"/>
</clipPath>
<clipPath id="clip6_12_2">
<rect width="61.2694" height="43.8783" fill="white" transform="translate(92.5348 214.52)"/>
</clipPath>
<clipPath id="clip7_12_2">
<rect width="61.2694" height="43.8783" fill="white" transform="translate(156.538 158.342)"/>
</clipPath>
<clipPath id="clip8_12_2">
<rect width="61.2694" height="43.8783" fill="white" transform="translate(156.538 101.424)"/>
</clipPath>
<clipPath id="clip9_12_2">
<rect width="61.2694" height="43.8783" fill="white" transform="translate(156.538 214.52)"/>
</clipPath>
<clipPath id="clip10_12_2">
<rect width="45.3173" height="39.3414" fill="white" transform="translate(254.938 261.852)"/>
</clipPath>
<clipPath id="clip11_12_2">
<rect width="38.345" height="33.035" fill="white" transform="translate(103.99 106.841)"/>
</clipPath>
<clipPath id="clip12_12_2">
<rect width="39.6192" height="35.4966" fill="white" transform="translate(167.363 162.533)"/>
</clipPath>
<clipPath id="clip13_12_2">
<rect width="20.0199" height="34.6931" fill="white" transform="translate(113.15 162.183)"/>
</clipPath>
<clipPath id="clip14_12_2">
<rect width="23.9888" height="37.1623" fill="white" transform="translate(175.182 217.882)"/>
</clipPath>
<clipPath id="clip15_12_2">
<rect width="82.458" height="146.341" fill="white" transform="translate(14.9649 149.54)"/>
</clipPath>
</defs>
</svg>
