<svg width="308" height="334" viewBox="0 0 308 334" fill="none" xmlns="http://www.w3.org/2000/svg">
<rect width="307" height="334" rx="8" fill="white"/>
<path opacity="0.3" d="M307.219 287.96C307.219 280.228 239.614 273.96 156.219 273.96C72.8239 273.96 5.21887 280.228 5.21887 287.96C5.21887 295.692 72.8239 301.96 156.219 301.96C239.614 301.96 307.219 295.692 307.219 287.96Z" fill="white"/>
<path fill-rule="evenodd" clip-rule="evenodd" d="M238.95 223.715C238.688 223.152 238.348 222.328 237.878 221.376C236.954 219.462 235.622 216.97 234.191 214.535C232.753 212.103 231.219 209.729 229.99 207.994C229.385 207.122 228.826 206.426 228.461 205.924C228.084 205.43 227.85 205.157 227.85 205.157C227.85 205.157 227.977 205.492 228.226 206.062C228.489 206.624 228.826 207.449 229.298 208.401C230.219 210.316 231.555 212.806 232.985 215.242C234.424 217.672 235.96 220.046 237.188 221.78C237.794 222.653 238.35 223.35 238.716 223.852C239.094 224.346 239.326 224.619 239.326 224.619C239.326 224.619 239.2 224.284 238.95 223.715Z" fill="#F3F8FF"/>
<path fill-rule="evenodd" clip-rule="evenodd" d="M245.66 212.001C245.339 211.346 244.917 210.387 244.348 209.274C243.227 207.039 241.629 204.117 239.937 201.253C238.235 198.394 236.437 195.592 235.011 193.537C234.307 192.503 233.667 191.674 233.243 191.078C232.808 190.49 232.543 190.164 232.543 190.164C232.543 190.164 232.701 190.553 233.01 191.216C233.329 191.873 233.75 192.832 234.319 193.945C235.44 196.181 237.039 199.101 238.732 201.964C240.435 204.824 242.234 207.625 243.66 209.681C244.364 210.714 245.003 211.544 245.427 212.139C245.861 212.728 246.126 213.054 246.126 213.054C246.126 213.054 245.967 212.665 245.66 212.001Z" fill="#F3F8FF"/>
<path fill-rule="evenodd" clip-rule="evenodd" d="M252.551 200.585C252.289 200.023 251.949 199.199 251.479 198.247C250.556 196.333 249.223 193.84 247.792 191.405C246.354 188.974 244.82 186.6 243.591 184.865C242.986 183.992 242.428 183.297 242.062 182.795C241.685 182.3 241.452 182.027 241.452 182.027C241.452 182.027 241.578 182.363 241.828 182.933C242.09 183.495 242.428 184.32 242.899 185.272C243.821 187.186 245.157 189.677 246.587 192.113C248.025 194.543 249.561 196.916 250.789 198.651C251.395 199.523 251.952 200.22 252.317 200.722C252.695 201.217 252.927 201.49 252.927 201.49C252.927 201.49 252.801 201.154 252.551 200.585Z" fill="#F3F8FF"/>
<path fill-rule="evenodd" clip-rule="evenodd" d="M258.687 187.371C258.008 185.871 257 183.931 255.896 182.049C254.783 180.17 253.575 178.348 252.59 177.027C251.615 175.701 250.858 174.88 250.858 174.88C250.858 174.88 251.21 175.939 251.897 177.434C252.575 178.934 253.585 180.874 254.689 182.756C255.803 184.633 257.013 186.455 257.997 187.776C258.971 189.102 259.728 189.924 259.728 189.924C259.728 189.924 259.375 188.865 258.687 187.371Z" fill="#F3F8FF"/>
<path fill-rule="evenodd" clip-rule="evenodd" d="M238.294 228.177C238.912 228.251 239.793 228.396 240.852 228.497C242.97 228.72 245.796 228.899 248.625 228.966C251.453 229.024 254.284 228.971 256.41 228.84C257.472 228.785 258.358 228.677 258.979 228.631C259.599 228.571 259.955 228.516 259.955 228.516C259.955 228.516 259.602 228.447 258.985 228.359C258.367 228.286 257.486 228.139 256.427 228.038C254.309 227.814 251.484 227.637 248.655 227.571C245.826 227.514 242.995 227.569 240.87 227.7C239.807 227.755 238.921 227.861 238.3 227.907C237.68 227.968 237.325 228.021 237.325 228.021C237.325 228.021 237.677 228.091 238.294 228.177Z" fill="#F3F8FF"/>
<path fill-rule="evenodd" clip-rule="evenodd" d="M242.608 255.615C242.957 256.129 243.424 256.888 244.041 257.753C245.26 259.495 246.976 261.742 248.778 263.917C250.588 266.087 252.482 268.186 253.974 269.702C254.712 270.467 255.375 271.065 255.815 271.502C256.268 271.93 256.541 272.161 256.541 272.161C256.541 272.161 256.364 271.85 256.026 271.329C255.676 270.814 255.21 270.055 254.593 269.191C253.375 267.448 251.657 265.202 249.855 263.027C248.044 260.857 246.148 258.76 244.657 257.244C243.919 256.479 243.258 255.88 242.816 255.442C242.364 255.015 242.091 254.782 242.091 254.782C242.091 254.782 242.27 255.094 242.608 255.615Z" fill="#F3F8FF"/>
<path fill-rule="evenodd" clip-rule="evenodd" d="M255.93 253.299C256.347 253.898 256.912 254.78 257.648 255.792C259.101 257.828 261.131 260.467 263.248 263.037C265.372 265.598 267.582 268.09 269.31 269.901C270.165 270.814 270.927 271.535 271.436 272.058C271.958 272.572 272.271 272.854 272.271 272.854C272.271 272.854 272.053 272.493 271.647 271.885C271.23 271.285 270.664 270.403 269.93 269.392C268.476 267.354 266.446 264.717 264.327 262.148C262.202 259.586 259.992 257.095 258.264 255.284C257.409 254.372 256.649 253.651 256.138 253.127C255.618 252.614 255.305 252.331 255.305 252.331C255.305 252.331 255.523 252.691 255.93 253.299Z" fill="#F3F8FF"/>
<path fill-rule="evenodd" clip-rule="evenodd" d="M231.521 247.924C231.461 247.306 231.416 246.417 231.289 245.363C231.058 243.252 230.632 240.459 230.096 237.688C229.551 234.918 228.896 232.17 228.317 230.126C228.037 229.101 227.743 228.26 227.566 227.666C227.375 227.073 227.245 226.739 227.245 226.739C227.245 226.739 227.253 227.097 227.299 227.717C227.358 228.336 227.401 229.225 227.528 230.279C227.758 232.391 228.186 235.183 228.723 237.954C229.269 240.723 229.925 243.472 230.505 245.515C230.785 246.539 231.077 247.381 231.254 247.976C231.446 248.567 231.573 248.902 231.573 248.902C231.573 248.902 231.566 248.544 231.521 247.924Z" fill="#F3F8FF"/>
<path fill-rule="evenodd" clip-rule="evenodd" d="M241.755 239.107C241.673 238.382 241.594 237.338 241.429 236.1C241.119 233.619 240.586 230.334 239.945 227.071C239.295 223.81 238.534 220.57 237.876 218.159C237.556 216.951 237.229 215.956 237.029 215.253C236.814 214.555 236.673 214.159 236.673 214.159C236.673 214.159 236.693 214.579 236.762 215.307C236.843 216.031 236.921 217.076 237.087 218.314C237.397 220.795 237.931 224.079 238.573 227.342C239.224 230.603 239.985 233.842 240.645 236.255C240.964 237.462 241.289 238.457 241.49 239.16C241.704 239.859 241.844 240.254 241.844 240.254C241.844 240.254 241.824 239.834 241.755 239.107Z" fill="#F3F8FF"/>
<path fill-rule="evenodd" clip-rule="evenodd" d="M252.064 230.629C252.003 230.011 251.959 229.122 251.832 228.068C251.601 225.956 251.175 223.164 250.639 220.392C250.094 217.623 249.439 214.875 248.859 212.831C248.58 211.806 248.286 210.966 248.109 210.371C247.918 209.778 247.788 209.444 247.788 209.444C247.788 209.444 247.796 209.802 247.841 210.422C247.901 211.041 247.944 211.93 248.071 212.984C248.301 215.096 248.729 217.888 249.266 220.659C249.812 223.428 250.468 226.177 251.048 228.22C251.328 229.244 251.621 230.086 251.797 230.681C251.989 231.273 252.116 231.607 252.116 231.607C252.116 231.607 252.109 231.249 252.064 230.629Z" fill="#F3F8FF"/>
<path fill-rule="evenodd" clip-rule="evenodd" d="M229.413 251.915C229.971 252.19 230.754 252.619 231.719 253.066C233.641 253.98 236.247 255.087 238.891 256.089C241.54 257.082 244.227 257.972 246.275 258.554C247.295 258.856 248.167 259.048 248.767 259.21C249.372 259.359 249.725 259.426 249.725 259.426C249.725 259.426 249.416 259.244 248.864 258.956C248.306 258.682 247.524 258.251 246.56 257.804C244.637 256.89 242.031 255.785 239.386 254.783C236.737 253.791 234.049 252.903 232.002 252.319C230.981 252.019 230.11 251.825 229.509 251.663C228.904 251.513 228.552 251.446 228.552 251.446C228.552 251.446 228.861 251.629 229.413 251.915Z" fill="#F3F8FF"/>
<path fill-rule="evenodd" clip-rule="evenodd" d="M238.95 223.715C238.688 223.152 238.348 222.328 237.878 221.376C236.954 219.462 235.622 216.97 234.191 214.535C232.753 212.103 231.219 209.729 229.99 207.994C229.385 207.122 228.826 206.426 228.461 205.924C228.084 205.43 227.85 205.157 227.85 205.157C227.85 205.157 227.977 205.492 228.226 206.062C228.489 206.624 228.826 207.449 229.298 208.401C230.219 210.316 231.555 212.806 232.985 215.242C234.424 217.672 235.96 220.046 237.188 221.78C237.794 222.653 238.35 223.35 238.716 223.852C239.094 224.346 239.326 224.619 239.326 224.619C239.326 224.619 239.2 224.284 238.95 223.715Z" fill="#F3F8FF"/>
<path fill-rule="evenodd" clip-rule="evenodd" d="M245.66 212.001C245.339 211.346 244.917 210.387 244.348 209.274C243.227 207.039 241.629 204.117 239.937 201.253C238.235 198.394 236.437 195.592 235.011 193.537C234.307 192.503 233.667 191.674 233.243 191.078C232.808 190.49 232.543 190.164 232.543 190.164C232.543 190.164 232.701 190.553 233.01 191.216C233.329 191.873 233.75 192.832 234.319 193.945C235.44 196.181 237.039 199.101 238.732 201.964C240.435 204.824 242.234 207.625 243.66 209.681C244.364 210.714 245.003 211.544 245.427 212.139C245.861 212.728 246.126 213.054 246.126 213.054C246.126 213.054 245.967 212.665 245.66 212.001Z" fill="#F3F8FF"/>
<path fill-rule="evenodd" clip-rule="evenodd" d="M252.551 200.585C252.289 200.023 251.949 199.199 251.479 198.247C250.556 196.333 249.223 193.84 247.792 191.405C246.354 188.974 244.82 186.6 243.591 184.865C242.986 183.992 242.428 183.297 242.062 182.795C241.685 182.3 241.452 182.027 241.452 182.027C241.452 182.027 241.578 182.363 241.828 182.933C242.09 183.495 242.428 184.32 242.899 185.272C243.821 187.186 245.157 189.677 246.587 192.113C248.025 194.543 249.561 196.916 250.789 198.651C251.395 199.523 251.952 200.22 252.317 200.722C252.695 201.217 252.927 201.49 252.927 201.49C252.927 201.49 252.801 201.154 252.551 200.585Z" fill="#F3F8FF"/>
<path fill-rule="evenodd" clip-rule="evenodd" d="M238.294 228.177C238.912 228.251 239.793 228.396 240.852 228.497C242.97 228.72 245.796 228.899 248.625 228.966C251.453 229.024 254.284 228.971 256.41 228.84C257.472 228.785 258.358 228.677 258.979 228.631C259.599 228.571 259.955 228.516 259.955 228.516C259.955 228.516 259.602 228.447 258.985 228.359C258.367 228.286 257.486 228.139 256.427 228.038C254.309 227.814 251.484 227.637 248.655 227.571C245.826 227.514 242.995 227.569 240.87 227.7C239.807 227.755 238.921 227.861 238.3 227.907C237.68 227.968 237.325 228.021 237.325 228.021C237.325 228.021 237.677 228.091 238.294 228.177Z" fill="#F3F8FF"/>
<path fill-rule="evenodd" clip-rule="evenodd" d="M242.608 255.615C242.957 256.129 243.424 256.888 244.041 257.753C245.26 259.495 246.976 261.742 248.778 263.917C250.588 266.087 252.482 268.186 253.974 269.702C254.712 270.467 255.375 271.065 255.815 271.502C256.268 271.93 256.541 272.161 256.541 272.161C256.541 272.161 256.364 271.85 256.026 271.329C255.676 270.814 255.21 270.055 254.593 269.191C253.375 267.448 251.657 265.202 249.855 263.027C248.044 260.857 246.148 258.76 244.657 257.244C243.919 256.479 243.258 255.88 242.816 255.442C242.364 255.015 242.091 254.782 242.091 254.782C242.091 254.782 242.27 255.094 242.608 255.615Z" fill="#F3F8FF"/>
<path fill-rule="evenodd" clip-rule="evenodd" d="M255.93 253.299C256.347 253.898 256.912 254.78 257.648 255.792C259.101 257.828 261.131 260.467 263.248 263.037C265.372 265.598 267.582 268.09 269.31 269.901C270.165 270.814 270.927 271.535 271.436 272.058C271.958 272.572 272.271 272.854 272.271 272.854C272.271 272.854 272.053 272.493 271.647 271.885C271.23 271.285 270.664 270.403 269.93 269.392C268.476 267.354 266.446 264.717 264.327 262.148C262.202 259.586 259.992 257.095 258.264 255.284C257.409 254.372 256.649 253.651 256.138 253.127C255.618 252.614 255.305 252.331 255.305 252.331C255.305 252.331 255.523 252.691 255.93 253.299Z" fill="#F3F8FF"/>
<path fill-rule="evenodd" clip-rule="evenodd" d="M231.521 247.924C231.461 247.306 231.416 246.417 231.289 245.363C231.058 243.252 230.632 240.459 230.096 237.688C229.551 234.918 228.896 232.17 228.317 230.126C228.037 229.101 227.743 228.26 227.566 227.666C227.375 227.073 227.245 226.739 227.245 226.739C227.245 226.739 227.253 227.097 227.299 227.717C227.358 228.336 227.401 229.225 227.528 230.279C227.758 232.391 228.186 235.183 228.723 237.954C229.269 240.723 229.925 243.472 230.505 245.515C230.785 246.539 231.077 247.381 231.254 247.976C231.446 248.567 231.573 248.902 231.573 248.902C231.573 248.902 231.566 248.544 231.521 247.924Z" fill="#F3F8FF"/>
<path fill-rule="evenodd" clip-rule="evenodd" d="M241.755 239.107C241.673 238.382 241.594 237.338 241.429 236.1C241.119 233.619 240.586 230.334 239.945 227.071C239.295 223.81 238.534 220.57 237.876 218.159C237.556 216.951 237.229 215.956 237.029 215.253C236.814 214.555 236.673 214.159 236.673 214.159C236.673 214.159 236.693 214.579 236.762 215.307C236.843 216.031 236.921 217.076 237.087 218.314C237.397 220.795 237.931 224.079 238.573 227.342C239.224 230.603 239.985 233.842 240.645 236.255C240.964 237.462 241.289 238.457 241.49 239.16C241.704 239.859 241.844 240.254 241.844 240.254C241.844 240.254 241.824 239.834 241.755 239.107Z" fill="#F3F8FF"/>
<path fill-rule="evenodd" clip-rule="evenodd" d="M252.064 230.629C252.003 230.011 251.959 229.122 251.832 228.068C251.601 225.956 251.175 223.164 250.639 220.392C250.094 217.623 249.439 214.875 248.859 212.831C248.58 211.806 248.286 210.966 248.109 210.371C247.918 209.778 247.788 209.444 247.788 209.444C247.788 209.444 247.796 209.802 247.841 210.422C247.901 211.041 247.944 211.93 248.071 212.984C248.301 215.096 248.729 217.888 249.266 220.659C249.812 223.428 250.468 226.177 251.048 228.22C251.328 229.244 251.621 230.086 251.797 230.681C251.989 231.273 252.116 231.607 252.116 231.607C252.116 231.607 252.109 231.249 252.064 230.629Z" fill="#F3F8FF"/>
<path fill-rule="evenodd" clip-rule="evenodd" d="M229.413 251.915C229.971 252.19 230.754 252.619 231.719 253.066C233.641 253.98 236.247 255.087 238.891 256.089C241.54 257.082 244.227 257.972 246.275 258.554C247.295 258.856 248.167 259.048 248.767 259.21C249.372 259.359 249.725 259.426 249.725 259.426C249.725 259.426 249.416 259.244 248.864 258.956C248.306 258.682 247.524 258.251 246.56 257.804C244.637 256.89 242.031 255.785 239.386 254.783C236.737 253.791 234.049 252.903 232.002 252.319C230.981 252.019 230.11 251.825 229.509 251.663C228.904 251.513 228.552 251.446 228.552 251.446C228.552 251.446 228.861 251.629 229.413 251.915Z" fill="#F3F8FF"/>
<path fill-rule="evenodd" clip-rule="evenodd" d="M62.0651 223.715C62.3272 223.152 62.667 222.328 63.137 221.376C64.06 219.462 65.3941 216.97 66.8236 214.535C68.2619 212.103 69.7958 209.729 71.0246 207.994C71.6298 207.122 72.188 206.426 72.5536 205.924C72.9314 205.43 73.1644 205.157 73.1644 205.157C73.1644 205.157 73.0382 205.492 72.7882 206.062C72.5261 206.624 72.188 207.449 71.7171 208.401C70.7949 210.316 69.46 212.806 68.0289 215.242C66.5906 217.672 65.0551 220.046 63.8271 221.78C63.2211 222.653 62.6645 223.35 62.2989 223.852C61.9211 224.346 61.6889 224.619 61.6889 224.619C61.6889 224.619 61.8151 224.284 62.0651 223.715Z" fill="#F3F8FF"/>
<path fill-rule="evenodd" clip-rule="evenodd" d="M55.3551 212.001C55.6755 211.346 56.0977 210.387 56.6665 209.274C57.7869 207.039 59.3847 204.117 61.0779 201.253C62.78 198.394 64.5776 195.592 66.0038 193.537C66.7076 192.503 67.3475 191.674 67.7706 191.078C68.2059 190.49 68.472 190.164 68.472 190.164C68.472 190.164 68.3135 190.553 68.0052 191.216C67.6857 191.873 67.265 192.832 66.6955 193.945C65.575 196.181 63.9757 199.101 62.2817 201.964C60.5795 204.824 58.7812 207.625 57.3549 209.681C56.6503 210.714 56.0112 211.544 55.5889 212.139C55.1537 212.728 54.8883 213.054 54.8883 213.054C54.8883 213.054 55.0477 212.665 55.3551 212.001Z" fill="#F3F8FF"/>
<path fill-rule="evenodd" clip-rule="evenodd" d="M48.4636 200.585C48.7265 200.023 49.0655 199.199 49.5363 198.247C50.4585 196.333 51.7926 193.84 53.2221 191.405C54.6604 188.974 56.1943 186.6 57.4239 184.865C58.0291 183.992 58.5873 183.297 58.9521 182.795C59.3299 182.3 59.5629 182.027 59.5629 182.027C59.5629 182.027 59.4367 182.363 59.1867 182.933C58.9246 183.495 58.5865 184.32 58.1156 185.272C57.1934 187.186 55.8585 189.677 54.4274 192.113C52.9891 194.543 51.4536 196.916 50.2256 198.651C49.6196 199.523 49.063 200.22 48.6974 200.722C48.3196 201.217 48.0874 201.49 48.0874 201.49C48.0874 201.49 48.2136 201.154 48.4636 200.585Z" fill="#F3F8FF"/>
<path fill-rule="evenodd" clip-rule="evenodd" d="M62.7205 228.177C62.1032 228.251 61.2214 228.396 60.1625 228.497C58.0445 228.72 55.2187 228.899 52.3905 228.966C49.5623 229.024 46.7308 228.971 44.6056 228.84C43.5426 228.785 42.6559 228.677 42.0362 228.631C41.4158 228.571 41.0606 228.516 41.0606 228.516C41.0606 228.516 41.4125 228.447 42.0298 228.359C42.6478 228.286 43.5288 228.139 44.5878 228.038C46.7049 227.814 49.5315 227.637 52.3598 227.571C55.1888 227.514 58.0194 227.569 60.1455 227.7C61.2077 227.755 62.0943 227.861 62.714 227.907C63.3345 227.968 63.6896 228.021 63.6896 228.021C63.6896 228.021 63.3377 228.091 62.7205 228.177Z" fill="#F3F8FF"/>
<path fill-rule="evenodd" clip-rule="evenodd" d="M58.4072 255.615C58.0577 256.129 57.5901 256.888 56.9737 257.753C55.7554 259.495 54.0387 261.742 52.2363 263.917C50.4274 266.087 48.5319 268.186 47.0409 269.702C46.3031 270.467 45.6406 271.065 45.1989 271.502C44.7466 271.93 44.4732 272.161 44.4732 272.161C44.4732 272.161 44.6512 271.85 44.9893 271.329C45.3388 270.814 45.8048 270.055 46.4221 269.191C47.6396 267.448 49.3571 265.202 51.1603 263.027C52.9708 260.857 54.8663 258.76 56.3581 257.244C57.0959 256.479 57.7568 255.88 58.1985 255.442C58.6507 255.015 58.9234 254.782 58.9234 254.782C58.9234 254.782 58.7454 255.094 58.4072 255.615Z" fill="#F3F8FF"/>
<path fill-rule="evenodd" clip-rule="evenodd" d="M45.0857 253.299C44.6674 253.898 44.1019 254.78 43.3674 255.792C41.9136 257.828 39.883 260.467 37.7667 263.037C35.6423 265.598 33.433 268.09 31.705 269.901C30.8491 270.814 30.0886 271.535 29.5781 272.058C29.0572 272.572 28.7441 272.854 28.7441 272.854C28.7441 272.854 28.9609 272.493 29.3678 271.885C29.7852 271.285 30.3499 270.403 31.0845 269.392C32.5382 267.354 34.5696 264.717 36.6875 262.148C38.8119 259.586 41.0229 257.095 42.7501 255.284C43.606 254.372 44.3657 253.651 44.8761 253.127C45.3971 252.614 45.7094 252.331 45.7094 252.331C45.7094 252.331 45.4918 252.691 45.0857 253.299Z" fill="#F3F8FF"/>
<path fill-rule="evenodd" clip-rule="evenodd" d="M69.4944 247.924C69.5535 247.306 69.5996 246.417 69.725 245.363C69.9564 243.252 70.3827 240.459 70.9183 237.688C71.4635 234.918 72.118 232.17 72.698 230.126C72.9779 229.101 73.2716 228.26 73.4496 227.666C73.6397 227.073 73.7691 226.739 73.7691 226.739C73.7691 226.739 73.7618 227.097 73.7165 227.717C73.6567 228.336 73.613 229.225 73.4868 230.279C73.2562 232.391 72.8283 235.183 72.2911 237.954C71.7458 240.723 71.0898 243.472 70.5097 245.515C70.2298 246.539 69.9378 247.381 69.7606 247.976C69.5689 248.567 69.441 248.902 69.441 248.902C69.441 248.902 69.4483 248.544 69.4944 247.924Z" fill="#F3F8FF"/>
<path fill-rule="evenodd" clip-rule="evenodd" d="M59.2588 239.107C59.3414 238.382 59.4206 237.338 59.5857 236.1C59.8963 233.619 60.4286 230.334 61.0702 227.071C61.7206 223.81 62.4802 220.57 63.1396 218.159C63.4591 216.951 63.786 215.956 63.9866 215.253C64.2002 214.555 64.3425 214.159 64.3425 214.159C64.3425 214.159 64.3223 214.579 64.2535 215.307C64.171 216.031 64.0934 217.076 63.9283 218.314C63.6177 220.795 63.0846 224.079 62.4422 227.342C61.7902 230.603 61.0289 233.842 60.3704 236.255C60.0508 237.462 59.7256 238.457 59.525 239.16C59.3106 239.859 59.1699 240.254 59.1699 240.254C59.1699 240.254 59.1901 239.834 59.2588 239.107Z" fill="#F3F8FF"/>
<path fill-rule="evenodd" clip-rule="evenodd" d="M48.9509 230.629C49.0108 230.011 49.0561 229.122 49.1823 228.068C49.4136 225.956 49.84 223.164 50.3755 220.392C50.9208 217.623 51.5753 214.875 52.1553 212.831C52.4352 211.806 52.7289 210.966 52.906 210.371C53.097 209.778 53.2256 209.444 53.2256 209.444C53.2256 209.444 53.2191 209.802 53.1738 210.422C53.114 211.041 53.0703 211.93 52.9441 212.984C52.7127 215.096 52.2856 217.888 51.7484 220.659C51.2031 223.428 50.547 226.177 49.967 228.22C49.6871 229.244 49.3942 230.086 49.2179 230.681C49.0261 231.273 48.8983 231.607 48.8983 231.607C48.8983 231.607 48.9056 231.249 48.9509 230.629Z" fill="#F3F8FF"/>
<path fill-rule="evenodd" clip-rule="evenodd" d="M71.6013 251.915C71.0431 252.19 70.2608 252.619 69.2957 253.066C67.3735 253.98 64.7686 255.087 62.1232 256.089C59.4753 257.082 56.7879 257.972 54.7395 258.554C53.7194 258.856 52.8473 259.048 52.247 259.21C51.6419 259.359 51.2892 259.426 51.2892 259.426C51.2892 259.426 51.5982 259.244 52.1508 258.956C52.709 258.682 53.4904 258.251 54.4556 257.804C56.3777 256.89 58.9835 255.785 61.6289 254.783C64.2775 253.791 66.9658 252.903 69.0133 252.319C70.0335 252.019 70.9055 251.825 71.505 251.663C72.1101 251.513 72.4628 251.446 72.4628 251.446C72.4628 251.446 72.1538 251.629 71.6013 251.915Z" fill="#F3F8FF"/>
<path fill-rule="evenodd" clip-rule="evenodd" d="M236.434 251.105V244.732H64.5799V251.105H236.434Z" fill="#279D8A"/>
<path fill-rule="evenodd" clip-rule="evenodd" d="M253.885 245.055C255.802 245.055 257.357 243.505 257.357 241.592V110.656C257.357 108.744 255.802 107.193 253.885 107.193H47.1295C45.2121 107.193 43.6581 108.744 43.6581 110.656V241.592C43.6581 243.505 45.2121 245.055 47.1295 245.055H253.885Z" fill="white"/>
<path fill-rule="evenodd" clip-rule="evenodd" d="M250.381 232.145V114.062H50.6337V232.145H250.381Z" fill="#4B5352"/>
<path fill-rule="evenodd" clip-rule="evenodd" d="M150.507 251.104H43.6582L13 275.283H150.507H288.014L257.357 251.104H150.507Z" fill="#2ADABF"/>
<path fill-rule="evenodd" clip-rule="evenodd" d="M169.209 261.343H177.739L190.665 271.537H276.756L255.596 254.849H150.507H45.4188L24.2581 271.537H110.349L123.276 261.343H169.209Z" fill="white"/>
<path fill-rule="evenodd" clip-rule="evenodd" d="M170.094 264.993H124.626L111.58 275.282H170.094H189.435L176.389 264.993H170.094Z" fill="#279D8A"/>
<path fill-rule="evenodd" clip-rule="evenodd" d="M20.6709 282.934C16.4342 282.934 13.0001 279.509 13.0001 275.282H288.014C288.014 279.509 284.58 282.934 280.343 282.934H20.6709Z" fill="#279D8A"/>
<path fill-rule="evenodd" clip-rule="evenodd" d="M133.216 271.863L128.879 275.282H148.957V271.863H133.216Z" fill="#2ADABF"/>
<path fill-rule="evenodd" clip-rule="evenodd" d="M172.134 275.282L167.8 271.863H152.058V275.282H172.134Z" fill="#2ADABF"/>
<path fill-rule="evenodd" clip-rule="evenodd" d="M43.6583 261.851H111.719L115.737 258.676H47.6766L43.6583 261.851Z" fill="#2ADABF"/>
<path fill-rule="evenodd" clip-rule="evenodd" d="M37.4127 267.042H105.473L109.491 263.866H41.431L37.4127 267.042Z" fill="#2ADABF"/>
<path fill-rule="evenodd" clip-rule="evenodd" d="M257.357 261.851H189.297L185.278 258.676H253.339L257.357 261.851Z" fill="#2ADABF"/>
<path fill-rule="evenodd" clip-rule="evenodd" d="M263.602 267.042H195.542L191.523 263.866H259.584L263.602 267.042Z" fill="#2ADABF"/>
<path fill-rule="evenodd" clip-rule="evenodd" d="M71.1066 192.342C69.5428 192.342 68.2751 191.077 68.2751 189.517C68.2751 187.957 69.5428 186.692 71.1066 186.692H131.201C132.764 186.692 134.032 187.957 134.032 189.517C134.032 191.077 132.764 192.342 131.201 192.342H71.1066Z" fill="#2ADABF"/>
<path fill-rule="evenodd" clip-rule="evenodd" d="M126.24 186.692C127.804 186.692 129.071 187.957 129.071 189.517C129.071 191.077 127.804 192.342 126.24 192.342H131.201C132.764 192.342 134.032 191.077 134.032 189.517C134.032 187.957 132.764 186.692 131.201 186.692H126.24Z" fill="#D4E1FF"/>
<path fill-rule="evenodd" clip-rule="evenodd" d="M71.1066 200.815C69.5428 200.815 68.2751 199.551 68.2751 197.991C68.2751 196.431 69.5428 195.166 71.1066 195.166H131.201C132.764 195.166 134.032 196.431 134.032 197.991C134.032 199.551 132.764 200.815 131.201 200.815H71.1066Z" fill="#2ADABF"/>
<path fill-rule="evenodd" clip-rule="evenodd" d="M122.201 195.166C123.764 195.166 125.032 196.431 125.032 197.991C125.032 199.551 123.764 200.815 122.201 200.815H131.201C132.764 200.815 134.032 199.551 134.032 197.991C134.032 196.431 132.764 195.166 131.201 195.166H122.201Z" fill="#D4E1FF"/>
<path fill-rule="evenodd" clip-rule="evenodd" d="M71.1066 209.288C69.5428 209.288 68.2751 208.024 68.2751 206.463C68.2751 204.903 69.5428 203.639 71.1066 203.639H131.201C132.764 203.639 134.032 204.903 134.032 206.463C134.032 208.024 132.764 209.288 131.201 209.288H71.1066Z" fill="#2ADABF"/>
<path fill-rule="evenodd" clip-rule="evenodd" d="M98.8411 203.639C100.405 203.639 101.673 204.903 101.673 206.463C101.673 208.024 100.405 209.288 98.8411 209.288H131.201C132.764 209.288 134.032 208.024 134.032 206.463C134.032 204.903 132.764 203.639 131.201 203.639H98.8411Z" fill="#D4E1FF"/>
<path fill-rule="evenodd" clip-rule="evenodd" d="M71.1066 217.761C69.5428 217.761 68.2751 216.498 68.2751 214.937C68.2751 213.377 69.5428 212.112 71.1066 212.112H131.201C132.764 212.112 134.032 213.377 134.032 214.937C134.032 216.498 132.764 217.761 131.201 217.761H71.1066Z" fill="#2ADABF"/>
<path fill-rule="evenodd" clip-rule="evenodd" d="M114.819 212.112C116.382 212.112 117.65 213.377 117.65 214.937C117.65 216.498 116.382 217.761 114.819 217.761H131.201C132.764 217.761 134.032 216.498 134.032 214.937C134.032 213.377 132.764 212.112 131.201 212.112H114.819Z" fill="#D4E1FF"/>
<path d="M76.5647 128.996H169.106" stroke="#8CB0EA" stroke-width="0.5" stroke-dasharray="1.62 1.62"/>
<path d="M76.5647 138.331H169.106" stroke="#8CB0EA" stroke-width="0.5" stroke-dasharray="1.62 1.62"/>
<path d="M76.5647 147.667H169.106" stroke="#8CB0EA" stroke-width="0.5" stroke-dasharray="1.62 1.62"/>
<path d="M76.5647 157.003H169.106" stroke="#8CB0EA" stroke-width="0.5" stroke-dasharray="1.62 1.62"/>
<path d="M76.5647 166.339H169.106" stroke="#8CB0EA" stroke-width="0.5" stroke-dasharray="1.62 1.62"/>
<path fill-rule="evenodd" clip-rule="evenodd" d="M79.6562 177.507V174.946H79.2404V177.507H79.6562Z" fill="#279D8A"/>
<path fill-rule="evenodd" clip-rule="evenodd" d="M70.2776 177.507V124.351H69.8618V177.507H70.2776Z" fill="#279D8A"/>
<path fill-rule="evenodd" clip-rule="evenodd" d="M89.5954 177.507V174.946H89.1796V177.507H89.5954Z" fill="#279D8A"/>
<path fill-rule="evenodd" clip-rule="evenodd" d="M99.5339 177.507V174.946H99.1181V177.507H99.5339Z" fill="#279D8A"/>
<path fill-rule="evenodd" clip-rule="evenodd" d="M109.473 177.507V174.946H109.057V177.507H109.473Z" fill="#279D8A"/>
<path fill-rule="evenodd" clip-rule="evenodd" d="M119.412 177.507V174.946H118.996V177.507H119.412Z" fill="#279D8A"/>
<path fill-rule="evenodd" clip-rule="evenodd" d="M129.351 177.507V174.946H128.935V177.507H129.351Z" fill="#279D8A"/>
<path fill-rule="evenodd" clip-rule="evenodd" d="M139.289 177.507V174.946H138.873V177.507H139.289Z" fill="#279D8A"/>
<path fill-rule="evenodd" clip-rule="evenodd" d="M149.228 177.507V174.946H148.812V177.507H149.228Z" fill="#279D8A"/>
<path fill-rule="evenodd" clip-rule="evenodd" d="M159.167 177.507V174.946H158.751V177.507H159.167Z" fill="#279D8A"/>
<path fill-rule="evenodd" clip-rule="evenodd" d="M169.106 177.507V174.946H168.689V177.507H169.106Z" fill="#279D8A"/>
<path fill-rule="evenodd" clip-rule="evenodd" d="M70.8415 166.546V166.132H68.2745V166.546H70.8415Z" fill="#5D7EE8"/>
<path fill-rule="evenodd" clip-rule="evenodd" d="M70.8415 157.211V156.796H68.2745V157.211H70.8415Z" fill="#5D7EE8"/>
<path fill-rule="evenodd" clip-rule="evenodd" d="M70.8415 147.875V147.46H68.2745V147.875H70.8415Z" fill="#5D7EE8"/>
<path fill-rule="evenodd" clip-rule="evenodd" d="M70.8415 138.539V138.124H68.2745V138.539H70.8415Z" fill="#5D7EE8"/>
<path fill-rule="evenodd" clip-rule="evenodd" d="M70.8415 129.204V128.789H68.2745V129.204H70.8415Z" fill="#5D7EE8"/>
<path fill-rule="evenodd" clip-rule="evenodd" d="M170.811 175.882V175.468H68.2745V175.882H170.811Z" fill="#279D8A"/>
<path d="M160.547 132.559C160.547 132.559 155.315 148.437 141.994 142.102C128.673 135.766 125.818 143.132 123.584 152.255C115.369 185.792 114.621 151.506 109.833 151.839C105.044 152.172 103.489 170.055 98.9389 170.59C94.3883 171.125 92.077 149.113 87.0128 149.168C81.9477 149.223 77.8914 164.156 77.8914 164.156" stroke="#89FFED" stroke-width="1.61798"/>
<path d="M162.125 141.895C162.125 141.895 157.003 153.407 151.498 146.674C145.628 139.495 144.281 162.02 139.117 163.42C133.91 164.832 136.178 139.598 128.751 151.575C121.02 164.038 117.385 149.619 111.735 146.155C106.086 142.691 103.062 148.218 101.806 151.23C100.779 153.696 99.8119 156.594 96.8462 152.551C94.0406 148.727 92.4056 145.507 86.6416 159.132" stroke="#2ADABF" stroke-width="1.61798"/>
<path fill-rule="evenodd" clip-rule="evenodd" d="M196.669 151.809C196.669 143.753 203.215 137.223 211.29 137.223C219.365 137.223 225.911 143.753 225.911 151.809C225.911 159.864 219.365 166.394 211.29 166.394C203.215 166.394 196.669 159.864 196.669 151.809ZM191.418 151.809C191.418 162.757 200.315 171.632 211.29 171.632C222.264 171.632 231.161 162.757 231.161 151.809C231.161 140.86 222.264 131.985 211.29 131.985C200.315 131.985 191.418 140.86 191.418 151.809Z" fill="#2ADABF"/>
<path fill-rule="evenodd" clip-rule="evenodd" d="M225.883 152.679H231.14C231.153 152.39 231.162 152.1 231.162 151.809C231.162 140.861 222.264 131.985 211.29 131.985V137.223C219.365 137.223 225.911 143.753 225.911 151.809C225.911 152.101 225.9 152.391 225.883 152.679Z" fill="#EFA748"/>
<path fill-rule="evenodd" clip-rule="evenodd" d="M222.181 139.495L226.66 135.026H234.431V135.661H226.924L222.632 139.944L222.181 139.495Z" fill="white"/>
<path fill-rule="evenodd" clip-rule="evenodd" d="M211.175 166.453C208.117 166.453 205.283 165.511 202.937 163.909L199.716 168.053C202.955 170.341 206.904 171.691 211.175 171.691C221.857 171.691 230.568 163.282 231.024 152.738L225.781 152.476C225.461 160.249 219.046 166.453 211.175 166.453Z" fill="#62C1C5"/>
<path fill-rule="evenodd" clip-rule="evenodd" d="M215.087 176.836L208.196 169.96L208.645 169.512L215.351 176.202H230.737V176.836H215.087Z" fill="white"/>
<path fill-rule="evenodd" clip-rule="evenodd" d="M195.76 135.571H187.442V134.936H196.024L200.594 139.494L200.143 139.943L195.76 135.571Z" fill="white"/>
<path d="M13 157.062L64.3926 105.795L86.6245 127.972L132.651 82.0578L178.251 127.546L237.88 68.0625" stroke="#EFA748" stroke-width="4.85393" stroke-linecap="round"/>
<path fill-rule="evenodd" clip-rule="evenodd" d="M178.251 133.399C175.011 133.399 172.384 130.779 172.384 127.547C172.384 124.315 175.011 121.694 178.251 121.694C181.491 121.694 184.118 124.315 184.118 127.547C184.118 130.779 181.491 133.399 178.251 133.399Z" fill="#EFA748"/>
<path fill-rule="evenodd" clip-rule="evenodd" d="M178.251 130.462C176.636 130.462 175.328 129.157 175.328 127.547C175.328 125.936 176.636 124.631 178.251 124.631C179.865 124.631 181.174 125.936 181.174 127.547C181.174 129.157 179.865 130.462 178.251 130.462Z" fill="#F3F8FF"/>
<path fill-rule="evenodd" clip-rule="evenodd" d="M132.651 87.9101C129.411 87.9101 126.784 85.2897 126.784 82.0576C126.784 78.8255 129.411 76.2051 132.651 76.2051C135.891 76.2051 138.518 78.8255 138.518 82.0576C138.518 85.2897 135.891 87.9101 132.651 87.9101Z" fill="#EFA748"/>
<path fill-rule="evenodd" clip-rule="evenodd" d="M132.651 84.9731C131.036 84.9731 129.727 83.6682 129.727 82.0574C129.727 80.4465 131.036 79.1416 132.651 79.1416C134.265 79.1416 135.574 80.4465 135.574 82.0574C135.574 83.6682 134.265 84.9731 132.651 84.9731Z" fill="#F3F8FF"/>
<path fill-rule="evenodd" clip-rule="evenodd" d="M86.5851 133.825C83.3451 133.825 80.7183 131.205 80.7183 127.973C80.7183 124.741 83.3451 122.12 86.5851 122.12C89.8251 122.12 92.4519 124.741 92.4519 127.973C92.4519 131.205 89.8251 133.825 86.5851 133.825Z" fill="#EFA748"/>
<path fill-rule="evenodd" clip-rule="evenodd" d="M86.5846 130.888C84.9706 130.888 83.6617 129.583 83.6617 127.972C83.6617 126.362 84.9706 125.057 86.5846 125.057C88.1993 125.057 89.5082 126.362 89.5082 127.972C89.5082 129.583 88.1993 130.888 86.5846 130.888Z" fill="#F3F8FF"/>
<path fill-rule="evenodd" clip-rule="evenodd" d="M64.4213 111.675C61.1813 111.675 58.5545 109.054 58.5545 105.822C58.5545 102.59 61.1813 99.9697 64.4213 99.9697C67.6613 99.9697 70.2881 102.59 70.2881 105.822C70.2881 109.054 67.6613 111.675 64.4213 111.675Z" fill="#EFA748"/>
<path fill-rule="evenodd" clip-rule="evenodd" d="M64.4212 108.738C62.8064 108.738 61.4975 107.433 61.4975 105.822C61.4975 104.211 62.8064 102.906 64.4212 102.906C66.0351 102.906 67.3441 104.211 67.3441 105.822C67.3441 107.433 66.0351 108.738 64.4212 108.738Z" fill="#F3F8FF"/>
<path fill-rule="evenodd" clip-rule="evenodd" d="M214.392 69.9023L229.175 65.9512L243.958 62L239.997 76.7466L236.036 91.4933L225.214 80.6978L214.392 69.9023Z" fill="#EFA748"/>
<path fill-rule="evenodd" clip-rule="evenodd" d="M150.344 227.47C149.28 227.541 150.42 228.448 150.42 228.448C150.42 228.448 148.87 227.932 147.801 228.181C146.732 228.43 146.447 231.504 151.98 230.651L153.129 230.456L153.396 228.234L152.238 228.198C152.238 228.198 151.407 227.399 150.344 227.47Z" fill="#FFA9A8"/>
<path fill-rule="evenodd" clip-rule="evenodd" d="M169.529 284.314L172.256 284.011C172.256 284.011 171.007 259.849 173.613 244.739C175.668 232.829 171.104 230.269 169.166 238.374C165.376 255.452 169.529 284.314 169.529 284.314Z" fill="#FED4D5"/>
<path fill-rule="evenodd" clip-rule="evenodd" d="M176.982 284.313L179.709 284.011C179.709 284.011 178.46 259.849 181.067 244.739C180.283 244.454 175.96 241.962 176.619 238.374C172.829 255.452 176.982 284.313 176.982 284.313Z" fill="#FED4D5"/>
<path fill-rule="evenodd" clip-rule="evenodd" d="M179.169 246.636V238.375H168.651V246.636H179.169Z" fill="#FED4D5"/>
<path fill-rule="evenodd" clip-rule="evenodd" d="M163.249 229.284C160.697 231.603 157.366 231.053 152.394 230.945L152.662 227.816C152.662 227.816 154.785 227.772 157.773 227.422C162.237 226.901 163.687 221.606 163.687 221.606C163.687 221.606 165 218.273 166.188 216.982C169.06 213.858 172.241 216.565 170.453 219.454C170.453 219.454 166.835 226.023 163.249 229.284Z" fill="#FFEB75"/>
<path fill-rule="evenodd" clip-rule="evenodd" d="M180.421 238.388C179.169 229.982 180.817 226.093 181.227 223.846C181.954 219.867 181.537 217.772 181.537 217.772C181.562 216.233 179.583 215.588 178.041 215.588H168.487C168.9 218.897 165.975 223.612 167.899 226.254C170.063 229.226 167.899 238.374 167.899 238.374C167.899 238.374 181.992 238.388 180.421 238.388Z" fill="#FFEB75"/>
<path fill-rule="evenodd" clip-rule="evenodd" d="M173.222 217.484C172.489 217.484 171.895 216.892 171.895 216.161V213.806H174.548V216.161C174.548 216.892 173.954 217.484 173.222 217.484V217.484Z" fill="#FED4D5"/>
<path fill-rule="evenodd" clip-rule="evenodd" d="M167.237 214.2C167.237 214.2 167.131 210.36 166.49 206.769C165.848 203.179 167.655 199.926 171.895 199.926C176.136 199.926 177.895 203.748 177.895 203.748C177.895 203.748 180.74 204.032 180.975 206.308C181.209 208.583 178.643 212.031 178.892 214.733C178.892 214.733 176.7 214.733 174.446 214.449C172.259 214.173 170.206 214.338 170.206 214.338C170.206 214.338 168.375 214.471 167.237 214.2Z" fill="#282828"/>
<path fill-rule="evenodd" clip-rule="evenodd" d="M177.016 209.012C177.011 209.034 177.003 209.053 176.999 209.075C173.862 205.241 167.899 205.546 167.899 205.546C167.899 205.546 167.847 209.241 168.736 212.158C169.511 214.701 172.387 216.108 174.751 214.88C175.676 214.398 176.5 213.525 176.888 211.989C176.888 211.989 179.025 211.011 179.162 209.164C179.237 208.151 178.683 207.832 178.114 207.945C177.315 208.186 177.072 208.817 177.016 209.012Z" fill="#FED4D5"/>
<path fill-rule="evenodd" clip-rule="evenodd" d="M181.656 259.773C181.656 259.773 184.945 244.978 180.421 238.388L167.899 238.374C167.899 238.374 163.797 245.681 166.762 259.773H181.656Z" fill="#2C4199"/>
<path fill-rule="evenodd" clip-rule="evenodd" d="M182.204 235.71L179.45 222.502L169.288 224.611L172.041 237.819L182.204 235.71Z" fill="white"/>
<path fill-rule="evenodd" clip-rule="evenodd" d="M143.277 220.51C142.903 227.123 143.464 234.082 146.681 239.21L143.039 240.526C143.039 240.526 140.444 235.761 138.966 228.669C137.942 223.75 140.846 213.916 140.846 213.916C140.846 213.916 143.651 213.898 143.277 220.51Z" fill="#F59E6E"/>
<path fill-rule="evenodd" clip-rule="evenodd" d="M147.18 240.951C146.891 240.466 146.618 239.919 146.362 239.322L143.184 240.414C143.532 241 143.756 241.307 143.756 241.307L147.18 240.951Z" fill="#EF9D75"/>
<path fill-rule="evenodd" clip-rule="evenodd" d="M148.061 240.507C148.249 241.227 147.874 242.347 147.874 242.347L146.618 242.16L146.698 241.533L146.405 240.093C146.405 240.093 147.874 239.787 148.061 240.507Z" fill="#EF9D75"/>
<path fill-rule="evenodd" clip-rule="evenodd" d="M142.261 244.401V242.703C142.261 242.274 142.61 241.925 143.041 241.925H147.733C148.163 241.925 148.513 242.274 148.513 242.703V244.401H149.489V242.703C149.489 241.736 148.701 240.951 147.733 240.951H143.041C142.072 240.951 141.284 241.736 141.284 242.703V244.401H142.261Z" fill="#EAA707"/>
<path fill-rule="evenodd" clip-rule="evenodd" d="M135.374 246.888V257.177H145.571H155.091V246.888H145.571H135.374Z" fill="#0A3C5F"/>
<path fill-rule="evenodd" clip-rule="evenodd" d="M155.091 250.762V244.248H135.374V250.762H155.091Z" fill="#0E4F77"/>
<path fill-rule="evenodd" clip-rule="evenodd" d="M146.325 251.072V249.477H144.139V251.072H146.325Z" fill="#EAA707"/>
<path fill-rule="evenodd" clip-rule="evenodd" d="M139.061 284.464H135C135 284.464 136.024 258.441 134.302 246.479C132.579 234.517 139.639 231.25 140.914 240.149C143.67 257.473 139.061 284.464 139.061 284.464Z" fill="#0A3C5F"/>
<path fill-rule="evenodd" clip-rule="evenodd" d="M140.915 248.397V240.136H127.696V248.397H140.915Z" fill="#0A3C5F"/>
<path fill-rule="evenodd" clip-rule="evenodd" d="M129.783 284.464H125.722C125.722 284.464 127.128 263.446 125.319 251.497C124.127 243.625 124.807 240.148 124.807 240.148C126.914 236.7 132.739 233.686 133.665 240.148C134.032 256.938 129.783 284.464 129.783 284.464Z" fill="#0E4F77"/>
<path fill-rule="evenodd" clip-rule="evenodd" d="M124.806 240.148L124.128 213.916H140.846L140.914 240.148H124.806Z" fill="#F59E6E"/>
<path fill-rule="evenodd" clip-rule="evenodd" d="M133.644 215.813C134.377 215.813 134.97 215.221 134.97 214.489V212.135H132.317V214.489C132.317 215.221 132.912 215.813 133.644 215.813V215.813Z" fill="#FED4D5"/>
<path fill-rule="evenodd" clip-rule="evenodd" d="M132.452 216.991L131.209 213.905L132.317 213.307L133.644 215.813L132.452 216.991Z" fill="white"/>
<path fill-rule="evenodd" clip-rule="evenodd" d="M134.835 216.991L136.079 213.905L134.97 213.307L133.644 215.813L134.835 216.991Z" fill="white"/>
<path fill-rule="evenodd" clip-rule="evenodd" d="M138.13 210.485C137.355 213.03 134.479 214.437 132.116 213.207C131.189 212.727 130.366 211.854 129.977 210.317C129.977 210.317 127.84 209.339 127.703 207.491C127.563 205.589 129.642 206.12 129.867 207.404L131.264 202.595L134.062 202.537L136.306 203.762L138.966 203.874C138.966 203.874 139.018 207.57 138.13 210.485Z" fill="#F8B690"/>
<path fill-rule="evenodd" clip-rule="evenodd" d="M127.696 200.586C126.787 202.544 128.51 206.249 128.51 206.249C128.51 206.249 129.523 206.255 129.867 207.404C129.867 207.404 131.439 206.695 131.878 204.71C131.878 204.71 135.485 205.978 138.966 203.874C140.105 203.185 141.59 199.686 139.369 198.806C137.149 197.926 129.086 198.719 127.696 200.586Z" fill="#282828"/>
<path fill-rule="evenodd" clip-rule="evenodd" d="M147.647 242.774C147.27 243.126 144.007 244.167 143.632 243.492C143.258 242.816 142.565 241.661 143.527 241.448C144.49 241.234 145.344 241.014 146.812 240.808C148.279 240.601 148.087 242.364 147.647 242.774Z" fill="#F8B690"/>
<path fill-rule="evenodd" clip-rule="evenodd" d="M148.147 227.241C149.211 227.313 148.071 228.219 148.071 228.219C148.071 228.219 149.621 227.703 150.69 227.952C151.759 228.2 152.044 231.274 146.511 230.422L145.362 230.228L145.095 228.005L146.253 227.97C146.253 227.97 147.084 227.17 148.147 227.241Z" fill="#EF9D75"/>
<path fill-rule="evenodd" clip-rule="evenodd" d="M126.432 228.914C128.583 232.898 136.935 232.477 146.081 230.653L145.777 227.333C145.777 227.333 136.803 228.156 133.457 227.77C129.321 227.29 129.21 220.867 129.21 220.867C129.21 220.867 129.08 217.566 128.436 216.064C126.881 212.429 122.482 212.912 122.673 216.999C122.673 216.999 123.498 223.479 126.432 228.914Z" fill="#F59E6E"/>
<path fill-rule="evenodd" clip-rule="evenodd" d="M179.364 220.376C181.298 224.701 184.059 230.112 183.096 230.653C182.133 231.194 176.194 230.569 175.221 230.799C174.249 231.029 173.656 233.232 176.12 233.68C178.584 234.127 183.191 235.005 185.932 234.202C188.674 233.399 187.652 229.622 185.209 222.812C182.767 216.003 181.145 214.767 178.848 215.645C178.848 215.645 177.429 216.053 179.364 220.376Z" fill="#FFEB75"/>
<path fill-rule="evenodd" clip-rule="evenodd" d="M170.896 231.008C171.543 229.303 173.672 229.842 175.383 230.489C177.09 231.136 177.099 230.666 177.011 232.512C176.912 234.602 174.304 233.38 172.298 233.34C171.195 233.318 170.247 232.714 170.896 231.008Z" fill="#FED4D5"/>
<path fill-rule="evenodd" clip-rule="evenodd" d="M175.087 229.571C174.011 229.393 174.31 230.128 174.31 230.128L175.183 231.548L176.264 231.745L176.953 231.149C176.953 231.149 176.34 229.777 175.087 229.571Z" fill="#FED4D5"/>
<path fill-rule="evenodd" clip-rule="evenodd" d="M129.867 207.405C129.867 207.405 131.439 206.696 131.878 204.711C131.878 204.711 129.168 204.369 127.55 203.209C127.829 204.784 128.51 206.25 128.51 206.25C128.51 206.25 129.523 206.255 129.867 207.405Z" fill="#282828"/>
<path fill-rule="evenodd" clip-rule="evenodd" d="M175.587 214.295L177.289 213.498L178.09 213.018L179.169 211.179L179.907 209.633L180.095 207.33L178.812 206.326L177.048 206.086H176.006L175 207.33C175 207.33 177.946 209.518 175.587 214.295Z" fill="#6CBA39"/>
<path fill-rule="evenodd" clip-rule="evenodd" d="M275.984 223.806C275.984 223.806 277.666 221.923 275.83 220.443C275.83 220.443 277.094 216.73 273.706 215.695C273.706 215.695 272.566 213.557 269.195 213.819C265.736 214.088 264.995 216.24 264.995 216.24C264.995 216.24 259.501 217.955 262.535 224.126C262.535 224.126 256.669 229.926 264.826 238.187C267.911 241.311 275.503 229.598 275.503 229.598C275.503 229.598 277.703 226.664 275.984 223.806Z" fill="#703518"/>
<path fill-rule="evenodd" clip-rule="evenodd" d="M275.39 245.633C277.648 249.62 284.245 247.377 290.674 243.558L289.537 240.39C289.537 240.39 285.937 242.198 282.749 242.865C278.594 243.736 278.527 236.781 278.527 236.781C278.527 236.781 278.446 233.395 277.813 231.862C276.279 228.156 271.916 229.349 271.9 232.914C271.9 232.914 273.133 241.647 275.39 245.633Z" fill="#FED4D5"/>
<path fill-rule="evenodd" clip-rule="evenodd" d="M261.804 253.755C265.4 244.704 263.841 239.534 263.453 237.409C262.766 233.646 263.16 231.664 263.16 231.664C263.136 230.209 265.007 229.598 266.467 229.598H275.504C275.112 232.727 277.88 237.188 276.06 239.687C274.013 242.497 276.06 253.958 276.06 253.958C276.06 253.958 260.318 253.755 261.804 253.755Z" fill="#F76B8D"/>
<path fill-rule="evenodd" clip-rule="evenodd" d="M257.755 241.851C257.058 246.377 258.378 248.366 265.638 249.974L266.612 247.651C266.612 247.651 265.92 247.43 263.048 245.898C259.298 243.9 263.731 237.684 263.731 237.684C263.731 237.684 265.766 234.973 266.218 233.378C267.31 229.519 263.546 228.311 262.104 231.183C262.104 231.183 258.452 237.325 257.755 241.851Z" fill="#FED4D5"/>
<path fill-rule="evenodd" clip-rule="evenodd" d="M270.766 249.449C270.776 247.725 269.335 247.708 267.606 247.697C265.878 247.688 266.016 247.266 265.477 248.928C264.772 251.106 269.105 250.267 269.614 251.985C270.103 253.64 270.754 251.174 270.766 249.449Z" fill="#FED4D5"/>
<path fill-rule="evenodd" clip-rule="evenodd" d="M277.171 262.159C285.394 259.86 289.788 259.193 291.212 280.879L295.123 280.568C295.123 280.568 296.752 259.5 291.663 255.096C286.574 250.693 270.23 254.588 270.23 254.588C270.23 254.588 268.631 264.547 277.171 262.159Z" fill="#C33E6B"/>
<path fill-rule="evenodd" clip-rule="evenodd" d="M265.669 261.557L262.504 253.743H280.596V261.557H265.669Z" fill="#0A3C5F"/>
<path fill-rule="evenodd" clip-rule="evenodd" d="M266.444 262.207C274.866 263.62 279.281 263.648 274.551 284.861L278.392 285.657C278.392 285.657 285.673 265.373 282.041 259.714C277.641 252.856 261.804 253.755 261.804 253.755C261.804 253.755 258.057 260.799 266.444 262.207Z" fill="#C33E6B"/>
<path fill-rule="evenodd" clip-rule="evenodd" d="M264.864 254.589C264.532 254.589 264.261 254.319 264.261 253.987V253.929C264.261 253.597 264.532 253.327 264.864 253.327H275.277C275.611 253.327 275.881 253.597 275.881 253.929V253.987C275.881 254.319 275.611 254.589 275.277 254.589H264.864Z" fill="#E89234"/>
<path fill-rule="evenodd" clip-rule="evenodd" d="M275.049 254.588C274.474 254.588 274.007 254.124 274.007 253.55V239.225C274.007 238.651 274.474 238.187 275.049 238.187H297.01C297.586 238.187 298.051 238.651 298.051 239.225V253.55C298.051 254.124 297.586 254.588 297.01 254.588H275.049Z" fill="white"/>
<path fill-rule="evenodd" clip-rule="evenodd" d="M287.071 238.187C286.496 238.187 286.029 238.651 286.029 239.225V253.55C286.029 254.124 286.496 254.588 287.071 254.588H275.048C274.473 254.588 274.007 254.124 274.007 253.55V239.225C274.007 238.651 274.473 238.187 275.048 238.187H287.071Z" fill="white"/>
<path fill-rule="evenodd" clip-rule="evenodd" d="M275.831 238.187C275.255 238.187 274.789 238.651 274.789 239.225V253.55C274.789 254.124 275.255 254.588 275.831 254.588H275.048C274.473 254.588 274.007 254.124 274.007 253.55V239.225C274.007 238.651 274.473 238.187 275.048 238.187H275.831Z" fill="#E89234"/>
<path fill-rule="evenodd" clip-rule="evenodd" d="M270.162 230.738C270.854 230.738 271.417 230.178 271.417 229.486V227.259H268.907V229.486C268.907 230.178 269.469 230.738 270.162 230.738V230.738Z" fill="#FED4D5"/>
<path fill-rule="evenodd" clip-rule="evenodd" d="M274.405 225.699C273.671 228.105 270.952 229.436 268.716 228.274C267.84 227.819 267.061 226.994 266.694 225.54C266.694 225.54 264.673 224.614 264.543 222.867C264.411 221.068 266.377 221.57 266.589 222.784L267.912 218.236L270.557 218.181L274.231 217.518L275.196 219.446C275.196 219.446 275.245 222.942 274.405 225.699Z" fill="#FED4D5"/>
<path fill-rule="evenodd" clip-rule="evenodd" d="M273.489 219.057C273.489 219.057 271.521 222.906 266.59 222.785C266.59 222.785 266.259 221.377 266.435 220.52C266.612 219.662 267.194 218.224 267.421 217.998C267.649 217.771 267.783 216.939 269.195 216.939C270.607 216.939 272.25 216.838 272.579 216.888C272.907 216.939 274.07 216.964 274.07 216.964C274.07 216.964 274.475 216.913 274.601 216.989C274.727 217.065 274.957 217.241 275.197 217.67C275.435 218.098 275.562 218.477 275.587 218.805C275.612 219.132 275.587 219.713 275.587 219.713L275.175 220.52C275.175 220.52 274.219 220.33 273.489 219.057Z" fill="#703518"/>
<path fill-rule="evenodd" clip-rule="evenodd" d="M42.2891 286.98H46.1302C46.1302 286.98 45.161 262.366 46.7903 251.052C48.4196 239.738 41.7414 236.647 40.536 245.065C37.9286 261.451 42.2891 286.98 42.2891 286.98Z" fill="#6D6D6D"/>
<path fill-rule="evenodd" clip-rule="evenodd" d="M53.0373 252.867V245.053H40.536V252.867H53.0373Z" fill="#6D6D6D"/>
<path fill-rule="evenodd" clip-rule="evenodd" d="M51.063 286.98H54.9049C54.9049 286.98 53.5757 267.1 55.2859 255.799C56.4128 248.354 55.7705 245.065 55.7705 245.065C53.778 241.804 47.662 238.941 46.7867 245.052C46.5731 258.407 51.063 286.98 51.063 286.98Z" fill="#6D6D6D"/>
<path fill-rule="evenodd" clip-rule="evenodd" d="M55.7709 245.066L56.4132 220.255H40.5999L40.536 245.066H55.7709Z" fill="#6CBA39"/>
<path fill-rule="evenodd" clip-rule="evenodd" d="M47.4125 222.048C46.72 222.048 46.1577 221.488 46.1577 220.797V218.569H48.6672V220.797C48.6672 221.488 48.105 222.048 47.4125 222.048V222.048Z" fill="#FED4D5"/>
<path fill-rule="evenodd" clip-rule="evenodd" d="M53.0167 225.262C53.3525 230.333 55.1088 235.204 53.9365 235.392C52.7651 235.579 47.0796 233.451 46.0149 233.322C44.9503 233.193 42.8089 234.774 45.1226 236.14C47.4363 237.504 53.4026 241.628 56.4622 241.836C59.5226 242.044 60.2159 237.599 60.2944 229.836C60.3729 222.073 58.6602 220.304 56.6645 220.225C56.6645 220.225 52.6802 220.19 53.0167 225.262Z" fill="#A2D680"/>
<path fill-rule="evenodd" clip-rule="evenodd" d="M32.015 230.498C27.979 229.501 31.7861 220.851 40.6138 214.029L42.5659 216.914C42.5659 216.914 36.7913 222.488 36.6902 224.386C36.5891 226.285 40.6 220.254 40.6 220.254L40.5822 227.819C40.5822 227.819 35.3521 231.322 32.015 230.498Z" fill="#A2D680"/>
<path fill-rule="evenodd" clip-rule="evenodd" d="M42.4805 219.652C42.652 219.727 42.8526 219.651 42.9286 219.481L45.7908 213.084C45.8669 212.914 45.7908 212.714 45.6193 212.637L42.275 211.148C42.1035 211.073 41.9036 211.149 41.8268 211.32L38.9646 217.715C38.8885 217.885 38.9654 218.086 39.1361 218.162L42.4805 219.652Z" fill="#62C1C5"/>
<path fill-rule="evenodd" clip-rule="evenodd" d="M44.7351 212.589C44.6598 212.556 44.5717 212.59 44.5385 212.665C44.5102 212.727 44.4366 212.755 44.3743 212.727L43.0394 212.133C42.9771 212.105 42.9488 212.033 42.9771 211.97C43.0103 211.895 42.9771 211.807 42.9011 211.773L42.2814 211.497C42.1957 211.459 42.0937 211.497 42.0557 211.583L39.314 217.708C39.276 217.795 39.3148 217.896 39.4006 217.933L42.4739 219.303C42.5605 219.341 42.6616 219.303 42.7005 219.217L45.4413 213.091C45.4801 213.005 45.4413 212.904 45.3548 212.866L44.7351 212.589Z" fill="#0A3C5F"/>
<path fill-rule="evenodd" clip-rule="evenodd" d="M43.9473 211.893L40.8084 218.907L42.4806 219.651C42.6521 219.727 42.8527 219.65 42.9288 219.48L45.791 213.085C45.867 212.914 45.7902 212.714 45.6195 212.637L43.9473 211.893Z" fill="#45ADAD"/>
<path fill-rule="evenodd" clip-rule="evenodd" d="M44.7351 212.589C44.6598 212.556 44.5717 212.589 44.5385 212.665C44.5102 212.727 44.4366 212.754 44.3743 212.727L43.7069 212.43L40.9377 218.618L42.474 219.302C42.5605 219.34 42.6616 219.302 42.7005 219.216L45.4413 213.091C45.4802 213.004 45.4413 212.903 45.3548 212.865L44.7351 212.589Z" fill="#0A3C5F"/>
<path fill-rule="evenodd" clip-rule="evenodd" d="M43.2874 212.063C43.2599 212.051 43.2478 212.019 43.2599 211.992C43.2721 211.965 43.3044 211.952 43.3311 211.965L43.9848 212.255C44.0115 212.268 44.0244 212.299 44.0115 212.327C44.0001 212.354 43.9678 212.366 43.9403 212.354L43.2874 212.063Z" fill="#0A3C5F"/>
<path fill-rule="evenodd" clip-rule="evenodd" d="M44.1341 212.439C44.1074 212.428 44.0953 212.396 44.1074 212.369C44.1196 212.342 44.1511 212.33 44.1778 212.342C44.2045 212.354 44.2166 212.386 44.2045 212.413C44.1924 212.439 44.1608 212.451 44.1341 212.439Z" fill="#0A3C5F"/>
<path fill-rule="evenodd" clip-rule="evenodd" d="M44.2855 212.507C44.2588 212.495 44.2467 212.463 44.2588 212.436C44.2709 212.41 44.3025 212.398 44.3292 212.41C44.3559 212.422 44.368 212.453 44.3559 212.48C44.3437 212.507 44.3122 212.519 44.2855 212.507Z" fill="#0A3C5F"/>
<path fill-rule="evenodd" clip-rule="evenodd" d="M43.1695 217.009C43.9025 219.414 46.6223 220.746 48.8575 219.584C49.7337 219.129 50.5135 218.303 50.88 216.85C50.88 216.85 52.9017 215.924 53.0311 214.177C53.1646 212.378 51.1971 212.88 50.9844 214.094L49.6625 209.545L47.0171 209.491L44.8935 210.65L42.3784 210.756C42.3784 210.756 42.329 214.251 43.1695 217.009Z" fill="#FED4D5"/>
<path fill-rule="evenodd" clip-rule="evenodd" d="M53.0371 207.645C53.8979 209.498 52.2677 213.002 52.2677 213.002C52.2677 213.002 51.3099 213.007 50.9847 214.094C50.9847 214.094 49.4978 213.424 49.0827 211.546C48.6669 209.669 44.1779 212.342 41.2121 211.156C41.2121 211.156 37.6072 210.279 37.7626 206.194C37.7626 206.194 38.591 207.657 40.4015 207.531C40.4015 207.531 38.2836 206.31 39.9064 203.289C39.9064 203.289 40.4258 205.503 42.1449 205.886C42.1449 205.886 41.9256 204.841 42.8689 203.816C42.8689 203.816 43.2232 205.329 44.8752 205.379C46.5263 205.43 48.0432 204.965 49.175 205.082C52.4328 205.418 53.0371 207.645 53.0371 207.645Z" fill="#282828"/>
<path fill-rule="evenodd" clip-rule="evenodd" d="M41.7056 212.968C41.6733 214.015 40.8271 216.32 39.8652 216.553C39.6112 216.615 38.9858 216.398 39.1112 215.09C39.2366 213.782 39.9768 211.824 41.0487 211.96C41.0487 211.96 41.7388 211.923 41.7056 212.968Z" fill="#FED4D5"/>
<path fill-rule="evenodd" clip-rule="evenodd" d="M38.4311 239.443L36.1505 226.436L45.2168 226.988L47.4966 239.994L38.4311 239.443Z" fill="white"/>
<path fill-rule="evenodd" clip-rule="evenodd" d="M44.7291 233.915C44.5074 235.355 44.471 238.307 46.5663 238.197C47.7976 238.133 48.3315 232.992 46.5663 232.845C46.5663 232.845 44.9508 232.476 44.7291 233.915Z" fill="#FED4D5"/>
</svg>
