<svg width="152" height="122" viewBox="0 0 152 122" fill="none" xmlns="http://www.w3.org/2000/svg">
<g clip-path="url(#clip0_0_2323)">
<path d="M152 116.048C152 112.823 118.378 110.209 76.9026 110.209C35.4274 110.209 1.80518 112.823 1.80518 116.048C1.80518 119.274 35.4274 121.888 76.9026 121.888C118.378 121.888 152 119.274 152 116.048Z" fill="#3F3D56"/>
<path d="M141.398 110.338L136.471 110.805L137.175 104.5L140.694 105.2V105.2L141.398 110.338Z" fill="#F2B2BB"/>
<path d="M117.936 41.2163C117.936 41.4498 114.651 57.5626 114.651 57.5626C114.651 57.5626 109.959 66.4363 114.651 66.2028C119.343 65.9693 117.936 57.7961 117.936 57.7961L122.863 44.252L120.751 34.6777L117.466 34.6777C117.466 34.6777 117.936 40.9827 117.936 41.2163Z" fill="#A0616A"/>
<path d="M124.505 110.338L129.432 110.805L128.728 104.5L125.209 105.2V105.2L124.505 110.338Z" fill="#F2B2BB"/>
<path d="M118.639 58.73C118.639 58.73 117.936 65.7355 118.639 68.0707C119.343 70.4059 120.751 81.1478 120.751 81.8483C120.751 82.5489 120.986 83.0159 120.751 83.2495C120.516 83.483 119.813 83.483 120.282 83.95C120.751 84.4171 120.751 85.8182 120.751 85.8182V86.9858L123.801 104.266C123.801 104.266 121.924 106.368 123.332 106.368C124.74 106.368 129.901 106.368 129.667 104.033L129.197 103.799C129.197 103.799 128.493 88.3869 128.728 87.6863C128.963 86.9858 128.728 85.5847 128.728 85.5847C128.728 85.5847 128.259 84.8841 128.728 84.6506C129.197 84.4171 129.197 82.5489 129.197 82.5489L131.309 68.3042C131.309 68.3042 133.186 77.8785 134.359 78.8126C135.532 79.7467 135.297 82.0819 135.297 82.0819L136.236 102.632C136.236 102.632 135.297 104.967 136.236 105.434C137.174 105.901 141.163 107.535 141.398 105.2C141.632 102.865 142.805 82.5489 142.805 81.6148C142.805 80.6807 142.571 80.2137 142.805 79.5132C143.04 78.8126 142.571 78.8126 142.805 78.8126C143.04 78.8126 142.336 78.112 142.336 77.645V66.2026C142.336 66.2026 142.571 63.8674 142.805 63.4003C143.04 62.9333 142.571 62.4663 142.805 61.7657C143.04 61.0652 142.336 58.73 142.336 58.73L131.778 55.9277L119.813 57.0953L118.639 58.73Z" fill="#2F2E41"/>
<path d="M127.555 108.236C126.501 108.258 125.462 108.496 124.505 108.937L123.332 113.14C123.332 113.14 118.522 116.993 123.918 116.526C129.315 116.059 128.493 116.409 128.493 116.409C128.493 116.409 130.136 115.942 130.37 115.475C130.605 115.008 129.901 108.236 129.901 108.236C129.901 108.236 129.197 110.104 128.024 109.404C128.024 109.404 129.197 108.236 127.555 108.236Z" fill="#2F2E41"/>
<path d="M138.582 108.236C139.636 108.258 140.675 108.496 141.632 108.937L142.805 113.14C142.805 113.14 147.615 116.993 142.218 116.526C136.822 116.059 136.939 116.409 136.939 116.409C136.939 116.409 135.297 115.942 135.063 115.475C134.828 115.008 136.236 108.236 136.236 108.236C136.236 108.236 136.939 110.104 138.113 109.404C138.113 109.404 136.939 108.236 138.582 108.236Z" fill="#2F2E41"/>
<path d="M128.963 10.1579C128.963 6.80473 126.232 4.08643 122.863 4.08643C119.494 4.08643 116.763 6.80473 116.763 10.1579C116.763 13.5111 119.494 16.2294 122.863 16.2294C126.232 16.2294 128.963 13.5111 128.963 10.1579Z" fill="#F2B2BB"/>
<path d="M121.689 19.9659C121.689 20.6664 125.678 22.7681 125.678 22.7681L130.136 17.1637C130.136 17.1637 127.32 13.1938 127.32 12.2598L120.751 14.5949C120.751 14.5949 121.689 19.2653 121.689 19.9659Z" fill="#F2B2BB"/>
<path d="M121.605 19.2278C121.605 19.2278 115.12 25.5702 115.12 26.7378L120.282 35.845C120.282 35.845 120.282 39.1143 120.751 39.3478C121.22 39.5813 120.751 39.3478 120.751 40.2819C120.751 41.216 119.343 47.2874 119.813 48.2215C120.282 49.1556 120.751 48.455 120.282 49.8562C119.813 51.2573 118.639 58.7299 118.639 58.7299C118.639 58.7299 122.863 57.3288 128.963 59.664C135.063 61.9992 142.336 58.7299 142.336 58.7299C142.336 58.7299 140.459 54.5265 140.928 53.1254C141.397 51.7243 139.755 49.1556 139.755 49.1556L138.582 27.6719C138.582 27.6719 140.224 18.0976 139.051 17.6305L136.705 16.6964L129.192 15.7773C129.192 15.7773 127.32 20.4328 124.27 20.6663C124.27 20.6663 122.225 20.1246 121.605 19.2278Z" fill="#D0CDE1"/>
<path d="M115.12 26.7381C115.12 26.7381 113.947 30.2409 115.12 31.8756C116.293 33.5102 116.762 35.8454 116.762 35.8454L121.455 35.3784L117.466 25.1035L115.12 26.7381Z" fill="#D0CDE1"/>
<path d="M117.147 3.31991C117.147 3.31991 119.359 0.895546 122.438 1.10637L121.572 0.157685C121.572 0.157685 123.688 -0.685567 125.612 1.52798C126.623 2.6916 127.794 4.05937 128.523 5.60014H129.656L129.183 6.63665L130.839 7.67315L129.14 7.48697C129.301 8.38181 129.245 9.30191 128.979 10.1714L129.024 10.9907C129.024 10.9907 127.055 7.95784 127.055 7.53621V8.59028C127.055 8.59028 125.997 7.64162 125.997 7.00917L125.42 7.74703L125.131 6.58754L121.572 7.74703L122.149 6.79837L119.937 7.1146L120.802 5.95511C120.802 5.95511 118.301 7.32541 118.205 8.48489C118.109 9.64437 116.858 11.1201 116.858 11.1201L116.281 10.066C116.281 10.066 115.416 5.32265 118.205 3.74155L117.147 3.31991Z" fill="#2F2E41"/>
<rect x="26.3867" y="50.8184" width="93.2332" height="65.1861" fill="#F2F2F2"/>
<rect x="34.2354" y="75.6895" width="23.4098" height="40.674" fill="#3F3D56"/>
<rect x="38.5654" y="78.1299" width="6.30595" height="5.85086" fill="#F2F2F2"/>
<rect x="47.0088" y="78.1299" width="6.30595" height="5.85086" fill="#F2F2F2"/>
<rect x="38.5654" y="86.1079" width="6.30595" height="6.06362" fill="#F2F2F2"/>
<rect x="47.0088" y="86.1079" width="6.30595" height="6.06362" fill="#F2F2F2"/>
<path d="M56.1567 98.7647C56.1567 97.9465 55.4902 97.2832 54.6682 97.2832C53.8461 97.2832 53.1797 97.9465 53.1797 98.7647C53.1797 99.5829 53.8461 100.246 54.6682 100.246C55.4902 100.246 56.1567 99.5829 56.1567 98.7647Z" fill="#33907C"/>
<rect x="65.4932" y="71.8286" width="46.2783" height="38.6538" fill="#3F3D56"/>
<path d="M16.644 63.0905L24.1596 47.4512L25.8415 43.9495L28.0419 39.3703L29.7238 35.8686L31.6736 31.812H120.482L121.634 35.8686L122.628 39.3703L123.929 43.9495L124.923 47.4512L129.363 63.0905V63.0905H16.644Z" fill="#3F3D56"/>
<rect x="65.4932" y="97.8223" width="46.2783" height="0.942774" fill="#F2F2F2"/>
<rect x="88.2266" y="71.8286" width="0.8119" height="8.61965" fill="#F2F2F2"/>
<path d="M89.9856 80.4484C89.9856 79.7046 89.3798 79.1016 88.6325 79.1016C87.8851 79.1016 87.2793 79.7046 87.2793 80.4484C87.2793 81.1922 87.8851 81.7952 88.6325 81.7952C89.3798 81.7952 89.9856 81.1922 89.9856 80.4484Z" fill="#F2F2F2"/>
<path d="M28.042 39.3699L29.7239 35.8682H121.634L122.628 39.3699V39.3699H28.042Z" fill="#33907C"/>
<path d="M24.1597 47.4509L25.8416 43.9492H123.929L124.923 47.4509V47.4509H24.1597Z" fill="#33907C"/>
<path d="M133.753 34.1228C133.805 34.7388 134.013 35.3315 134.359 35.8453V35.8453L117.714 43.7105C117.714 43.7105 110.193 44.4855 112.07 47.7548C113.947 51.024 120.751 46.1201 120.751 46.1201C120.751 46.1201 138.582 43.5514 139.99 40.9827C141.397 38.414 142.336 27.6721 142.336 27.6721L134.828 27.2051C134.828 27.2051 133.469 30.6823 133.753 34.1228Z" fill="#F2B2BB"/>
<path d="M139.051 17.6309C139.051 17.6309 141.632 18.0979 142.336 22.7683C143.04 27.4387 143.744 28.6063 143.04 28.6063C142.336 28.6063 133.89 28.3727 133.89 28.1392C133.89 27.9057 135.532 17.6309 135.532 17.6309H139.051Z" fill="#D0CDE1"/>
<path d="M36.1045 69.4227C36.1045 59.4994 28.0222 51.4551 18.0523 51.4551C8.08227 51.4551 0 59.4994 0 69.4227C0 79.3459 8.08227 87.3903 18.0523 87.3903C28.0222 87.3903 36.1045 79.3459 36.1045 69.4227Z" fill="#33907C"/>
<path opacity="0.1" d="M33.5772 69.4223C33.5772 60.8884 26.6265 53.9702 18.0523 53.9702C9.4781 53.9702 2.52734 60.8884 2.52734 69.4223C2.52734 77.9563 9.4781 84.8745 18.0523 84.8745C26.6265 84.8745 33.5772 77.9563 33.5772 69.4223Z" fill="black"/>
<path d="M17.3085 76.2919C16.1663 76.2697 14.9847 75.8688 14.2954 75.3121L14.768 73.8202C15.5871 74.4312 16.5804 74.7665 17.6039 74.7776C19.0022 74.7776 19.9475 73.8647 19.9475 72.5955C19.9475 71.3707 19.1794 70.6137 17.7221 69.9456C15.7133 69.055 14.4726 68.0306 14.4726 66.0934C14.4726 64.2451 15.6346 62.8423 17.4464 62.5083V60.2593H18.6674V62.4193C19.5779 62.4316 20.4659 62.7019 21.2276 63.1986L20.7352 64.6683C20.0047 64.1706 19.1391 63.9064 18.2538 63.9111C16.7375 63.9111 16.1663 64.9354 16.1663 65.8261C16.1663 66.984 16.895 67.563 18.6084 68.3647C20.6367 69.2999 21.6609 70.4578 21.6609 72.4396C21.6609 74.1987 20.5777 75.8466 18.5492 76.2249V78.5409L17.3085 78.5409V76.2919Z" fill="#F2F2F2"/>
</g>
<defs>
<clipPath id="clip0_0_2323">
<rect width="152" height="121.888" fill="white"/>
</clipPath>
</defs>
</svg>
