<svg width="70" height="66" viewBox="0 0 70 66" fill="none" xmlns="http://www.w3.org/2000/svg">
<path d="M65 33C65 15.3269 50.6731 1 33 1C15.3269 1 1 15.3269 1 33C1 50.6731 15.3269 65 33 65C50.6731 65 65 50.6731 65 33Z" fill="#33907C" stroke="white"/>
<path d="M20.2002 21.5257V17H45.8002V21.5257H35.8015V45.8H30.1988V21.5257H20.2002Z" fill="white"/>
<path fill-rule="evenodd" clip-rule="evenodd" d="M70 53C70 48.0294 65.9706 44 61 44C56.0294 44 52 48.0294 52 53C52 57.9706 56.0294 62 61 62C65.9706 62 70 57.9706 70 53Z" fill="white"/>
</svg>
